<svg xmlns="http://www.w3.org/2000/svg" xmlns:xlink="http://www.w3.org/1999/xlink" width="500" zoomAndPan="magnify" viewBox="0 0 375 374.999991" height="500" preserveAspectRatio="xMidYMid meet" version="1.0"><defs><g/><clipPath id="154f96073d"><path d="M 154.414062 109.800781 L 315.664062 109.800781 L 315.664062 240 L 154.414062 240 Z M 154.414062 109.800781 " clip-rule="nonzero"/></clipPath><clipPath id="c8054b681c"><path d="M 59.335938 135 L 220.550781 135 L 220.550781 265.195312 L 59.335938 265.195312 Z M 59.335938 135 " clip-rule="nonzero"/></clipPath><clipPath id="d253bd856c"><path d="M 197.605469 109.800781 L 220.855469 109.800781 L 220.855469 133.050781 L 197.605469 133.050781 Z M 197.605469 109.800781 " clip-rule="nonzero"/></clipPath></defs><g clip-path="url(#154f96073d)"><path fill="#000000" d="M 207.484375 239.820312 C 188.402344 239.820312 170.488281 237.570312 154.917969 233.613281 C 165.632812 235.242188 177.089844 236.117188 189 236.117188 C 248.703125 236.117188 297.097656 214.082031 297.097656 186.890625 C 297.097656 168.398438 274.695312 152.289062 241.566406 143.867188 C 284.566406 150.371094 315.582031 168.828125 315.582031 190.601562 C 315.582031 217.78125 267.183594 239.820312 207.484375 239.820312 Z M 209.488281 135.699219 L 209.488281 135.300781 C 233.320312 135.300781 235.050781 131.433594 235.050781 109.730469 L 235.449219 109.730469 C 235.449219 131.433594 237.1875 135.300781 261.023438 135.300781 L 261.023438 135.699219 C 237.1875 135.699219 235.449219 139.554688 235.449219 161.261719 L 235.050781 161.261719 C 235.050781 139.554688 233.320312 135.699219 209.488281 135.699219 " fill-opacity="1" fill-rule="evenodd"/></g><g clip-path="url(#c8054b681c)"><path fill="#000000" d="M 167.515625 135.175781 C 186.597656 135.175781 204.511719 137.421875 220.082031 141.378906 C 209.367188 139.75 197.910156 138.875 185.996094 138.875 C 126.296875 138.875 77.902344 160.914062 77.902344 188.105469 C 77.902344 206.597656 100.304688 222.707031 133.433594 231.128906 C 90.433594 224.625 59.417969 206.164062 59.417969 184.390625 C 59.417969 157.210938 107.816406 135.175781 167.515625 135.175781 Z M 165.511719 239.292969 L 165.511719 239.691406 C 141.675781 239.691406 139.949219 243.558594 139.949219 265.265625 L 139.550781 265.265625 C 139.550781 243.558594 137.8125 239.691406 113.976562 239.691406 L 113.976562 239.292969 C 137.8125 239.292969 139.550781 235.4375 139.550781 213.730469 L 139.949219 213.730469 C 139.949219 235.4375 141.675781 239.292969 165.511719 239.292969 " fill-opacity="1" fill-rule="evenodd"/></g><g clip-path="url(#d253bd856c)"><path fill="#000000" d="M 220.855469 121.421875 C 212.136719 123.027344 210.835938 124.328125 209.230469 133.046875 C 207.625 124.328125 206.324219 123.027344 197.605469 121.421875 C 206.324219 119.820312 207.625 118.519531 209.230469 109.800781 C 210.835938 118.519531 212.136719 119.820312 220.855469 121.421875 Z M 220.855469 121.421875 " fill-opacity="1" fill-rule="nonzero"/></g><path stroke-linecap="butt" transform="matrix(0.731065, 0, 0, 0.731065, 61.044284, 144.367123)" fill="none" stroke-linejoin="miter" d="M 83.085414 1.341238 C 84.239551 2.495376 84.570831 3.943391 84.570831 6.369217 L 84.570831 38.968258 C 84.570831 41.394084 84.239551 42.842099 83.085414 44.001579 L 95.235917 44.001579 C 97.330463 44.001579 98.270871 41.394084 98.270871 39.689593 C 98.270871 31.461021 86.927195 29.200835 86.927195 23.734711 C 86.927195 23.056121 87.301221 22.671409 87.905006 22.671409 C 89.61484 22.671409 93.403189 27.619239 100.915769 27.619239 C 110.768684 27.619239 114.610465 20.282985 114.610465 13.673411 C 114.610465 6.753929 110.640446 1.341238 100.279925 1.341238 Z M 97.800667 10.253744 C 103.683562 10.253744 112.393025 10.638457 112.393025 14.485582 C 112.393025 18.316677 105.436141 18.70139 99.547903 18.70139 C 93.665007 18.70139 86.750869 18.316677 86.750869 14.485582 C 86.750869 10.638457 93.445935 10.253744 97.800667 10.253744 Z M 115.887497 1.341238 C 117.041635 2.495376 117.372915 3.943391 117.372915 6.369217 L 117.372915 22.671409 L 117.415661 31.669407 L 117.415661 38.968258 C 117.415661 41.394084 117.08438 42.842099 115.9249 44.001579 L 128.080746 44.001579 C 130.175292 44.001579 131.110357 41.394084 131.110357 39.689593 C 131.110357 31.461021 119.595698 30.264137 119.595698 26.042986 C 119.595698 25.823914 119.772025 25.18807 120.365123 25.18807 C 122.459669 25.18807 134.444532 33.03193 134.444532 38.711783 C 134.444532 40.843731 133.717853 41.479575 133.717853 43.018425 C 133.717853 43.739761 134.401786 44.001579 134.957482 44.001579 L 144.174552 44.001579 C 146.258411 44.001579 146.98509 42.842099 146.98509 40.117052 C 146.98509 33.37924 137.944347 30.264137 131.666053 27.91846 C 126.718223 26.042986 121.342934 23.825546 121.342934 21.511928 C 121.342934 20.838681 121.647498 20.149405 122.801636 20.149405 C 125.227462 20.149405 127.364753 27.191781 135.465089 27.191781 C 143.998225 27.191781 147.412549 20.282985 147.412549 13.673411 C 147.412549 6.753929 143.44253 1.341238 133.082008 1.341238 Z M 130.60275 10.253744 C 136.485645 10.253744 145.195109 10.638457 145.195109 14.485582 C 145.195109 18.316677 138.238224 18.70139 132.349986 18.70139 C 126.467091 18.70139 119.552952 18.316677 119.552952 14.485582 C 119.552952 10.638457 126.248018 10.253744 130.60275 10.253744 Z M 149.539154 22.671409 C 149.539154 35.853155 156.23422 44.637424 166.348953 44.637424 C 176.378194 44.637424 183.116006 35.853155 183.116006 22.671409 C 183.116006 9.484319 176.378194 0.705394 166.348953 0.705394 C 156.23422 0.705394 149.539154 9.484319 149.539154 22.671409 Z M 162.88654 3.601424 C 171.900568 3.601424 178.462053 41.741393 168.951105 41.741393 C 161.358377 41.741393 154.909099 3.601424 162.88654 3.601424 Z M 197.788513 44.637424 C 209.682541 44.637424 214.683803 36.024138 214.683803 28.43141 C 214.683803 21.859238 209.821465 17.13048 202.656194 16.441204 C 196.206917 15.848105 188.143984 14.993189 188.143984 10.381982 C 188.143984 8.768327 189.426359 7.40046 190.997269 7.40046 C 196.719867 7.40046 200.641797 12.51393 206.914748 12.51393 C 212.119053 12.51393 216.008924 0.705394 213.016716 0.705394 C 211.696938 0.705394 210.842021 2.404541 207.892559 2.404541 C 204.018718 2.404541 201.416565 0.705394 198.08239 0.705394 C 190.91712 0.705394 184.905987 6.508141 184.905987 13.673411 C 184.905987 22.671409 192.156749 25.230816 200.604394 27.838311 C 204.820202 29.158089 208.624581 31.199202 208.624581 35.553934 C 208.624581 38.834677 205.675119 41.313935 202.394376 41.313935 C 195.736713 41.313935 196.511481 35.126476 197.104579 30.64885 C 197.323652 29.024508 196.206917 28.169592 194.924542 28.126846 C 192.707102 28.046697 184.606767 32.273192 184.606767 34.821912 C 184.606767 39.946068 190.665988 44.637424 197.788513 44.637424 Z M 230.670745 1.341238 C 235.581172 5.18302 236.046033 14.138272 236.601729 19.764692 C 237.06659 24.375899 238.610783 29.489369 245.044031 29.489369 C 248.116388 29.489369 248.762918 28.43141 249.868967 28.43141 C 250.210933 28.43141 250.419319 28.730631 250.419319 29.067254 C 250.419319 31.626661 240.705329 34.357051 240.705329 39.908666 C 240.705329 41.741393 241.506813 44.001579 243.350227 44.001579 L 253.710748 44.001579 C 255.324404 44.001579 255.928188 43.488629 255.928188 42.804696 C 255.928188 40.720837 251.74444 39.262135 251.74444 32.909036 C 251.74444 27.271929 264.803292 20.368477 264.803292 7.608846 C 264.803292 4.963948 264.252939 1.341238 261.426371 1.341238 L 251.493308 1.341238 C 250.130785 1.341238 249.099542 2.45263 249.099542 3.767064 C 249.099542 7.827918 255.420582 13.796305 255.420582 19.34792 C 255.420582 22.035565 254.522919 26.208626 248.928558 26.251372 C 245.391341 26.294118 243.724253 24.119424 243.724253 21.982132 C 243.724253 16.569441 247.688929 14.138272 247.688929 8.682835 C 247.688929 5.305914 246.246257 1.341238 242.148001 1.341238 Z M 230.670745 1.341238 " stroke="#000000" stroke-width="10.080008" stroke-opacity="1" stroke-miterlimit="4"/><path stroke-linecap="butt" transform="matrix(0.731065, 0, 0, 0.731065, 61.044284, 144.367123)" fill="none" stroke-linejoin="miter" d="M 71.357026 103.637359 C 80.451202 103.637359 85.564672 95.146968 85.564672 89.648786 C 85.564672 87.68782 85.008976 87.345854 84.501369 87.345854 C 82.406824 87.345854 82.198438 93.656207 74.728603 93.656207 C 64.533722 93.656207 58.982107 80.346224 58.982107 71.556612 C 58.982107 69.985702 59.628638 66.400396 62.481922 66.400396 C 67.387007 66.400396 70.117397 70.413161 75.968233 71.348226 C 76.732314 71.47112 77.159773 71.775684 77.159773 72.368783 C 77.159773 74.121362 68.327415 75.868598 68.327415 82.264443 C 68.327415 85.678766 71.234132 88.409156 74.691201 88.409156 C 78.271164 88.409156 81.471759 85.47038 81.471759 82.264443 C 81.471759 81.409526 81.20994 79.918765 80.53135 79.918765 C 80.061146 79.918765 80.146638 80.346224 79.248975 80.346224 C 77.763558 80.346224 76.769717 79.106595 76.769717 77.701325 C 76.732314 74.586223 80.659588 71.513866 82.492315 69.130786 C 83.341889 68.014051 83.988419 66.785108 84.373132 65.882103 C 85.564672 63.108967 86.168457 59.70533 84.501369 59.70533 C 83.176249 59.70533 82.321332 61.404477 79.377213 61.404477 C 75.503372 61.404477 72.895876 59.70533 69.567044 59.70533 C 59.078285 59.70533 54.077023 71.086408 54.077023 81.671344 C 54.077023 96.386597 61.803332 103.637359 71.357026 103.637359 Z M 87.477548 81.671344 C 87.477548 94.853091 94.172614 103.637359 104.287347 103.637359 C 114.316588 103.637359 121.0544 94.853091 121.0544 81.671344 C 121.0544 68.484255 114.316588 59.70533 104.287347 59.70533 C 94.172614 59.70533 87.477548 68.484255 87.477548 81.671344 Z M 100.830278 62.60136 C 109.838962 62.60136 116.400447 100.741329 106.889499 100.741329 C 99.296771 100.741329 92.852837 62.60136 100.830278 62.60136 Z M 122.545161 103.001515 L 131.46301 103.001515 C 133.979671 103.001515 136.202454 101.842034 136.202454 99.250568 C 136.202454 93.105855 126.51518 86.795501 126.51518 73.138208 C 126.51518 71.171899 126.68082 68.484255 128.086089 68.484255 C 129.630282 68.484255 131.158446 73.565666 132.740042 78.251678 C 133.68045 81.078246 136.325348 88.489305 137.431397 91.866226 C 139.312213 97.626227 140.968615 103.001515 145.927131 103.001515 L 157.105166 103.001515 C 155.945686 101.842034 155.603719 100.394019 155.603719 97.968193 L 155.603719 65.369153 C 155.603719 62.943327 155.945686 61.495311 157.105166 60.341174 L 148.187317 60.341174 C 145.665313 60.341174 143.447873 61.495311 143.447873 64.086778 C 143.447873 70.236834 153.135147 76.547188 153.135147 90.199138 C 153.135147 92.17079 152.958821 94.853091 151.553551 94.853091 C 150.020045 94.853091 148.481195 89.77168 146.904942 85.085668 L 142.89752 73.138208 C 139.055738 61.703697 138.243568 60.341174 135.262046 60.341174 L 122.545161 60.341174 C 123.699298 61.495311 124.035922 62.943327 124.035922 65.369153 L 124.035922 97.968193 C 124.035922 100.394019 123.699298 101.842034 122.545161 103.001515 Z M 159.317263 76.9319 C 161.449212 76.9319 165.242904 62.473122 167.978638 62.473122 C 169.20758 62.473122 169.293072 63.883735 169.293072 65.203512 L 169.293072 97.968193 C 169.293072 100.394019 168.956449 101.842034 167.802311 103.001515 L 182.090106 103.001515 C 180.946655 101.842034 180.604688 100.394019 180.604688 97.968193 L 180.604688 65.203512 C 180.604688 63.883735 180.684836 62.473122 181.924466 62.473122 C 184.654856 62.473122 188.453891 76.9319 190.580497 76.9319 C 191.184282 76.9319 191.526248 76.461696 191.526248 75.911344 L 191.526248 60.341174 L 158.376855 60.341174 L 158.376855 75.911344 C 158.376855 76.461696 158.718822 76.9319 159.317263 76.9319 Z M 192.797937 60.341174 C 193.957417 61.495311 194.288698 62.943327 194.288698 65.369153 L 194.288698 81.671344 L 194.331443 90.669342 L 194.331443 97.968193 C 194.331443 100.394019 194.000163 101.842034 192.840683 103.001515 L 204.996529 103.001515 C 207.091075 103.001515 208.02614 100.394019 208.02614 98.689529 C 208.02614 90.460956 196.506138 89.264073 196.506138 85.042922 C 196.506138 84.82385 196.687807 84.188005 197.280906 84.188005 C 199.370109 84.188005 211.360315 92.031866 211.360315 97.711718 C 211.360315 99.843667 210.628292 100.479511 210.628292 102.018361 C 210.628292 102.739697 211.317569 103.001515 211.867921 103.001515 L 221.084992 103.001515 C 223.168851 103.001515 223.900873 101.842034 223.900873 99.116987 C 223.900873 92.379176 214.86013 89.264073 208.581835 86.918395 C 203.634005 85.042922 198.258717 82.825482 198.258717 80.511864 C 198.258717 79.838617 198.557938 79.14934 199.717418 79.14934 C 202.143244 79.14934 204.275193 86.191716 212.380871 86.191716 C 220.908665 86.191716 224.328332 79.282921 224.328332 72.673347 C 224.328332 65.753865 220.358312 60.341174 209.997791 60.341174 Z M 207.518533 69.25368 C 213.401428 69.25368 222.110892 69.638393 222.110892 73.485518 C 222.110892 77.316613 215.148664 77.701325 209.265769 77.701325 C 203.382874 77.701325 196.468735 77.316613 196.468735 73.485518 C 196.468735 69.638393 203.163801 69.25368 207.518533 69.25368 Z M 225.391634 103.001515 L 239.802323 103.001515 C 242.324327 103.001515 242.917426 100.479511 242.917426 98.481143 C 242.917426 94.938582 241.469411 91.438767 239.97865 87.858804 L 246.251601 87.858804 C 247.106517 92.721142 247.65687 96.93695 247.65687 98.352906 C 247.65687 100.094798 247.106517 101.895467 246.123363 103.001515 L 263.739989 103.001515 C 261.98741 101.5535 261.052345 98.262071 259.989043 94.71951 C 256.531973 83.156762 255.206853 76.504442 253.074904 64.65316 C 252.781027 62.986072 253.074904 61.233493 254.009969 60.341174 L 235.116311 60.341174 C 236.056719 61.233493 236.35594 62.986072 236.056719 64.65316 C 233.919428 76.504442 232.594307 83.156762 229.137238 94.71951 C 228.073935 98.262071 227.13887 101.5535 225.391634 103.001515 Z M 239.166479 85.940585 C 237.803955 82.563664 236.564326 79.063849 236.564326 75.318245 C 236.564326 71.898578 237.291005 68.703327 239.513789 68.703327 C 241.896869 68.703327 244.290635 77.744071 245.866888 85.940585 Z M 277.349194 103.637359 C 289.243222 103.637359 294.244484 95.024074 294.244484 87.431345 C 294.244484 80.859174 289.376803 76.130416 282.211532 75.441139 C 275.767598 74.848041 267.704665 73.993124 267.704665 69.381918 C 267.704665 67.768262 268.98704 66.400396 270.55795 66.400396 C 276.275205 66.400396 280.202478 71.513866 286.475429 71.513866 C 291.679734 71.513866 295.564262 59.70533 292.577397 59.70533 C 291.252276 59.70533 290.397359 61.404477 287.45324 61.404477 C 283.579399 61.404477 280.971903 59.70533 277.643071 59.70533 C 270.477801 59.70533 264.466669 65.508076 264.466669 72.673347 C 264.466669 81.671344 271.71743 84.230751 280.159732 86.838247 C 284.380883 88.158025 288.179919 90.199138 288.179919 94.55387 C 288.179919 97.834612 285.2358 100.313871 281.955057 100.313871 C 275.297394 100.313871 276.066819 94.126412 276.659917 89.648786 C 276.87899 88.024444 275.767598 87.169527 274.485223 87.126781 C 272.267783 87.046633 264.162104 91.273127 264.162104 93.821847 C 264.162104 98.946004 270.22667 103.637359 277.349194 103.637359 Z M 277.349194 103.637359 " stroke="#000000" stroke-width="10.080008" stroke-opacity="1" stroke-miterlimit="4"/><g fill="#ffffff" fill-opacity="1"><g transform="translate(121.471409, 176.534002)"><g><path d="M 0.3125 -31.1875 C 1.152344 -30.34375 1.402344 -29.285156 1.402344 -27.507812 L 1.402344 -3.679688 C 1.402344 -1.902344 1.152344 -0.84375 0.3125 0 L 9.199219 0 C 10.726562 0 11.414062 -1.902344 11.414062 -3.148438 C 11.414062 -9.167969 3.117188 -10.820312 3.117188 -14.8125 C 3.117188 -15.3125 3.398438 -15.59375 3.835938 -15.59375 C 5.082031 -15.59375 7.859375 -11.976562 13.347656 -11.976562 C 20.550781 -11.976562 23.359375 -17.339844 23.359375 -22.175781 C 23.359375 -27.226562 20.457031 -31.1875 12.878906 -31.1875 Z M 11.070312 -24.667969 C 15.375 -24.667969 21.738281 -24.386719 21.738281 -21.582031 C 21.738281 -18.773438 16.652344 -18.492188 12.351562 -18.492188 C 8.046875 -18.492188 2.992188 -18.773438 2.992188 -21.582031 C 2.992188 -24.386719 7.890625 -24.667969 11.070312 -24.667969 Z M 11.070312 -24.667969 "/></g></g></g><g fill="#ffffff" fill-opacity="1"><g transform="translate(145.452265, 176.534002)"><g><path d="M 0.3125 -31.1875 C 1.152344 -30.34375 1.402344 -29.285156 1.402344 -27.507812 L 1.402344 -15.59375 L 1.433594 -9.011719 L 1.433594 -3.679688 C 1.433594 -1.902344 1.183594 -0.84375 0.34375 0 L 9.230469 0 C 10.757812 0 11.445312 -1.902344 11.445312 -3.148438 C 11.445312 -9.167969 3.023438 -10.042969 3.023438 -13.128906 C 3.023438 -13.285156 3.148438 -13.753906 3.585938 -13.753906 C 5.113281 -13.753906 13.878906 -8.015625 13.878906 -3.867188 C 13.878906 -2.308594 13.347656 -1.839844 13.347656 -0.71875 C 13.347656 -0.1875 13.847656 0 14.253906 0 L 20.988281 0 C 22.515625 0 23.046875 -0.84375 23.046875 -2.839844 C 23.046875 -7.765625 16.4375 -10.042969 11.851562 -11.757812 C 8.234375 -13.128906 4.304688 -14.75 4.304688 -16.4375 C 4.304688 -16.933594 4.523438 -17.433594 5.363281 -17.433594 C 7.140625 -17.433594 8.703125 -12.289062 14.625 -12.289062 C 20.863281 -12.289062 23.359375 -17.339844 23.359375 -22.175781 C 23.359375 -27.226562 20.457031 -31.1875 12.878906 -31.1875 Z M 11.070312 -24.667969 C 15.375 -24.667969 21.738281 -24.386719 21.738281 -21.582031 C 21.738281 -18.773438 16.652344 -18.492188 12.351562 -18.492188 C 8.046875 -18.492188 2.992188 -18.773438 2.992188 -21.582031 C 2.992188 -24.386719 7.890625 -24.667969 11.070312 -24.667969 Z M 11.070312 -24.667969 "/></g></g></g><g fill="#ffffff" fill-opacity="1"><g transform="translate(169.589036, 176.534002)"><g><path d="M 0.78125 -15.59375 C 0.78125 -5.957031 5.675781 0.46875 13.066406 0.46875 C 20.394531 0.46875 25.324219 -5.957031 25.324219 -15.59375 C 25.324219 -25.230469 20.394531 -31.65625 13.066406 -31.65625 C 5.675781 -31.65625 0.78125 -25.230469 0.78125 -15.59375 Z M 10.542969 -29.535156 C 17.121094 -29.535156 21.925781 -1.652344 14.96875 -1.652344 C 9.417969 -1.652344 4.710938 -29.535156 10.542969 -29.535156 Z M 10.542969 -29.535156 "/></g></g></g><g fill="#ffffff" fill-opacity="1"><g transform="translate(195.690434, 176.534002)"><g><path d="M 9.949219 0.46875 C 18.648438 0.46875 22.300781 -5.832031 22.300781 -11.382812 C 22.300781 -16.1875 18.742188 -19.648438 13.503906 -20.148438 C 8.792969 -20.582031 2.902344 -21.207031 2.902344 -24.574219 C 2.902344 -25.761719 3.835938 -26.757812 4.988281 -26.757812 C 9.167969 -26.757812 12.039062 -23.015625 16.621094 -23.015625 C 20.425781 -23.015625 23.265625 -31.65625 21.082031 -31.65625 C 20.117188 -31.65625 19.492188 -30.40625 17.339844 -30.40625 C 14.503906 -30.40625 12.601562 -31.65625 10.167969 -31.65625 C 4.925781 -31.65625 0.53125 -27.414062 0.53125 -22.175781 C 0.53125 -15.59375 5.832031 -13.722656 12.007812 -11.820312 C 15.09375 -10.851562 17.871094 -9.355469 17.871094 -6.175781 C 17.871094 -3.773438 15.71875 -1.964844 13.316406 -1.964844 C 8.453125 -1.964844 9.011719 -6.488281 9.449219 -9.761719 C 9.605469 -10.945312 8.792969 -11.570312 7.859375 -11.601562 C 6.238281 -11.664062 0.3125 -8.578125 0.3125 -6.707031 C 0.3125 -2.960938 4.742188 0.46875 9.949219 0.46875 Z M 9.949219 0.46875 "/></g></g></g><g fill="#ffffff" fill-opacity="1"><g transform="translate(218.766939, 176.534002)"><g/></g></g><g fill="#ffffff" fill-opacity="1"><g transform="translate(229.681495, 176.534002)"><g><path d="M 0 -31.1875 C 3.585938 -28.378906 3.929688 -21.832031 4.335938 -17.714844 C 4.679688 -14.347656 5.800781 -10.605469 10.511719 -10.605469 C 12.753906 -10.605469 13.222656 -11.382812 14.035156 -11.382812 C 14.285156 -11.382812 14.441406 -11.164062 14.441406 -10.914062 C 14.441406 -9.042969 7.328125 -7.046875 7.328125 -2.992188 C 7.328125 -1.652344 7.921875 0 9.261719 0 L 16.839844 0 C 18.027344 0 18.460938 -0.375 18.460938 -0.875 C 18.460938 -2.402344 15.40625 -3.460938 15.40625 -8.109375 C 15.40625 -12.226562 24.949219 -17.277344 24.949219 -26.601562 C 24.949219 -28.535156 24.542969 -31.1875 22.484375 -31.1875 L 15.21875 -31.1875 C 14.222656 -31.1875 13.472656 -30.375 13.472656 -29.410156 C 13.472656 -26.445312 18.089844 -22.082031 18.089844 -18.027344 C 18.089844 -16.0625 17.433594 -13.003906 13.347656 -12.972656 C 10.757812 -12.941406 9.542969 -14.535156 9.542969 -16.09375 C 9.542969 -20.054688 12.445312 -21.832031 12.445312 -25.824219 C 12.445312 -28.285156 11.382812 -31.1875 8.390625 -31.1875 Z M 0 -31.1875 "/></g></g></g><g fill="#ffffff" fill-opacity="1"><g transform="translate(99.802174, 219.666861)"><g><path d="M 13.410156 0.46875 C 20.054688 0.46875 23.796875 -5.738281 23.796875 -9.761719 C 23.796875 -11.195312 23.390625 -11.445312 23.015625 -11.445312 C 21.488281 -11.445312 21.332031 -6.828125 15.875 -6.828125 C 8.421875 -6.828125 4.367188 -16.558594 4.367188 -22.984375 C 4.367188 -24.140625 4.835938 -26.757812 6.921875 -26.757812 C 10.511719 -26.757812 12.507812 -23.828125 16.777344 -23.140625 C 17.339844 -23.046875 17.652344 -22.828125 17.652344 -22.390625 C 17.652344 -21.113281 11.195312 -19.835938 11.195312 -15.15625 C 11.195312 -12.660156 13.316406 -10.667969 15.84375 -10.667969 C 18.460938 -10.667969 20.800781 -12.816406 20.800781 -15.15625 C 20.800781 -15.78125 20.613281 -16.871094 20.117188 -16.871094 C 19.773438 -16.871094 19.835938 -16.558594 19.179688 -16.558594 C 18.089844 -16.558594 17.371094 -17.464844 17.371094 -18.492188 C 17.339844 -20.769531 20.210938 -23.015625 21.550781 -24.761719 C 22.175781 -25.574219 22.640625 -26.476562 22.921875 -27.132812 C 23.796875 -29.160156 24.234375 -31.65625 23.015625 -31.65625 C 22.050781 -31.65625 21.425781 -30.40625 19.273438 -30.40625 C 16.4375 -30.40625 14.535156 -31.65625 12.101562 -31.65625 C 4.429688 -31.65625 0.78125 -23.328125 0.78125 -15.59375 C 0.78125 -4.835938 6.425781 0.46875 13.410156 0.46875 Z M 13.410156 0.46875 "/></g></g></g><g fill="#ffffff" fill-opacity="1"><g transform="translate(124.219609, 219.666861)"><g><path d="M 0.78125 -15.59375 C 0.78125 -5.957031 5.675781 0.46875 13.066406 0.46875 C 20.394531 0.46875 25.324219 -5.957031 25.324219 -15.59375 C 25.324219 -25.230469 20.394531 -31.65625 13.066406 -31.65625 C 5.675781 -31.65625 0.78125 -25.230469 0.78125 -15.59375 Z M 10.542969 -29.535156 C 17.121094 -29.535156 21.925781 -1.652344 14.96875 -1.652344 C 9.417969 -1.652344 4.710938 -29.535156 10.542969 -29.535156 Z M 10.542969 -29.535156 "/></g></g></g><g fill="#ffffff" fill-opacity="1"><g transform="translate(150.321008, 219.666861)"><g><path d="M 0.3125 0 L 6.828125 0 C 8.671875 0 10.292969 -0.84375 10.292969 -2.746094 C 10.292969 -7.234375 3.210938 -11.851562 3.210938 -21.832031 C 3.210938 -23.265625 3.335938 -25.230469 4.367188 -25.230469 C 5.488281 -25.230469 6.613281 -21.519531 7.765625 -18.089844 C 8.453125 -16.03125 10.386719 -10.605469 11.195312 -8.140625 C 12.570312 -3.929688 13.785156 0 17.402344 0 L 25.574219 0 C 24.730469 -0.84375 24.480469 -1.902344 24.480469 -3.679688 L 24.480469 -27.507812 C 24.480469 -29.285156 24.730469 -30.34375 25.574219 -31.1875 L 19.054688 -31.1875 C 17.214844 -31.1875 15.59375 -30.34375 15.59375 -28.441406 C 15.59375 -23.953125 22.671875 -19.335938 22.671875 -9.355469 C 22.671875 -7.921875 22.546875 -5.957031 21.519531 -5.957031 C 20.394531 -5.957031 19.273438 -9.667969 18.121094 -13.097656 L 15.1875 -21.832031 C 12.382812 -30.1875 11.789062 -31.1875 9.605469 -31.1875 L 0.3125 -31.1875 C 1.152344 -30.34375 1.402344 -29.285156 1.402344 -27.507812 L 1.402344 -3.679688 C 1.402344 -1.902344 1.152344 -0.84375 0.3125 0 Z M 0.3125 0 "/></g></g></g><g fill="#ffffff" fill-opacity="1"><g transform="translate(176.20411, 219.666861)"><g><path d="M 1.308594 -19.054688 C 2.871094 -19.054688 5.644531 -29.628906 7.640625 -29.628906 C 8.546875 -29.628906 8.609375 -28.597656 8.609375 -27.632812 L 8.609375 -3.679688 C 8.609375 -1.902344 8.359375 -0.84375 7.515625 0 L 17.964844 0 C 17.121094 -0.84375 16.871094 -1.902344 16.871094 -3.679688 L 16.871094 -27.632812 C 16.871094 -28.597656 16.933594 -29.628906 17.839844 -29.628906 C 19.835938 -29.628906 22.609375 -19.054688 24.171875 -19.054688 C 24.605469 -19.054688 24.855469 -19.398438 24.855469 -19.804688 L 24.855469 -31.1875 L 0.625 -31.1875 L 0.625 -19.804688 C 0.625 -19.398438 0.875 -19.054688 1.308594 -19.054688 Z M 1.308594 -19.054688 "/></g></g></g><g fill="#ffffff" fill-opacity="1"><g transform="translate(201.681812, 219.666861)"><g><path d="M 0.3125 -31.1875 C 1.152344 -30.34375 1.402344 -29.285156 1.402344 -27.507812 L 1.402344 -15.59375 L 1.433594 -9.011719 L 1.433594 -3.679688 C 1.433594 -1.902344 1.183594 -0.84375 0.34375 0 L 9.230469 0 C 10.757812 0 11.445312 -1.902344 11.445312 -3.148438 C 11.445312 -9.167969 3.023438 -10.042969 3.023438 -13.128906 C 3.023438 -13.285156 3.148438 -13.753906 3.585938 -13.753906 C 5.113281 -13.753906 13.878906 -8.015625 13.878906 -3.867188 C 13.878906 -2.308594 13.347656 -1.839844 13.347656 -0.71875 C 13.347656 -0.1875 13.847656 0 14.253906 0 L 20.988281 0 C 22.515625 0 23.046875 -0.84375 23.046875 -2.839844 C 23.046875 -7.765625 16.4375 -10.042969 11.851562 -11.757812 C 8.234375 -13.128906 4.304688 -14.75 4.304688 -16.4375 C 4.304688 -16.933594 4.523438 -17.433594 5.363281 -17.433594 C 7.140625 -17.433594 8.703125 -12.289062 14.625 -12.289062 C 20.863281 -12.289062 23.359375 -17.339844 23.359375 -22.175781 C 23.359375 -27.226562 20.457031 -31.1875 12.878906 -31.1875 Z M 11.070312 -24.667969 C 15.375 -24.667969 21.738281 -24.386719 21.738281 -21.582031 C 21.738281 -18.773438 16.652344 -18.492188 12.351562 -18.492188 C 8.046875 -18.492188 2.992188 -18.773438 2.992188 -21.582031 C 2.992188 -24.386719 7.890625 -24.667969 11.070312 -24.667969 Z M 11.070312 -24.667969 "/></g></g></g><g fill="#ffffff" fill-opacity="1"><g transform="translate(225.818583, 219.666861)"><g><path d="M 0 0 L 10.542969 0 C 12.382812 0 12.816406 -1.839844 12.816406 -3.304688 C 12.816406 -5.894531 11.757812 -8.453125 10.667969 -11.070312 L 15.25 -11.070312 C 15.875 -7.515625 16.28125 -4.429688 16.28125 -3.398438 C 16.28125 -2.121094 15.875 -0.8125 15.15625 0 L 28.039062 0 C 26.757812 -1.058594 26.074219 -3.460938 25.292969 -6.050781 C 22.765625 -14.503906 21.800781 -19.367188 20.242188 -28.039062 C 20.023438 -29.253906 20.242188 -30.53125 20.925781 -31.1875 L 7.109375 -31.1875 C 7.796875 -30.53125 8.015625 -29.253906 7.796875 -28.039062 C 6.238281 -19.367188 5.269531 -14.503906 2.746094 -6.050781 C 1.964844 -3.460938 1.277344 -1.058594 0 0 Z M 10.074219 -12.476562 C 9.074219 -14.9375 8.171875 -17.496094 8.171875 -20.242188 C 8.171875 -22.734375 8.703125 -25.074219 10.324219 -25.074219 C 12.070312 -25.074219 13.816406 -18.460938 14.96875 -12.476562 Z M 10.074219 -12.476562 "/></g></g></g><g fill="#ffffff" fill-opacity="1"><g transform="translate(253.853418, 219.666861)"><g><path d="M 9.949219 0.46875 C 18.648438 0.46875 22.300781 -5.832031 22.300781 -11.382812 C 22.300781 -16.1875 18.742188 -19.648438 13.503906 -20.148438 C 8.792969 -20.582031 2.902344 -21.207031 2.902344 -24.574219 C 2.902344 -25.761719 3.835938 -26.757812 4.988281 -26.757812 C 9.167969 -26.757812 12.039062 -23.015625 16.621094 -23.015625 C 20.425781 -23.015625 23.265625 -31.65625 21.082031 -31.65625 C 20.117188 -31.65625 19.492188 -30.40625 17.339844 -30.40625 C 14.503906 -30.40625 12.601562 -31.65625 10.167969 -31.65625 C 4.925781 -31.65625 0.53125 -27.414062 0.53125 -22.175781 C 0.53125 -15.59375 5.832031 -13.722656 12.007812 -11.820312 C 15.09375 -10.851562 17.871094 -9.355469 17.871094 -6.175781 C 17.871094 -3.773438 15.71875 -1.964844 13.316406 -1.964844 C 8.453125 -1.964844 9.011719 -6.488281 9.449219 -9.761719 C 9.605469 -10.945312 8.792969 -11.570312 7.859375 -11.601562 C 6.238281 -11.664062 0.3125 -8.578125 0.3125 -6.707031 C 0.3125 -2.960938 4.742188 0.46875 9.949219 0.46875 Z M 9.949219 0.46875 "/></g></g></g></svg>