<svg xmlns="http://www.w3.org/2000/svg" xmlns:xlink="http://www.w3.org/1999/xlink" width="500" zoomAndPan="magnify" viewBox="0 0 375 374.999991" height="500" preserveAspectRatio="xMidYMid meet" version="1.0"><defs><g/><clipPath id="8f247ada46"><path d="M 154.414062 109.800781 L 315.664062 109.800781 L 315.664062 240 L 154.414062 240 Z M 154.414062 109.800781 " clip-rule="nonzero"/></clipPath><clipPath id="92f5c6185b"><path d="M 59.335938 135 L 220.550781 135 L 220.550781 265.195312 L 59.335938 265.195312 Z M 59.335938 135 " clip-rule="nonzero"/></clipPath><clipPath id="2103282fe5"><path d="M 197.605469 109.800781 L 220.855469 109.800781 L 220.855469 133.050781 L 197.605469 133.050781 Z M 197.605469 109.800781 " clip-rule="nonzero"/></clipPath></defs><g clip-path="url(#8f247ada46)"><path fill="#000000" d="M 207.484375 239.820312 C 188.402344 239.820312 170.488281 237.570312 154.917969 233.613281 C 165.632812 235.242188 177.089844 236.117188 189 236.117188 C 248.703125 236.117188 297.097656 214.082031 297.097656 186.890625 C 297.097656 168.398438 274.695312 152.289062 241.566406 143.867188 C 284.566406 150.371094 315.582031 168.828125 315.582031 190.601562 C 315.582031 217.78125 267.183594 239.820312 207.484375 239.820312 Z M 209.488281 135.699219 L 209.488281 135.300781 C 233.320312 135.300781 235.050781 131.433594 235.050781 109.730469 L 235.449219 109.730469 C 235.449219 131.433594 237.1875 135.300781 261.023438 135.300781 L 261.023438 135.699219 C 237.1875 135.699219 235.449219 139.554688 235.449219 161.261719 L 235.050781 161.261719 C 235.050781 139.554688 233.320312 135.699219 209.488281 135.699219 " fill-opacity="1" fill-rule="evenodd"/></g><g clip-path="url(#92f5c6185b)"><path fill="#000000" d="M 167.515625 135.175781 C 186.597656 135.175781 204.511719 137.421875 220.082031 141.378906 C 209.367188 139.75 197.910156 138.875 185.996094 138.875 C 126.296875 138.875 77.902344 160.914062 77.902344 188.105469 C 77.902344 206.597656 100.304688 222.707031 133.433594 231.128906 C 90.433594 224.625 59.417969 206.164062 59.417969 184.390625 C 59.417969 157.210938 107.816406 135.175781 167.515625 135.175781 Z M 165.511719 239.292969 L 165.511719 239.691406 C 141.675781 239.691406 139.949219 243.558594 139.949219 265.265625 L 139.550781 265.265625 C 139.550781 243.558594 137.8125 239.691406 113.976562 239.691406 L 113.976562 239.292969 C 137.8125 239.292969 139.550781 235.4375 139.550781 213.730469 L 139.949219 213.730469 C 139.949219 235.4375 141.675781 239.292969 165.511719 239.292969 " fill-opacity="1" fill-rule="evenodd"/></g><g clip-path="url(#2103282fe5)"><path fill="#000000" d="M 220.855469 121.421875 C 212.136719 123.027344 210.835938 124.328125 209.230469 133.046875 C 207.625 124.328125 206.324219 123.027344 197.605469 121.421875 C 206.324219 119.820312 207.625 118.519531 209.230469 109.800781 C 210.835938 118.519531 212.136719 119.820312 220.855469 121.421875 Z M 220.855469 121.421875 " fill-opacity="1" fill-rule="nonzero"/></g><path stroke-linecap="butt" transform="matrix(0.731065, 0, 0, 0.731065, 59.302076, 147.486348)" fill="none" stroke-linejoin="miter" d="M 60.291226 17.929178 C 62.428518 17.929178 66.216867 3.475743 68.957944 3.475743 C 70.186887 3.475743 70.267035 4.881013 70.267035 6.206134 L 70.267035 38.970814 C 70.267035 41.39664 69.935755 42.844655 68.781617 43.998793 L 83.069412 43.998793 C 81.925961 42.844655 81.578651 41.39664 81.578651 38.970814 L 81.578651 6.206134 C 81.578651 4.881013 81.664143 3.475743 82.903772 3.475743 C 85.628819 3.475743 89.433198 17.929178 91.559803 17.929178 C 92.163588 17.929178 92.505555 17.464317 92.505555 16.908621 L 92.505555 1.338452 L 59.356161 1.338452 L 59.356161 16.908621 C 59.356161 17.464317 59.698128 17.929178 60.291226 17.929178 Z M 93.777243 43.998793 L 108.065038 43.998793 C 106.921587 42.844655 106.57962 41.39664 106.57962 38.970814 L 106.57962 6.371774 C 106.57962 3.945948 106.921587 2.497933 108.065038 1.338452 L 93.777243 1.338452 C 94.931381 2.497933 95.268004 3.945948 95.268004 6.371774 L 95.268004 38.970814 C 95.268004 41.39664 94.931381 42.844655 93.777243 43.998793 Z M 108.919954 1.338452 C 110.074092 2.497933 110.410715 3.945948 110.410715 6.371774 L 110.410715 38.970814 C 110.410715 41.39664 110.074092 42.844655 108.919954 43.998793 L 121.0758 43.998793 C 123.170346 43.998793 124.105411 41.39664 124.105411 39.686807 C 124.105411 31.458234 112.761736 29.198048 112.761736 23.731925 C 112.761736 23.053335 113.135762 22.668622 113.739547 22.668622 C 115.44938 22.668622 119.243073 27.616452 126.75031 27.616452 C 136.603224 27.616452 140.445006 20.285542 140.445006 13.670625 C 140.445006 6.756486 136.48033 1.338452 126.114466 1.338452 Z M 123.635207 10.256301 C 129.523446 10.256301 138.227566 10.641014 138.227566 14.482795 C 138.227566 18.313891 131.270682 18.703946 125.387786 18.703946 C 119.499548 18.703946 112.585409 18.313891 112.585409 14.482795 C 112.585409 10.641014 119.280476 10.256301 123.635207 10.256301 Z M 142.357882 22.668622 C 142.357882 35.855712 149.052948 44.634637 159.167681 44.634637 C 169.196922 44.634637 175.934734 35.855712 175.934734 22.668622 C 175.934734 9.486876 169.196922 0.702608 159.167681 0.702608 C 149.052948 0.702608 142.357882 9.486876 142.357882 22.668622 Z M 155.710611 3.598638 C 164.719296 3.598638 171.280781 41.738607 161.769833 41.738607 C 154.177105 41.738607 147.73317 3.598638 155.710611 3.598638 Z M 190.612584 44.634637 C 202.506612 44.634637 207.502531 36.021352 207.502531 28.428623 C 207.502531 21.856452 202.640193 17.127694 195.474922 16.44376 C 189.025645 15.850662 180.968055 14.995745 180.968055 10.379195 C 180.968055 8.76554 182.25043 7.403017 183.82134 7.403017 C 189.538595 7.403017 193.465868 12.516487 199.733476 12.516487 C 204.943124 12.516487 208.827652 0.702608 205.840787 0.702608 C 204.515666 0.702608 203.660749 2.401754 200.711287 2.401754 C 196.837446 2.401754 194.235293 0.702608 190.901118 0.702608 C 183.735848 0.702608 177.730059 6.505354 177.730059 13.670625 C 177.730059 22.668622 184.975477 25.233372 193.423122 27.835525 C 197.63893 29.160646 201.443309 31.201759 201.443309 35.551148 C 201.443309 38.83189 198.493847 41.311149 195.213104 41.311149 C 188.560784 41.311149 189.330209 35.129033 189.923307 30.646063 C 190.14238 29.021722 189.025645 28.166805 187.748613 28.129402 C 185.531173 28.043911 177.425494 32.270405 177.425494 34.824469 C 177.425494 39.948625 183.49006 44.634637 190.612584 44.634637 Z M 223.922274 1.338452 C 225.076412 2.497933 225.413035 3.945948 225.413035 6.371774 L 225.413035 38.970814 C 225.413035 41.39664 225.076412 42.844655 223.922274 43.998793 L 242.05185 43.998793 C 250.419347 43.998793 255.361834 40.71805 255.361834 28.043911 C 255.361834 17.293334 250.029291 1.338452 237.013185 1.338452 Z M 239.919902 3.764278 C 243.847175 3.764278 244.189142 14.525541 244.189142 22.754114 C 244.189142 35.294673 242.906767 41.824099 239.658084 41.824099 C 237.275004 41.824099 236.500235 38.708996 236.500235 31.201759 C 236.500235 30.523169 236.500235 23.357899 236.500235 22.668622 C 236.500235 21.984689 236.500235 14.819419 236.500235 14.140829 C 236.500235 6.628249 237.275004 3.764278 239.919902 3.764278 Z M 257.488439 22.668622 C 257.488439 37.383875 265.214749 44.634637 274.763099 44.634637 C 283.857275 44.634637 288.970745 36.44881 288.970745 30.646063 C 288.970745 28.690442 288.420392 28.348475 287.907442 28.348475 C 285.81824 28.348475 285.609854 34.658828 278.14002 34.658828 C 272.214379 34.658828 266.3582 29.160646 263.809479 21.306099 C 263.547661 20.451182 263.339275 18.923019 264.707142 18.923019 C 268.244359 18.923019 271.14039 26.638642 277.450743 26.638642 C 282.703137 26.638642 284.754937 22.326656 284.754937 19.473371 C 284.754937 18.110848 284.370225 17.036859 283.680948 17.036859 C 282.959612 17.036859 282.537497 18.703946 280.565846 18.703946 C 277.242357 18.703946 273.486067 15.204131 269.264916 15.204131 C 265.46588 15.204131 264.488069 17.421571 263.205694 17.421571 C 262.0569 17.421571 262.393524 13.371404 262.393524 12.559233 C 262.393524 10.98298 263.040054 7.403017 265.893339 7.403017 C 271.444954 7.403017 274.212746 12.516487 281.805475 12.516487 C 284.877832 12.516487 286.929632 8.888435 287.784548 6.87938 C 288.970745 4.111588 289.57453 0.702608 287.907442 0.702608 C 286.587665 0.702608 285.732748 2.401754 282.783286 2.401754 C 278.909445 2.401754 276.307292 0.702608 272.973117 0.702608 C 262.484358 0.702608 257.488439 12.089029 257.488439 22.668622 Z M 257.488439 22.668622 " stroke="#000000" stroke-width="10.080008" stroke-opacity="1" stroke-miterlimit="4"/><path stroke-linecap="butt" transform="matrix(0.731065, 0, 0, 0.731065, 59.302076, 147.486348)" fill="none" stroke-linejoin="miter" d="M 0.441717 102.998729 L 14.729512 102.998729 C 13.586061 101.844591 13.244094 100.396576 13.244094 97.97075 L 13.244094 65.371709 C 13.244094 62.945883 13.586061 61.497868 14.729512 60.338387 L 0.441717 60.338387 C 1.601198 61.497868 1.932478 62.945883 1.932478 65.371709 L 1.932478 97.97075 C 1.932478 100.396576 1.601198 101.844591 0.441717 102.998729 Z M 15.584428 102.998729 L 24.502278 102.998729 C 27.018939 102.998729 29.241722 101.844591 29.241722 99.253125 C 29.241722 93.103068 19.554448 86.792715 19.554448 73.140764 C 19.554448 71.169113 19.720088 68.486812 21.125357 68.486812 C 22.66955 68.486812 24.197714 73.568223 25.77931 78.254235 C 26.719718 81.07546 29.364616 88.491862 30.470665 91.868782 C 32.351481 97.62344 34.007882 102.998729 38.966399 102.998729 L 50.144434 102.998729 C 48.984954 101.844591 48.642987 100.396576 48.642987 97.97075 L 48.642987 65.371709 C 48.642987 62.945883 48.984954 61.497868 50.144434 60.338387 L 41.226585 60.338387 C 38.704581 60.338387 36.487141 61.497868 36.487141 64.089334 C 36.487141 70.234048 46.174415 76.544401 46.174415 90.201695 C 46.174415 92.168003 45.998088 94.855647 44.592819 94.855647 C 43.059312 94.855647 41.520463 89.774237 39.94421 85.088225 L 35.936788 73.140764 C 32.095006 61.706254 31.282836 60.338387 28.301314 60.338387 L 15.584428 60.338387 C 16.743909 61.497868 17.075189 62.945883 17.075189 65.371709 L 17.075189 97.97075 C 17.075189 100.396576 16.743909 101.844591 15.584428 102.998729 Z M 50.988664 60.338387 C 52.43668 61.497868 52.783989 62.945883 52.783989 65.371709 L 52.783989 97.97075 C 52.783989 100.396576 52.43668 101.844591 51.293229 102.998729 L 63.449075 102.998729 C 65.538277 102.998729 66.478686 100.396576 66.478686 98.686743 C 66.478686 90.45817 55.124324 90.378021 55.124324 78.980914 C 55.124324 78.168743 55.685363 77.922954 56.064732 77.922954 C 59.60195 77.922954 62.508666 85.638577 68.81902 85.638577 C 74.071414 85.638577 76.112528 81.326591 76.112528 78.473307 C 76.112528 77.110784 75.738502 76.036795 75.049225 76.036795 C 74.322546 76.036795 73.905774 77.703882 71.934123 77.703882 C 68.610634 77.703882 64.854344 74.204067 60.633193 74.204067 C 57.603582 74.204067 56.70592 75.785663 55.685363 75.785663 C 55.209815 75.785663 55.124324 75.40095 55.124324 75.096386 L 55.124324 72.451488 C 55.124324 70.837833 56.278461 68.951673 58.324918 68.951673 L 73.08826 68.951673 C 78.078836 68.951673 78.463548 72.243102 79.831415 72.243102 C 80.643586 72.243102 80.809226 71.596571 80.809226 70.538612 L 80.809226 60.338387 Z M 104.821698 102.998729 C 108.241364 102.998729 112.499918 103.383441 112.499918 99.498913 C 112.499918 93.02292 102.866076 93.103068 102.866076 89.304032 C 102.866076 84.740915 112.20604 86.573642 112.20604 81.668558 C 112.20604 79.151897 105.20641 76.97186 102.481363 76.97186 C 99.238023 76.97186 96.635871 79.964068 96.635871 83.159319 C 96.635871 90.500916 103.843887 91.179506 103.843887 96.854015 C 103.843887 99.541659 100.93717 100.86678 98.249526 100.86678 C 90.961361 100.86678 87.25316 91.906185 87.25316 87.262919 C 87.25316 77.356572 99.617392 70.410374 99.617392 64.142767 C 99.617392 62.432933 98.634238 60.338387 95.177169 60.338387 L 82.086258 60.338387 C 83.240395 61.497868 83.577019 62.945883 83.577019 65.371709 L 83.577019 97.97075 C 83.577019 100.396576 83.240395 101.844591 82.086258 102.998729 Z M 115.144816 65.371709 L 115.144816 87.262919 C 115.144816 100.396576 124.228306 103.634573 130.453168 103.634573 C 136.683373 103.634573 145.900443 100.396576 145.900443 87.262919 L 145.900443 65.371709 C 145.900443 62.945883 146.24241 61.497868 147.690425 60.338387 L 133.017918 60.338387 C 134.465933 61.497868 134.807899 62.945883 134.807899 65.371709 L 134.807899 86.317167 C 134.807899 91.521472 131.308084 94.294608 127.092276 94.294608 C 122.737545 94.294608 117.239362 92.290897 117.239362 86.878206 C 117.239362 78.516053 128.796767 73.525477 128.796767 64.046588 C 128.796767 62.432933 127.818956 60.338387 126.07172 60.338387 L 113.354834 60.338387 C 114.80285 61.497868 115.144816 62.945883 115.144816 65.371709 Z M 149.181186 81.668558 C 149.181186 96.383811 156.907495 103.634573 166.461188 103.634573 C 175.550021 103.634573 180.663491 95.448746 180.663491 89.645999 C 180.663491 87.690377 180.113139 87.348411 179.600189 87.348411 C 177.510986 87.348411 177.3026 93.658764 169.832766 93.658764 C 163.907125 93.658764 158.056289 88.160581 155.502226 80.306035 C 155.240407 79.451118 155.032021 77.922954 156.399888 77.922954 C 159.937106 77.922954 162.833136 85.638577 169.143489 85.638577 C 174.395884 85.638577 176.447684 81.326591 176.447684 78.473307 C 176.447684 77.110784 176.062971 76.036795 175.373695 76.036795 C 174.657702 76.036795 174.230244 77.703882 172.258592 77.703882 C 168.935103 77.703882 165.178813 74.204067 160.957662 74.204067 C 157.158627 74.204067 156.180816 76.421507 154.898441 76.421507 C 153.75499 76.421507 154.08627 72.371339 154.08627 71.559169 C 154.08627 69.982916 154.732801 66.402952 157.586085 66.402952 C 163.1377 66.402952 165.905493 71.516423 173.498221 71.516423 C 176.570578 71.516423 178.622378 67.88837 179.477294 65.879316 C 180.663491 63.111523 181.267276 59.702543 179.600189 59.702543 C 178.280411 59.702543 177.425494 61.40169 174.476032 61.40169 C 170.602191 61.40169 168.000038 59.702543 164.665863 59.702543 C 154.177105 59.702543 149.181186 71.088964 149.181186 81.668558 Z M 181.945866 102.998729 L 190.858372 102.998729 C 193.380377 102.998729 195.597817 101.844591 195.597817 99.253125 C 195.597817 93.103068 185.910542 86.792715 185.910542 73.140764 C 185.910542 71.169113 186.081526 68.486812 187.486795 68.486812 C 189.025645 68.486812 190.559152 73.568223 192.140747 78.254235 C 193.075813 81.07546 195.726054 88.491862 196.826759 91.868782 C 198.712919 97.62344 200.36932 102.998729 205.327837 102.998729 L 216.500529 102.998729 C 215.346391 101.844591 215.004425 100.396576 215.004425 97.97075 L 215.004425 65.371709 C 215.004425 62.945883 215.346391 61.497868 216.500529 60.338387 L 207.588023 60.338387 C 205.066019 60.338387 202.848579 61.497868 202.848579 64.089334 C 202.848579 70.234048 212.535853 76.544401 212.535853 90.201695 C 212.535853 92.168003 212.354183 94.855647 210.948914 94.855647 C 209.42075 94.855647 207.876557 89.774237 206.305648 85.088225 L 202.298226 73.140764 C 198.451101 61.706254 197.63893 60.338387 194.662752 60.338387 L 181.945866 60.338387 C 183.100004 61.497868 183.436627 62.945883 183.436627 65.371709 L 183.436627 97.97075 C 183.436627 100.396576 183.100004 101.844591 181.945866 102.998729 Z M 235.260606 103.634573 C 244.354782 103.634573 249.468252 95.149525 249.468252 89.645999 C 249.468252 87.690377 248.9179 87.348411 248.40495 87.348411 C 246.315747 87.348411 246.107361 93.658764 238.637527 93.658764 C 228.442646 93.658764 222.891031 80.34878 222.891031 71.559169 C 222.891031 69.982916 223.537562 66.402952 226.390846 66.402952 C 231.29593 66.402952 234.02632 70.410374 239.877156 71.350783 C 240.635895 71.473677 241.063353 71.778241 241.063353 72.371339 C 241.063353 74.118575 232.230995 75.871154 232.230995 82.261656 C 232.230995 85.681323 235.137712 88.40637 238.594781 88.40637 C 242.180088 88.40637 245.375339 85.472937 245.375339 82.261656 C 245.375339 81.412083 245.113521 79.921322 244.440274 79.921322 C 243.97007 79.921322 244.055561 80.34878 243.157899 80.34878 C 241.667138 80.34878 240.678641 79.109151 240.678641 77.703882 C 240.635895 74.588779 244.563168 71.516423 246.395896 69.127999 C 247.250812 68.016608 247.897343 66.787665 248.282056 65.879316 C 249.468252 63.111523 250.072037 59.702543 248.40495 59.702543 C 247.085172 59.702543 246.230256 61.40169 243.280793 61.40169 C 239.406952 61.40169 236.804799 59.702543 233.470624 59.702543 C 222.981866 59.702543 217.985947 71.088964 217.985947 81.668558 C 217.985947 96.383811 225.712256 103.634573 235.260606 103.634573 Z M 251.386472 81.668558 C 251.386472 96.383811 259.112781 103.634573 268.661131 103.634573 C 277.755307 103.634573 282.868777 95.448746 282.868777 89.645999 C 282.868777 87.690377 282.318425 87.348411 281.805475 87.348411 C 279.710929 87.348411 279.502543 93.658764 272.038052 93.658764 C 266.112411 93.658764 260.256232 88.160581 257.707512 80.306035 C 257.445693 79.451118 257.237307 77.922954 258.599831 77.922954 C 262.142392 77.922954 265.038422 85.638577 271.348776 85.638577 C 276.60117 85.638577 278.65297 81.326591 278.65297 78.473307 C 278.65297 77.110784 278.268257 76.036795 277.578981 76.036795 C 276.857645 76.036795 276.430186 77.703882 274.463878 77.703882 C 271.14039 77.703882 267.3841 74.204067 263.162949 74.204067 C 259.363913 74.204067 258.380758 76.421507 257.103727 76.421507 C 255.954932 76.421507 256.291556 72.371339 256.291556 71.559169 C 256.291556 69.982916 256.938087 66.402952 259.791371 66.402952 C 265.342986 66.402952 268.110779 71.516423 275.703507 71.516423 C 278.775864 71.516423 280.827664 67.88837 281.682581 65.879316 C 282.868777 63.111523 283.472562 59.702543 281.805475 59.702543 C 280.485697 59.702543 279.630781 61.40169 276.681318 61.40169 C 272.807477 61.40169 270.205324 59.702543 266.87115 59.702543 C 256.382391 59.702543 251.386472 71.088964 251.386472 81.668558 Z M 284.151152 60.338387 C 285.30529 61.497868 285.63657 62.945883 285.63657 65.371709 L 285.63657 81.668558 L 285.679316 90.666556 L 285.679316 97.97075 C 285.679316 100.396576 285.348036 101.844591 284.188555 102.998729 L 296.344401 102.998729 C 298.438947 102.998729 299.374012 100.396576 299.374012 98.686743 C 299.374012 90.45817 287.859353 89.261287 287.859353 85.045479 C 287.859353 84.826406 288.03568 84.190562 288.628778 84.190562 C 290.723324 84.190562 302.708187 92.034422 302.708187 97.708932 C 302.708187 99.846223 301.981508 100.482068 301.981508 102.020918 C 301.981508 102.742254 302.665441 102.998729 303.221137 102.998729 L 312.438207 102.998729 C 314.516723 102.998729 315.248746 101.844591 315.248746 99.114201 C 315.248746 92.376389 306.208002 89.261287 299.929708 86.920952 C 294.981878 85.045479 289.606589 82.828039 289.606589 80.514421 C 289.606589 79.83583 289.90581 79.151897 291.065291 79.151897 C 293.491117 79.151897 295.628409 86.18893 303.728744 86.18893 C 312.256537 86.18893 315.676204 79.285478 315.676204 72.67056 C 315.676204 65.756422 311.706185 60.338387 301.345664 60.338387 Z M 298.866405 69.256237 C 304.749301 69.256237 313.458764 69.640949 313.458764 73.482731 C 313.458764 77.31917 306.50188 77.703882 300.613641 77.703882 C 294.730746 77.703882 287.816608 77.31917 287.816608 73.482731 C 287.816608 69.640949 294.511674 69.256237 298.866405 69.256237 Z M 330.348711 103.634573 C 342.242739 103.634573 347.244002 95.021288 347.244002 87.428559 C 347.244002 80.856387 342.381663 76.127629 335.216393 75.443696 C 328.767115 74.850598 320.704183 73.995681 320.704183 69.379131 C 320.704183 67.765476 321.986558 66.402952 323.557467 66.402952 C 329.280065 66.402952 333.201995 71.516423 339.474946 71.516423 C 344.679252 71.516423 348.563779 59.702543 345.576914 59.702543 C 344.251793 59.702543 343.40222 61.40169 340.452757 61.40169 C 336.578916 61.40169 333.976764 59.702543 330.642589 59.702543 C 323.477319 59.702543 317.466186 65.50529 317.466186 72.67056 C 317.466186 81.668558 324.716948 84.233308 333.164593 86.835461 C 337.380401 88.160581 341.179437 90.201695 341.179437 94.551083 C 341.179437 97.831826 338.235317 100.311084 334.954575 100.311084 C 328.296911 100.311084 329.071679 94.128968 329.664778 89.645999 C 329.88385 88.021657 328.767115 87.166741 327.48474 87.129338 C 325.2673 87.043846 317.166965 91.270341 317.166965 93.824404 C 317.166965 98.948561 323.226187 103.634573 330.348711 103.634573 Z M 330.348711 103.634573 " stroke="#000000" stroke-width="10.080008" stroke-opacity="1" stroke-miterlimit="4"/><g fill="#ffffff" fill-opacity="1"><g transform="translate(102.069403, 179.653226)"><g><path d="M 1.308594 -19.054688 C 2.871094 -19.054688 5.644531 -29.628906 7.640625 -29.628906 C 8.546875 -29.628906 8.609375 -28.597656 8.609375 -27.632812 L 8.609375 -3.679688 C 8.609375 -1.902344 8.359375 -0.84375 7.515625 0 L 17.964844 0 C 17.121094 -0.84375 16.871094 -1.902344 16.871094 -3.679688 L 16.871094 -27.632812 C 16.871094 -28.597656 16.933594 -29.628906 17.839844 -29.628906 C 19.835938 -29.628906 22.609375 -19.054688 24.171875 -19.054688 C 24.605469 -19.054688 24.855469 -19.398438 24.855469 -19.804688 L 24.855469 -31.1875 L 0.625 -31.1875 L 0.625 -19.804688 C 0.625 -19.398438 0.875 -19.054688 1.308594 -19.054688 Z M 1.308594 -19.054688 "/></g></g></g><g fill="#ffffff" fill-opacity="1"><g transform="translate(127.547104, 179.653226)"><g><path d="M 0.3125 0 L 10.757812 0 C 9.917969 -0.84375 9.667969 -1.902344 9.667969 -3.679688 L 9.667969 -27.507812 C 9.667969 -29.285156 9.917969 -30.34375 10.757812 -31.1875 L 0.3125 -31.1875 C 1.152344 -30.34375 1.402344 -29.285156 1.402344 -27.507812 L 1.402344 -3.679688 C 1.402344 -1.902344 1.152344 -0.84375 0.3125 0 Z M 0.3125 0 "/></g></g></g><g fill="#ffffff" fill-opacity="1"><g transform="translate(138.617587, 179.653226)"><g><path d="M 0.3125 -31.1875 C 1.152344 -30.34375 1.402344 -29.285156 1.402344 -27.507812 L 1.402344 -3.679688 C 1.402344 -1.902344 1.152344 -0.84375 0.3125 0 L 9.199219 0 C 10.726562 0 11.414062 -1.902344 11.414062 -3.148438 C 11.414062 -9.167969 3.117188 -10.820312 3.117188 -14.8125 C 3.117188 -15.3125 3.398438 -15.59375 3.835938 -15.59375 C 5.082031 -15.59375 7.859375 -11.976562 13.347656 -11.976562 C 20.550781 -11.976562 23.359375 -17.339844 23.359375 -22.175781 C 23.359375 -27.226562 20.457031 -31.1875 12.878906 -31.1875 Z M 11.070312 -24.667969 C 15.375 -24.667969 21.738281 -24.386719 21.738281 -21.582031 C 21.738281 -18.773438 16.652344 -18.492188 12.351562 -18.492188 C 8.046875 -18.492188 2.992188 -18.773438 2.992188 -21.582031 C 2.992188 -24.386719 7.890625 -24.667969 11.070312 -24.667969 Z M 11.070312 -24.667969 "/></g></g></g><g fill="#ffffff" fill-opacity="1"><g transform="translate(162.598442, 179.653226)"><g><path d="M 0.78125 -15.59375 C 0.78125 -5.957031 5.675781 0.46875 13.066406 0.46875 C 20.394531 0.46875 25.324219 -5.957031 25.324219 -15.59375 C 25.324219 -25.230469 20.394531 -31.65625 13.066406 -31.65625 C 5.675781 -31.65625 0.78125 -25.230469 0.78125 -15.59375 Z M 10.542969 -29.535156 C 17.121094 -29.535156 21.925781 -1.652344 14.96875 -1.652344 C 9.417969 -1.652344 4.710938 -29.535156 10.542969 -29.535156 Z M 10.542969 -29.535156 "/></g></g></g><g fill="#ffffff" fill-opacity="1"><g transform="translate(188.69984, 179.653226)"><g><path d="M 9.949219 0.46875 C 18.648438 0.46875 22.300781 -5.832031 22.300781 -11.382812 C 22.300781 -16.1875 18.742188 -19.648438 13.503906 -20.148438 C 8.792969 -20.582031 2.902344 -21.207031 2.902344 -24.574219 C 2.902344 -25.761719 3.835938 -26.757812 4.988281 -26.757812 C 9.167969 -26.757812 12.039062 -23.015625 16.621094 -23.015625 C 20.425781 -23.015625 23.265625 -31.65625 21.082031 -31.65625 C 20.117188 -31.65625 19.492188 -30.40625 17.339844 -30.40625 C 14.503906 -30.40625 12.601562 -31.65625 10.167969 -31.65625 C 4.925781 -31.65625 0.53125 -27.414062 0.53125 -22.175781 C 0.53125 -15.59375 5.832031 -13.722656 12.007812 -11.820312 C 15.09375 -10.851562 17.871094 -9.355469 17.871094 -6.175781 C 17.871094 -3.773438 15.71875 -1.964844 13.316406 -1.964844 C 8.453125 -1.964844 9.011719 -6.488281 9.449219 -9.761719 C 9.605469 -10.945312 8.792969 -11.570312 7.859375 -11.601562 C 6.238281 -11.664062 0.3125 -8.578125 0.3125 -6.707031 C 0.3125 -2.960938 4.742188 0.46875 9.949219 0.46875 Z M 9.949219 0.46875 "/></g></g></g><g fill="#ffffff" fill-opacity="1"><g transform="translate(211.776346, 179.653226)"><g/></g></g><g fill="#ffffff" fill-opacity="1"><g transform="translate(222.690901, 179.653226)"><g><path d="M 0.3125 -31.1875 C 1.152344 -30.34375 1.402344 -29.285156 1.402344 -27.507812 L 1.402344 -3.679688 C 1.402344 -1.902344 1.152344 -0.84375 0.3125 0 L 13.566406 0 C 19.679688 0 23.296875 -2.402344 23.296875 -11.664062 C 23.296875 -19.523438 19.398438 -31.1875 9.886719 -31.1875 Z M 12.007812 -29.410156 C 14.875 -29.410156 15.125 -21.550781 15.125 -15.53125 C 15.125 -6.363281 14.191406 -1.589844 11.820312 -1.589844 C 10.074219 -1.589844 9.511719 -3.867188 9.511719 -9.355469 C 9.511719 -9.855469 9.511719 -15.09375 9.511719 -15.59375 C 9.511719 -16.09375 9.511719 -21.332031 9.511719 -21.832031 C 9.511719 -27.320312 10.074219 -29.410156 12.007812 -29.410156 Z M 12.007812 -29.410156 "/></g></g></g><g fill="#ffffff" fill-opacity="1"><g transform="translate(246.765305, 179.653226)"><g><path d="M 0.78125 -15.59375 C 0.78125 -4.835938 6.425781 0.46875 13.410156 0.46875 C 20.054688 0.46875 23.796875 -5.519531 23.796875 -9.761719 C 23.796875 -11.195312 23.390625 -11.445312 23.015625 -11.445312 C 21.488281 -11.445312 21.332031 -6.828125 15.875 -6.828125 C 11.539062 -6.828125 7.265625 -10.851562 5.394531 -16.589844 C 5.207031 -17.214844 5.050781 -18.339844 6.050781 -18.339844 C 8.640625 -18.339844 10.757812 -12.691406 15.375 -12.691406 C 19.210938 -12.691406 20.707031 -15.84375 20.707031 -17.933594 C 20.707031 -18.929688 20.425781 -19.710938 19.929688 -19.710938 C 19.398438 -19.710938 19.085938 -18.492188 17.652344 -18.492188 C 15.21875 -18.492188 12.476562 -21.050781 9.386719 -21.050781 C 6.613281 -21.050781 5.894531 -19.429688 4.957031 -19.429688 C 4.117188 -19.429688 4.367188 -22.390625 4.367188 -22.984375 C 4.367188 -24.140625 4.835938 -26.757812 6.921875 -26.757812 C 10.976562 -26.757812 13.003906 -23.015625 18.554688 -23.015625 C 20.800781 -23.015625 22.300781 -25.667969 22.921875 -27.132812 C 23.796875 -29.160156 24.234375 -31.65625 23.015625 -31.65625 C 22.050781 -31.65625 21.425781 -30.40625 19.273438 -30.40625 C 16.4375 -30.40625 14.535156 -31.65625 12.101562 -31.65625 C 4.429688 -31.65625 0.78125 -23.328125 0.78125 -15.59375 Z M 0.78125 -15.59375 "/></g></g></g><g fill="#ffffff" fill-opacity="1"><g transform="translate(59.313499, 222.786086)"><g><path d="M 0.3125 0 L 10.757812 0 C 9.917969 -0.84375 9.667969 -1.902344 9.667969 -3.679688 L 9.667969 -27.507812 C 9.667969 -29.285156 9.917969 -30.34375 10.757812 -31.1875 L 0.3125 -31.1875 C 1.152344 -30.34375 1.402344 -29.285156 1.402344 -27.507812 L 1.402344 -3.679688 C 1.402344 -1.902344 1.152344 -0.84375 0.3125 0 Z M 0.3125 0 "/></g></g></g><g fill="#ffffff" fill-opacity="1"><g transform="translate(70.383982, 222.786086)"><g><path d="M 0.3125 0 L 6.828125 0 C 8.671875 0 10.292969 -0.84375 10.292969 -2.746094 C 10.292969 -7.234375 3.210938 -11.851562 3.210938 -21.832031 C 3.210938 -23.265625 3.335938 -25.230469 4.367188 -25.230469 C 5.488281 -25.230469 6.613281 -21.519531 7.765625 -18.089844 C 8.453125 -16.03125 10.386719 -10.605469 11.195312 -8.140625 C 12.570312 -3.929688 13.785156 0 17.402344 0 L 25.574219 0 C 24.730469 -0.84375 24.480469 -1.902344 24.480469 -3.679688 L 24.480469 -27.507812 C 24.480469 -29.285156 24.730469 -30.34375 25.574219 -31.1875 L 19.054688 -31.1875 C 17.214844 -31.1875 15.59375 -30.34375 15.59375 -28.441406 C 15.59375 -23.953125 22.671875 -19.335938 22.671875 -9.355469 C 22.671875 -7.921875 22.546875 -5.957031 21.519531 -5.957031 C 20.394531 -5.957031 19.273438 -9.667969 18.121094 -13.097656 L 15.1875 -21.832031 C 12.382812 -30.1875 11.789062 -31.1875 9.605469 -31.1875 L 0.3125 -31.1875 C 1.152344 -30.34375 1.402344 -29.285156 1.402344 -27.507812 L 1.402344 -3.679688 C 1.402344 -1.902344 1.152344 -0.84375 0.3125 0 Z M 0.3125 0 "/></g></g></g><g fill="#ffffff" fill-opacity="1"><g transform="translate(96.267084, 222.786086)"><g><path d="M 0.3125 -31.1875 C 1.371094 -30.34375 1.621094 -29.285156 1.621094 -27.507812 L 1.621094 -3.679688 C 1.621094 -1.902344 1.371094 -0.84375 0.53125 0 L 9.417969 0 C 10.945312 0 11.632812 -1.902344 11.632812 -3.148438 C 11.632812 -9.167969 3.335938 -9.230469 3.335938 -17.558594 C 3.335938 -18.152344 3.742188 -18.339844 4.023438 -18.339844 C 6.613281 -18.339844 8.734375 -12.691406 13.347656 -12.691406 C 17.183594 -12.691406 18.679688 -15.84375 18.679688 -17.933594 C 18.679688 -18.929688 18.402344 -19.710938 17.902344 -19.710938 C 17.371094 -19.710938 17.058594 -18.492188 15.625 -18.492188 C 13.191406 -18.492188 10.449219 -21.050781 7.359375 -21.050781 C 5.144531 -21.050781 4.492188 -19.898438 3.742188 -19.898438 C 3.398438 -19.898438 3.335938 -20.179688 3.335938 -20.394531 L 3.335938 -22.328125 C 3.335938 -23.515625 4.179688 -24.886719 5.675781 -24.886719 L 16.46875 -24.886719 C 20.117188 -24.886719 20.394531 -22.484375 21.394531 -22.484375 C 21.988281 -22.484375 22.113281 -22.953125 22.113281 -23.734375 L 22.113281 -31.1875 Z M 0.3125 -31.1875 "/></g></g></g><g fill="#ffffff" fill-opacity="1"><g transform="translate(119.000557, 222.786086)"><g><path d="M 16.933594 0 C 19.429688 0 22.546875 0.28125 22.546875 -2.558594 C 22.546875 -7.296875 15.5 -7.234375 15.5 -10.011719 C 15.5 -13.347656 22.328125 -12.007812 22.328125 -15.59375 C 22.328125 -17.433594 17.214844 -19.023438 15.21875 -19.023438 C 12.847656 -19.023438 10.945312 -16.839844 10.945312 -14.503906 C 10.945312 -9.136719 16.21875 -8.640625 16.21875 -4.492188 C 16.21875 -2.527344 14.097656 -1.558594 12.132812 -1.558594 C 6.796875 -1.558594 4.085938 -8.109375 4.085938 -11.507812 C 4.085938 -18.742188 13.128906 -23.828125 13.128906 -28.410156 C 13.128906 -29.660156 12.414062 -31.1875 9.886719 -31.1875 L 0.3125 -31.1875 C 1.152344 -30.34375 1.402344 -29.285156 1.402344 -27.507812 L 1.402344 -3.679688 C 1.402344 -1.902344 1.152344 -0.84375 0.3125 0 Z M 16.933594 0 "/></g></g></g><g fill="#ffffff" fill-opacity="1"><g transform="translate(141.858767, 222.786086)"><g><path d="M 1.621094 -27.507812 L 1.621094 -11.507812 C 1.621094 -1.902344 8.265625 0.46875 12.816406 0.46875 C 17.371094 0.46875 24.109375 -1.902344 24.109375 -11.507812 L 24.109375 -27.507812 C 24.109375 -29.285156 24.355469 -30.34375 25.417969 -31.1875 L 14.6875 -31.1875 C 15.75 -30.34375 16 -29.285156 16 -27.507812 L 16 -12.195312 C 16 -8.390625 13.441406 -6.363281 10.355469 -6.363281 C 7.171875 -6.363281 3.148438 -7.828125 3.148438 -11.789062 C 3.148438 -17.902344 11.601562 -21.550781 11.601562 -28.472656 C 11.601562 -29.660156 10.882812 -31.1875 9.605469 -31.1875 L 0.3125 -31.1875 C 1.371094 -30.34375 1.621094 -29.285156 1.621094 -27.507812 Z M 1.621094 -27.507812 "/></g></g></g><g fill="#ffffff" fill-opacity="1"><g transform="translate(167.585942, 222.786086)"><g><path d="M 0.78125 -15.59375 C 0.78125 -4.835938 6.425781 0.46875 13.410156 0.46875 C 20.054688 0.46875 23.796875 -5.519531 23.796875 -9.761719 C 23.796875 -11.195312 23.390625 -11.445312 23.015625 -11.445312 C 21.488281 -11.445312 21.332031 -6.828125 15.875 -6.828125 C 11.539062 -6.828125 7.265625 -10.851562 5.394531 -16.589844 C 5.207031 -17.214844 5.050781 -18.339844 6.050781 -18.339844 C 8.640625 -18.339844 10.757812 -12.691406 15.375 -12.691406 C 19.210938 -12.691406 20.707031 -15.84375 20.707031 -17.933594 C 20.707031 -18.929688 20.425781 -19.710938 19.929688 -19.710938 C 19.398438 -19.710938 19.085938 -18.492188 17.652344 -18.492188 C 15.21875 -18.492188 12.476562 -21.050781 9.386719 -21.050781 C 6.613281 -21.050781 5.894531 -19.429688 4.957031 -19.429688 C 4.117188 -19.429688 4.367188 -22.390625 4.367188 -22.984375 C 4.367188 -24.140625 4.835938 -26.757812 6.921875 -26.757812 C 10.976562 -26.757812 13.003906 -23.015625 18.554688 -23.015625 C 20.800781 -23.015625 22.300781 -25.667969 22.921875 -27.132812 C 23.796875 -29.160156 24.234375 -31.65625 23.015625 -31.65625 C 22.050781 -31.65625 21.425781 -30.40625 19.273438 -30.40625 C 16.4375 -30.40625 14.535156 -31.65625 12.101562 -31.65625 C 4.429688 -31.65625 0.78125 -23.328125 0.78125 -15.59375 Z M 0.78125 -15.59375 "/></g></g></g><g fill="#ffffff" fill-opacity="1"><g transform="translate(192.003378, 222.786086)"><g><path d="M 0.3125 0 L 6.828125 0 C 8.671875 0 10.292969 -0.84375 10.292969 -2.746094 C 10.292969 -7.234375 3.210938 -11.851562 3.210938 -21.832031 C 3.210938 -23.265625 3.335938 -25.230469 4.367188 -25.230469 C 5.488281 -25.230469 6.613281 -21.519531 7.765625 -18.089844 C 8.453125 -16.03125 10.386719 -10.605469 11.195312 -8.140625 C 12.570312 -3.929688 13.785156 0 17.402344 0 L 25.574219 0 C 24.730469 -0.84375 24.480469 -1.902344 24.480469 -3.679688 L 24.480469 -27.507812 C 24.480469 -29.285156 24.730469 -30.34375 25.574219 -31.1875 L 19.054688 -31.1875 C 17.214844 -31.1875 15.59375 -30.34375 15.59375 -28.441406 C 15.59375 -23.953125 22.671875 -19.335938 22.671875 -9.355469 C 22.671875 -7.921875 22.546875 -5.957031 21.519531 -5.957031 C 20.394531 -5.957031 19.273438 -9.667969 18.121094 -13.097656 L 15.1875 -21.832031 C 12.382812 -30.1875 11.789062 -31.1875 9.605469 -31.1875 L 0.3125 -31.1875 C 1.152344 -30.34375 1.402344 -29.285156 1.402344 -27.507812 L 1.402344 -3.679688 C 1.402344 -1.902344 1.152344 -0.84375 0.3125 0 Z M 0.3125 0 "/></g></g></g><g fill="#ffffff" fill-opacity="1"><g transform="translate(217.886481, 222.786086)"><g><path d="M 13.410156 0.46875 C 20.054688 0.46875 23.796875 -5.738281 23.796875 -9.761719 C 23.796875 -11.195312 23.390625 -11.445312 23.015625 -11.445312 C 21.488281 -11.445312 21.332031 -6.828125 15.875 -6.828125 C 8.421875 -6.828125 4.367188 -16.558594 4.367188 -22.984375 C 4.367188 -24.140625 4.835938 -26.757812 6.921875 -26.757812 C 10.511719 -26.757812 12.507812 -23.828125 16.777344 -23.140625 C 17.339844 -23.046875 17.652344 -22.828125 17.652344 -22.390625 C 17.652344 -21.113281 11.195312 -19.835938 11.195312 -15.15625 C 11.195312 -12.660156 13.316406 -10.667969 15.84375 -10.667969 C 18.460938 -10.667969 20.800781 -12.816406 20.800781 -15.15625 C 20.800781 -15.78125 20.613281 -16.871094 20.117188 -16.871094 C 19.773438 -16.871094 19.835938 -16.558594 19.179688 -16.558594 C 18.089844 -16.558594 17.371094 -17.464844 17.371094 -18.492188 C 17.339844 -20.769531 20.210938 -23.015625 21.550781 -24.761719 C 22.175781 -25.574219 22.640625 -26.476562 22.921875 -27.132812 C 23.796875 -29.160156 24.234375 -31.65625 23.015625 -31.65625 C 22.050781 -31.65625 21.425781 -30.40625 19.273438 -30.40625 C 16.4375 -30.40625 14.535156 -31.65625 12.101562 -31.65625 C 4.429688 -31.65625 0.78125 -23.328125 0.78125 -15.59375 C 0.78125 -4.835938 6.425781 0.46875 13.410156 0.46875 Z M 13.410156 0.46875 "/></g></g></g><g fill="#ffffff" fill-opacity="1"><g transform="translate(242.303916, 222.786086)"><g><path d="M 0.78125 -15.59375 C 0.78125 -4.835938 6.425781 0.46875 13.410156 0.46875 C 20.054688 0.46875 23.796875 -5.519531 23.796875 -9.761719 C 23.796875 -11.195312 23.390625 -11.445312 23.015625 -11.445312 C 21.488281 -11.445312 21.332031 -6.828125 15.875 -6.828125 C 11.539062 -6.828125 7.265625 -10.851562 5.394531 -16.589844 C 5.207031 -17.214844 5.050781 -18.339844 6.050781 -18.339844 C 8.640625 -18.339844 10.757812 -12.691406 15.375 -12.691406 C 19.210938 -12.691406 20.707031 -15.84375 20.707031 -17.933594 C 20.707031 -18.929688 20.425781 -19.710938 19.929688 -19.710938 C 19.398438 -19.710938 19.085938 -18.492188 17.652344 -18.492188 C 15.21875 -18.492188 12.476562 -21.050781 9.386719 -21.050781 C 6.613281 -21.050781 5.894531 -19.429688 4.957031 -19.429688 C 4.117188 -19.429688 4.367188 -22.390625 4.367188 -22.984375 C 4.367188 -24.140625 4.835938 -26.757812 6.921875 -26.757812 C 10.976562 -26.757812 13.003906 -23.015625 18.554688 -23.015625 C 20.800781 -23.015625 22.300781 -25.667969 22.921875 -27.132812 C 23.796875 -29.160156 24.234375 -31.65625 23.015625 -31.65625 C 22.050781 -31.65625 21.425781 -30.40625 19.273438 -30.40625 C 16.4375 -30.40625 14.535156 -31.65625 12.101562 -31.65625 C 4.429688 -31.65625 0.78125 -23.328125 0.78125 -15.59375 Z M 0.78125 -15.59375 "/></g></g></g><g fill="#ffffff" fill-opacity="1"><g transform="translate(266.721363, 222.786086)"><g><path d="M 0.3125 -31.1875 C 1.152344 -30.34375 1.402344 -29.285156 1.402344 -27.507812 L 1.402344 -15.59375 L 1.433594 -9.011719 L 1.433594 -3.679688 C 1.433594 -1.902344 1.183594 -0.84375 0.34375 0 L 9.230469 0 C 10.757812 0 11.445312 -1.902344 11.445312 -3.148438 C 11.445312 -9.167969 3.023438 -10.042969 3.023438 -13.128906 C 3.023438 -13.285156 3.148438 -13.753906 3.585938 -13.753906 C 5.113281 -13.753906 13.878906 -8.015625 13.878906 -3.867188 C 13.878906 -2.308594 13.347656 -1.839844 13.347656 -0.71875 C 13.347656 -0.1875 13.847656 0 14.253906 0 L 20.988281 0 C 22.515625 0 23.046875 -0.84375 23.046875 -2.839844 C 23.046875 -7.765625 16.4375 -10.042969 11.851562 -11.757812 C 8.234375 -13.128906 4.304688 -14.75 4.304688 -16.4375 C 4.304688 -16.933594 4.523438 -17.433594 5.363281 -17.433594 C 7.140625 -17.433594 8.703125 -12.289062 14.625 -12.289062 C 20.863281 -12.289062 23.359375 -17.339844 23.359375 -22.175781 C 23.359375 -27.226562 20.457031 -31.1875 12.878906 -31.1875 Z M 11.070312 -24.667969 C 15.375 -24.667969 21.738281 -24.386719 21.738281 -21.582031 C 21.738281 -18.773438 16.652344 -18.492188 12.351562 -18.492188 C 8.046875 -18.492188 2.992188 -18.773438 2.992188 -21.582031 C 2.992188 -24.386719 7.890625 -24.667969 11.070312 -24.667969 Z M 11.070312 -24.667969 "/></g></g></g><g fill="#ffffff" fill-opacity="1"><g transform="translate(290.858123, 222.786086)"><g><path d="M 9.949219 0.46875 C 18.648438 0.46875 22.300781 -5.832031 22.300781 -11.382812 C 22.300781 -16.1875 18.742188 -19.648438 13.503906 -20.148438 C 8.792969 -20.582031 2.902344 -21.207031 2.902344 -24.574219 C 2.902344 -25.761719 3.835938 -26.757812 4.988281 -26.757812 C 9.167969 -26.757812 12.039062 -23.015625 16.621094 -23.015625 C 20.425781 -23.015625 23.265625 -31.65625 21.082031 -31.65625 C 20.117188 -31.65625 19.492188 -30.40625 17.339844 -30.40625 C 14.503906 -30.40625 12.601562 -31.65625 10.167969 -31.65625 C 4.925781 -31.65625 0.53125 -27.414062 0.53125 -22.175781 C 0.53125 -15.59375 5.832031 -13.722656 12.007812 -11.820312 C 15.09375 -10.851562 17.871094 -9.355469 17.871094 -6.175781 C 17.871094 -3.773438 15.71875 -1.964844 13.316406 -1.964844 C 8.453125 -1.964844 9.011719 -6.488281 9.449219 -9.761719 C 9.605469 -10.945312 8.792969 -11.570312 7.859375 -11.601562 C 6.238281 -11.664062 0.3125 -8.578125 0.3125 -6.707031 C 0.3125 -2.960938 4.742188 0.46875 9.949219 0.46875 Z M 9.949219 0.46875 "/></g></g></g></svg>