<svg xmlns="http://www.w3.org/2000/svg" xmlns:xlink="http://www.w3.org/1999/xlink" width="500" zoomAndPan="magnify" viewBox="0 0 375 374.999991" height="500" preserveAspectRatio="xMidYMid meet" version="1.0"><defs><g/><clipPath id="c235cb9655"><path d="M 154.414062 109.800781 L 315.664062 109.800781 L 315.664062 240 L 154.414062 240 Z M 154.414062 109.800781 " clip-rule="nonzero"/></clipPath><clipPath id="561be93236"><path d="M 59.335938 135 L 220.550781 135 L 220.550781 265.195312 L 59.335938 265.195312 Z M 59.335938 135 " clip-rule="nonzero"/></clipPath><clipPath id="68fea94a02"><path d="M 197.605469 109.800781 L 220.855469 109.800781 L 220.855469 133.050781 L 197.605469 133.050781 Z M 197.605469 109.800781 " clip-rule="nonzero"/></clipPath></defs><g clip-path="url(#c235cb9655)"><path fill="#000000" d="M 207.484375 239.820312 C 188.402344 239.820312 170.488281 237.570312 154.917969 233.613281 C 165.632812 235.242188 177.089844 236.117188 189 236.117188 C 248.703125 236.117188 297.097656 214.082031 297.097656 186.890625 C 297.097656 168.398438 274.695312 152.289062 241.566406 143.867188 C 284.566406 150.371094 315.582031 168.828125 315.582031 190.601562 C 315.582031 217.78125 267.183594 239.820312 207.484375 239.820312 Z M 209.488281 135.699219 L 209.488281 135.300781 C 233.320312 135.300781 235.050781 131.433594 235.050781 109.730469 L 235.449219 109.730469 C 235.449219 131.433594 237.1875 135.300781 261.023438 135.300781 L 261.023438 135.699219 C 237.1875 135.699219 235.449219 139.554688 235.449219 161.261719 L 235.050781 161.261719 C 235.050781 139.554688 233.320312 135.699219 209.488281 135.699219 " fill-opacity="1" fill-rule="evenodd"/></g><g clip-path="url(#561be93236)"><path fill="#000000" d="M 167.515625 135.175781 C 186.597656 135.175781 204.511719 137.421875 220.082031 141.378906 C 209.367188 139.75 197.910156 138.875 185.996094 138.875 C 126.296875 138.875 77.902344 160.914062 77.902344 188.105469 C 77.902344 206.597656 100.304688 222.707031 133.433594 231.128906 C 90.433594 224.625 59.417969 206.164062 59.417969 184.390625 C 59.417969 157.210938 107.816406 135.175781 167.515625 135.175781 Z M 165.511719 239.292969 L 165.511719 239.691406 C 141.675781 239.691406 139.949219 243.558594 139.949219 265.265625 L 139.550781 265.265625 C 139.550781 243.558594 137.8125 239.691406 113.976562 239.691406 L 113.976562 239.292969 C 137.8125 239.292969 139.550781 235.4375 139.550781 213.730469 L 139.949219 213.730469 C 139.949219 235.4375 141.675781 239.292969 165.511719 239.292969 " fill-opacity="1" fill-rule="evenodd"/></g><g clip-path="url(#68fea94a02)"><path fill="#000000" d="M 220.855469 121.421875 C 212.136719 123.027344 210.835938 124.328125 209.230469 133.046875 C 207.625 124.328125 206.324219 123.027344 197.605469 121.421875 C 206.324219 119.820312 207.625 118.519531 209.230469 109.800781 C 210.835938 118.519531 212.136719 119.820312 220.855469 121.421875 Z M 220.855469 121.421875 " fill-opacity="1" fill-rule="nonzero"/></g><path stroke-linecap="butt" transform="matrix(0.731065, 0, 0, 0.731065, 59.302076, 147.486348)" fill="none" stroke-linejoin="miter" d="M 58.04707 22.668622 C 58.04707 35.855712 64.742136 44.634637 74.856869 44.634637 C 84.88611 44.634637 91.623922 35.855712 91.623922 22.668622 C 91.623922 9.486876 84.88611 0.702608 74.856869 0.702608 C 64.742136 0.702608 58.04707 9.486876 58.04707 22.668622 Z M 71.3998 3.598638 C 80.408484 3.598638 86.969969 41.738607 77.459021 41.738607 C 69.866293 41.738607 63.422359 3.598638 71.3998 3.598638 Z M 93.114683 1.338452 C 94.26882 2.497933 94.605444 3.945948 94.605444 6.371774 L 94.605444 22.668622 L 94.648189 31.66662 L 94.648189 38.970814 C 94.648189 41.39664 94.311566 42.844655 93.157428 43.998793 L 105.313275 43.998793 C 107.402477 43.998793 108.342886 41.39664 108.342886 39.686807 C 108.342886 31.458234 96.822884 30.261351 96.822884 26.045543 C 96.822884 25.826471 96.99921 25.190626 97.592309 25.190626 C 99.686854 25.190626 111.671717 33.034487 111.671717 38.708996 C 111.671717 40.846288 110.945038 41.482132 110.945038 43.020982 C 110.945038 43.736975 111.634315 43.998793 112.184667 43.998793 L 121.401737 43.998793 C 123.485597 43.998793 124.212276 42.844655 124.212276 40.114265 C 124.212276 33.376453 115.171532 30.261351 108.893238 27.921017 C 103.945408 26.045543 98.57012 23.828103 98.57012 21.514485 C 98.57012 20.835895 98.874684 20.151961 100.028821 20.151961 C 102.454647 20.151961 104.591939 27.188994 112.692274 27.188994 C 121.225411 27.188994 124.639734 20.285542 124.639734 13.670625 C 124.639734 6.756486 120.675058 1.338452 110.309194 1.338452 Z M 107.829936 10.256301 C 113.718174 10.256301 122.422294 10.641014 122.422294 14.482795 C 122.422294 18.313891 115.46541 18.703946 109.582515 18.703946 C 103.694276 18.703946 96.780138 18.313891 96.780138 14.482795 C 96.780138 10.641014 103.475204 10.256301 107.829936 10.256301 Z M 126.130495 43.998793 L 140.41829 43.998793 C 139.274839 42.844655 138.932872 41.39664 138.932872 38.970814 L 138.932872 6.371774 C 138.932872 3.945948 139.274839 2.497933 140.41829 1.338452 L 126.130495 1.338452 C 127.284633 2.497933 127.621256 3.945948 127.621256 6.371774 L 127.621256 38.970814 C 127.621256 41.39664 127.284633 42.844655 126.130495 43.998793 Z M 141.909051 22.668622 C 141.909051 37.383875 149.63536 44.634637 159.189054 44.634637 C 166.69629 44.634637 171.478481 38.83189 172.926496 33.71842 L 172.926496 22.877008 C 172.926496 19.131405 169.768647 17.720792 167.385567 17.720792 C 163.330056 17.720792 162.010279 19.639011 159.146308 19.639011 C 157.105194 19.639011 156.116697 18.313891 155.438107 18.313891 C 154.283969 18.313891 153.471798 19.815338 153.471798 21.140459 C 153.471798 24.971554 155.865565 28.129402 160.727904 28.129402 C 166.103192 28.129402 167.000855 22.28391 168.870985 22.28391 C 170.110614 22.28391 170.415178 23.731925 170.415178 26.211183 C 170.415178 29.753744 168.571764 34.658828 162.560631 34.658828 C 152.36575 34.658828 146.814135 21.348845 146.814135 12.559233 C 146.814135 10.98298 147.460666 7.403017 150.31395 7.403017 C 155.865565 7.403017 158.633358 12.516487 166.226086 12.516487 C 169.298443 12.516487 171.31284 8.888435 172.20516 6.87938 C 173.434102 4.111588 173.995141 0.702608 172.333397 0.702608 C 171.008276 0.702608 170.15336 2.401754 167.20924 2.401754 C 163.330056 2.401754 160.727904 0.702608 157.393729 0.702608 C 146.910313 0.702608 141.909051 12.089029 141.909051 22.668622 Z M 175.26683 22.668622 C 175.26683 37.383875 182.993139 44.634637 192.546833 44.634637 C 201.635666 44.634637 206.749136 36.44881 206.749136 30.646063 C 206.749136 28.690442 206.198783 28.348475 205.685833 28.348475 C 203.596631 28.348475 203.388245 34.658828 195.91841 34.658828 C 189.992769 34.658828 184.141933 29.160646 181.58787 21.306099 C 181.326052 20.451182 181.117666 18.923019 182.485532 18.923019 C 186.02275 18.923019 188.91878 26.638642 195.229134 26.638642 C 200.481528 26.638642 202.533328 22.326656 202.533328 19.473371 C 202.533328 18.110848 202.148616 17.036859 201.459339 17.036859 C 200.743346 17.036859 200.315888 18.703946 198.344236 18.703946 C 195.020748 18.703946 191.264458 15.204131 187.043307 15.204131 C 183.244271 15.204131 182.26646 17.421571 180.984085 17.421571 C 179.840634 17.421571 180.171914 13.371404 180.171914 12.559233 C 180.171914 10.98298 180.818445 7.403017 183.671729 7.403017 C 189.223344 7.403017 191.991137 12.516487 199.583866 12.516487 C 202.656222 12.516487 204.708022 8.888435 205.562939 6.87938 C 206.749136 4.111588 207.352921 0.702608 205.685833 0.702608 C 204.366056 0.702608 203.511139 2.401754 200.561676 2.401754 C 196.687835 2.401754 194.085683 0.702608 190.751508 0.702608 C 180.262749 0.702608 175.26683 12.089029 175.26683 22.668622 Z M 208.031511 43.998793 L 216.944017 43.998793 C 219.466021 43.998793 221.683461 42.844655 221.683461 40.253189 C 221.683461 34.103133 211.996187 27.792779 211.996187 14.140829 C 211.996187 12.169177 212.16717 9.486876 213.572439 9.486876 C 215.111289 9.486876 216.644796 14.568287 218.226392 19.254299 C 219.161457 22.075524 221.811699 29.491926 222.912404 32.868847 C 224.798564 38.623504 226.454965 43.998793 231.413481 43.998793 L 242.586173 43.998793 C 241.432036 42.844655 241.090069 41.39664 241.090069 38.970814 L 241.090069 6.371774 C 241.090069 3.945948 241.432036 2.497933 242.586173 1.338452 L 233.673667 1.338452 C 231.151663 1.338452 228.934223 2.497933 228.934223 5.089399 C 228.934223 11.234112 238.621497 17.544466 238.621497 31.201759 C 238.621497 33.168068 238.439828 35.855712 237.034558 35.855712 C 235.506395 35.855712 233.962202 30.774301 232.391292 26.088289 L 228.38387 14.140829 C 224.536745 2.706318 223.724575 1.338452 220.748396 1.338452 L 208.031511 1.338452 C 209.185648 2.497933 209.522272 3.945948 209.522272 6.371774 L 209.522272 38.970814 C 209.522272 41.39664 209.185648 42.844655 208.031511 43.998793 Z M 259.000573 22.668622 C 259.000573 37.383875 266.726882 44.634637 276.280576 44.634637 C 285.369409 44.634637 290.482879 36.44881 290.482879 30.646063 C 290.482879 28.690442 289.932526 28.348475 289.42492 28.348475 C 287.330374 28.348475 287.121988 34.658828 279.652154 34.658828 C 273.726512 34.658828 267.875677 29.160646 265.321613 21.306099 C 265.059795 20.451182 264.851409 18.923019 266.219276 18.923019 C 269.756493 18.923019 272.652523 26.638642 278.96822 26.638642 C 284.215271 26.638642 286.267071 22.326656 286.267071 19.473371 C 286.267071 18.110848 285.882359 17.036859 285.193082 17.036859 C 284.477089 17.036859 284.049631 18.703946 282.07798 18.703946 C 278.759834 18.703946 274.998201 15.204131 270.77705 15.204131 C 266.978014 15.204131 266.000203 17.421571 264.717828 17.421571 C 263.574377 17.421571 263.905657 13.371404 263.905657 12.559233 C 263.905657 10.98298 264.552188 7.403017 267.405472 7.403017 C 272.957087 7.403017 275.72488 12.516487 283.317609 12.516487 C 286.389965 12.516487 288.441765 8.888435 289.296682 6.87938 C 290.482879 4.111588 291.086664 0.702608 289.42492 0.702608 C 288.099799 0.702608 287.244882 2.401754 284.300763 2.401754 C 280.421579 2.401754 277.819426 0.702608 274.485251 0.702608 C 264.001836 0.702608 259.000573 12.089029 259.000573 22.668622 Z M 259.000573 22.668622 " stroke="#000000" stroke-width="10.080008" stroke-opacity="1" stroke-miterlimit="4"/><path stroke-linecap="butt" transform="matrix(0.731065, 0, 0, 0.731065, 59.302076, 147.486348)" fill="none" stroke-linejoin="miter" d="M 65.90696 102.998729 C 69.353343 102.998729 70.34184 100.904183 70.34184 99.199693 C 70.34184 90.97112 59.457683 84.992047 59.457683 80.567853 C 59.457683 80.044216 59.719501 79.83583 60.104213 79.83583 C 61.552228 79.83583 62.791858 83.335645 71.998241 83.335645 C 81.258057 83.335645 83.005293 79.83583 84.453308 79.83583 C 84.838021 79.83583 85.099839 80.044216 85.099839 80.567853 C 85.099839 84.992047 74.215681 90.97112 74.215681 99.199693 C 74.215681 100.904183 75.204179 102.998729 78.650561 102.998729 L 88.722548 102.998729 C 87.568411 101.844591 87.237131 100.396576 87.237131 97.97075 L 87.237131 65.371709 C 87.237131 62.945883 87.568411 61.497868 88.722548 60.338387 L 77.421619 60.338387 C 76.352973 60.338387 75.150746 61.962729 75.150746 63.45349 C 75.150746 71.211859 85.099839 69.982916 85.099839 74.24147 C 85.099839 74.668928 84.757872 75.096386 84.287668 75.096386 C 82.535089 75.096386 80.360395 72.162953 72.174568 72.162953 C 63.935309 72.162953 62.022433 75.096386 60.269853 75.096386 C 59.799649 75.096386 59.457683 74.668928 59.457683 74.24147 C 59.457683 69.982916 69.396089 71.211859 69.396089 63.45349 C 69.396089 61.962729 68.204549 60.338387 67.135903 60.338387 L 55.834973 60.338387 C 56.989111 61.497868 57.320391 62.945883 57.320391 65.371709 L 57.320391 97.97075 C 57.320391 100.396576 56.989111 101.844591 55.834973 102.998729 Z M 89.572122 102.998729 L 103.86526 102.998729 C 102.716465 101.844591 102.374499 100.396576 102.374499 97.97075 L 102.374499 65.371709 C 102.374499 62.945883 102.716465 61.497868 103.86526 60.338387 L 89.572122 60.338387 C 90.731602 61.497868 91.062883 62.945883 91.062883 65.371709 L 91.062883 97.97075 C 91.062883 100.396576 90.731602 101.844591 89.572122 102.998729 Z M 117.901922 103.634573 C 129.79595 103.634573 134.797213 95.021288 134.797213 87.428559 C 134.797213 80.856387 129.929531 76.127629 122.764261 75.443696 C 116.320327 74.850598 108.257394 73.995681 108.257394 69.379131 C 108.257394 67.765476 109.539769 66.402952 111.110678 66.402952 C 116.827933 66.402952 120.755207 71.516423 127.028158 71.516423 C 132.232463 71.516423 136.11699 59.702543 133.130125 59.702543 C 131.805004 59.702543 130.950088 61.40169 128.005969 61.40169 C 124.132128 61.40169 121.524632 59.702543 118.1958 59.702543 C 111.03053 59.702543 105.019397 65.50529 105.019397 72.67056 C 105.019397 81.668558 112.270159 84.233308 120.712461 86.835461 C 124.933612 88.160581 128.732648 90.201695 128.732648 94.551083 C 128.732648 97.831826 125.788529 100.311084 122.507786 100.311084 C 115.850122 100.311084 116.619547 94.128968 117.212646 89.645999 C 117.431718 88.021657 116.320327 87.166741 115.037952 87.129338 C 112.820512 87.043846 104.714833 91.270341 104.714833 93.824404 C 104.714833 98.948561 110.779398 103.634573 117.901922 103.634573 Z M 137.645154 76.929114 C 139.782446 76.929114 143.570795 62.475679 146.311871 62.475679 C 147.540814 62.475679 147.626306 63.880948 147.626306 65.206069 L 147.626306 97.97075 C 147.626306 100.396576 147.289682 101.844591 146.135545 102.998729 L 160.42334 102.998729 C 159.279888 101.844591 158.937922 100.396576 158.937922 97.97075 L 158.937922 65.206069 C 158.937922 63.880948 159.01807 62.475679 160.257699 62.475679 C 162.988089 62.475679 166.787125 76.929114 168.913731 76.929114 C 169.517515 76.929114 169.859482 76.464253 169.859482 75.908557 L 169.859482 60.338387 L 136.710089 60.338387 L 136.710089 75.908557 C 136.710089 76.464253 137.052055 76.929114 137.645154 76.929114 Z M 171.767015 81.668558 C 171.767015 94.855647 178.467424 103.634573 188.576814 103.634573 C 198.606055 103.634573 205.343867 94.855647 205.343867 81.668558 C 205.343867 68.486812 198.606055 59.702543 188.576814 59.702543 C 178.467424 59.702543 171.767015 68.486812 171.767015 81.668558 Z M 185.119744 62.598573 C 194.128429 62.598573 200.689914 100.738543 191.184309 100.738543 C 183.591581 100.738543 177.142303 62.598573 185.119744 62.598573 Z M 206.834627 60.338387 C 207.994108 61.497868 208.325388 62.945883 208.325388 65.371709 L 208.325388 81.668558 L 208.368134 90.666556 L 208.368134 97.97075 C 208.368134 100.396576 208.031511 101.844591 206.877373 102.998729 L 219.033219 102.998729 C 221.127765 102.998729 222.06283 100.396576 222.06283 98.686743 C 222.06283 90.45817 210.542828 89.261287 210.542828 85.045479 C 210.542828 84.826406 210.719155 84.190562 211.312253 84.190562 C 213.406799 84.190562 225.397005 92.034422 225.397005 97.708932 C 225.397005 99.846223 224.664983 100.482068 224.664983 102.020918 C 224.664983 102.742254 225.354259 102.998729 225.904612 102.998729 L 235.121682 102.998729 C 237.205542 102.998729 237.937564 101.844591 237.937564 99.114201 C 237.937564 92.376389 228.89682 89.261287 222.613183 86.920952 C 217.665353 85.045479 212.295408 82.828039 212.295408 80.514421 C 212.295408 79.83583 212.594628 79.151897 213.754109 79.151897 C 216.179935 79.151897 218.311884 86.18893 226.417562 86.18893 C 234.945356 86.18893 238.365022 79.285478 238.365022 72.67056 C 238.365022 65.756422 234.395003 60.338387 224.029139 60.338387 Z M 221.555224 69.256237 C 227.438119 69.256237 236.142239 69.640949 236.142239 73.482731 C 236.142239 77.31917 229.185355 77.703882 223.302459 77.703882 C 217.419564 77.703882 210.500083 77.31917 210.500083 73.482731 C 210.500083 69.640949 217.200492 69.256237 221.555224 69.256237 Z M 239.85044 102.998729 L 254.143578 102.998729 C 252.994784 101.844591 252.652817 100.396576 252.652817 97.97075 L 252.652817 65.371709 C 252.652817 62.945883 252.994784 61.497868 254.143578 60.338387 L 239.85044 60.338387 C 241.009921 61.497868 241.341201 62.945883 241.341201 65.371709 L 241.341201 97.97075 C 241.341201 100.396576 241.009921 101.844591 239.85044 102.998729 Z M 254.565693 102.998729 L 268.981725 102.998729 C 271.503729 102.998729 272.096828 100.482068 272.096828 98.478357 C 272.096828 94.941139 270.648812 91.441324 269.158052 87.856017 L 275.431003 87.856017 C 276.285919 92.718356 276.836272 96.939507 276.836272 98.355462 C 276.836272 100.092012 276.285919 101.898023 275.302765 102.998729 L 292.914048 102.998729 C 291.166812 101.550713 290.226404 98.259284 289.168445 94.722067 C 285.711375 83.159319 284.386254 76.501655 282.248963 64.650373 C 281.960428 62.983286 282.248963 61.23605 283.189371 60.338387 L 264.295713 60.338387 C 265.230778 61.23605 265.535342 62.983286 265.230778 64.650373 C 263.09883 76.501655 261.773709 83.159319 258.31664 94.722067 C 257.253337 98.259284 256.318272 101.550713 254.565693 102.998729 Z M 268.345881 85.937798 C 266.983357 82.56622 265.743728 79.066405 265.743728 75.315459 C 265.743728 71.901135 266.470407 68.705884 268.693191 68.705884 C 271.076271 68.705884 273.470037 77.741285 275.04629 85.937798 Z M 268.345881 85.937798 " stroke="#000000" stroke-width="10.080008" stroke-opacity="1" stroke-miterlimit="4"/><g fill="#ffffff" fill-opacity="1"><g transform="translate(100.961382, 179.653226)"><g><path d="M 0.78125 -15.59375 C 0.78125 -5.957031 5.675781 0.46875 13.066406 0.46875 C 20.394531 0.46875 25.324219 -5.957031 25.324219 -15.59375 C 25.324219 -25.230469 20.394531 -31.65625 13.066406 -31.65625 C 5.675781 -31.65625 0.78125 -25.230469 0.78125 -15.59375 Z M 10.542969 -29.535156 C 17.121094 -29.535156 21.925781 -1.652344 14.96875 -1.652344 C 9.417969 -1.652344 4.710938 -29.535156 10.542969 -29.535156 Z M 10.542969 -29.535156 "/></g></g></g><g fill="#ffffff" fill-opacity="1"><g transform="translate(127.06278, 179.653226)"><g><path d="M 0.3125 -31.1875 C 1.152344 -30.34375 1.402344 -29.285156 1.402344 -27.507812 L 1.402344 -15.59375 L 1.433594 -9.011719 L 1.433594 -3.679688 C 1.433594 -1.902344 1.183594 -0.84375 0.34375 0 L 9.230469 0 C 10.757812 0 11.445312 -1.902344 11.445312 -3.148438 C 11.445312 -9.167969 3.023438 -10.042969 3.023438 -13.128906 C 3.023438 -13.285156 3.148438 -13.753906 3.585938 -13.753906 C 5.113281 -13.753906 13.878906 -8.015625 13.878906 -3.867188 C 13.878906 -2.308594 13.347656 -1.839844 13.347656 -0.71875 C 13.347656 -0.1875 13.847656 0 14.253906 0 L 20.988281 0 C 22.515625 0 23.046875 -0.84375 23.046875 -2.839844 C 23.046875 -7.765625 16.4375 -10.042969 11.851562 -11.757812 C 8.234375 -13.128906 4.304688 -14.75 4.304688 -16.4375 C 4.304688 -16.933594 4.523438 -17.433594 5.363281 -17.433594 C 7.140625 -17.433594 8.703125 -12.289062 14.625 -12.289062 C 20.863281 -12.289062 23.359375 -17.339844 23.359375 -22.175781 C 23.359375 -27.226562 20.457031 -31.1875 12.878906 -31.1875 Z M 11.070312 -24.667969 C 15.375 -24.667969 21.738281 -24.386719 21.738281 -21.582031 C 21.738281 -18.773438 16.652344 -18.492188 12.351562 -18.492188 C 8.046875 -18.492188 2.992188 -18.773438 2.992188 -21.582031 C 2.992188 -24.386719 7.890625 -24.667969 11.070312 -24.667969 Z M 11.070312 -24.667969 "/></g></g></g><g fill="#ffffff" fill-opacity="1"><g transform="translate(151.199551, 179.653226)"><g><path d="M 0.3125 0 L 10.757812 0 C 9.917969 -0.84375 9.667969 -1.902344 9.667969 -3.679688 L 9.667969 -27.507812 C 9.667969 -29.285156 9.917969 -30.34375 10.757812 -31.1875 L 0.3125 -31.1875 C 1.152344 -30.34375 1.402344 -29.285156 1.402344 -27.507812 L 1.402344 -3.679688 C 1.402344 -1.902344 1.152344 -0.84375 0.3125 0 Z M 0.3125 0 "/></g></g></g><g fill="#ffffff" fill-opacity="1"><g transform="translate(162.270034, 179.653226)"><g><path d="M 0.78125 -15.59375 C 0.78125 -4.835938 6.425781 0.46875 13.410156 0.46875 C 18.898438 0.46875 22.390625 -3.773438 23.453125 -7.515625 L 23.453125 -15.4375 C 23.453125 -18.183594 21.144531 -19.210938 19.398438 -19.210938 C 16.4375 -19.210938 15.46875 -17.808594 13.378906 -17.808594 C 11.882812 -17.808594 11.164062 -18.773438 10.667969 -18.773438 C 9.824219 -18.773438 9.230469 -17.683594 9.230469 -16.714844 C 9.230469 -13.910156 10.976562 -11.601562 14.535156 -11.601562 C 18.460938 -11.601562 19.117188 -15.875 20.488281 -15.875 C 21.394531 -15.875 21.613281 -14.8125 21.613281 -13.003906 C 21.613281 -10.417969 20.273438 -6.828125 15.875 -6.828125 C 8.421875 -6.828125 4.367188 -16.558594 4.367188 -22.984375 C 4.367188 -24.140625 4.835938 -26.757812 6.921875 -26.757812 C 10.976562 -26.757812 13.003906 -23.015625 18.554688 -23.015625 C 20.800781 -23.015625 22.269531 -25.667969 22.921875 -27.132812 C 23.828125 -29.160156 24.234375 -31.65625 23.015625 -31.65625 C 22.050781 -31.65625 21.425781 -30.40625 19.273438 -30.40625 C 16.4375 -30.40625 14.535156 -31.65625 12.101562 -31.65625 C 4.429688 -31.65625 0.78125 -23.328125 0.78125 -15.59375 Z M 0.78125 -15.59375 "/></g></g></g><g fill="#ffffff" fill-opacity="1"><g transform="translate(186.656279, 179.653226)"><g><path d="M 0.78125 -15.59375 C 0.78125 -4.835938 6.425781 0.46875 13.410156 0.46875 C 20.054688 0.46875 23.796875 -5.519531 23.796875 -9.761719 C 23.796875 -11.195312 23.390625 -11.445312 23.015625 -11.445312 C 21.488281 -11.445312 21.332031 -6.828125 15.875 -6.828125 C 11.539062 -6.828125 7.265625 -10.851562 5.394531 -16.589844 C 5.207031 -17.214844 5.050781 -18.339844 6.050781 -18.339844 C 8.640625 -18.339844 10.757812 -12.691406 15.375 -12.691406 C 19.210938 -12.691406 20.707031 -15.84375 20.707031 -17.933594 C 20.707031 -18.929688 20.425781 -19.710938 19.929688 -19.710938 C 19.398438 -19.710938 19.085938 -18.492188 17.652344 -18.492188 C 15.21875 -18.492188 12.476562 -21.050781 9.386719 -21.050781 C 6.613281 -21.050781 5.894531 -19.429688 4.957031 -19.429688 C 4.117188 -19.429688 4.367188 -22.390625 4.367188 -22.984375 C 4.367188 -24.140625 4.835938 -26.757812 6.921875 -26.757812 C 10.976562 -26.757812 13.003906 -23.015625 18.554688 -23.015625 C 20.800781 -23.015625 22.300781 -25.667969 22.921875 -27.132812 C 23.796875 -29.160156 24.234375 -31.65625 23.015625 -31.65625 C 22.050781 -31.65625 21.425781 -30.40625 19.273438 -30.40625 C 16.4375 -30.40625 14.535156 -31.65625 12.101562 -31.65625 C 4.429688 -31.65625 0.78125 -23.328125 0.78125 -15.59375 Z M 0.78125 -15.59375 "/></g></g></g><g fill="#ffffff" fill-opacity="1"><g transform="translate(211.073715, 179.653226)"><g><path d="M 0.3125 0 L 6.828125 0 C 8.671875 0 10.292969 -0.84375 10.292969 -2.746094 C 10.292969 -7.234375 3.210938 -11.851562 3.210938 -21.832031 C 3.210938 -23.265625 3.335938 -25.230469 4.367188 -25.230469 C 5.488281 -25.230469 6.613281 -21.519531 7.765625 -18.089844 C 8.453125 -16.03125 10.386719 -10.605469 11.195312 -8.140625 C 12.570312 -3.929688 13.785156 0 17.402344 0 L 25.574219 0 C 24.730469 -0.84375 24.480469 -1.902344 24.480469 -3.679688 L 24.480469 -27.507812 C 24.480469 -29.285156 24.730469 -30.34375 25.574219 -31.1875 L 19.054688 -31.1875 C 17.214844 -31.1875 15.59375 -30.34375 15.59375 -28.441406 C 15.59375 -23.953125 22.671875 -19.335938 22.671875 -9.355469 C 22.671875 -7.921875 22.546875 -5.957031 21.519531 -5.957031 C 20.394531 -5.957031 19.273438 -9.667969 18.121094 -13.097656 L 15.1875 -21.832031 C 12.382812 -30.1875 11.789062 -31.1875 9.605469 -31.1875 L 0.3125 -31.1875 C 1.152344 -30.34375 1.402344 -29.285156 1.402344 -27.507812 L 1.402344 -3.679688 C 1.402344 -1.902344 1.152344 -0.84375 0.3125 0 Z M 0.3125 0 "/></g></g></g><g fill="#ffffff" fill-opacity="1"><g transform="translate(236.956818, 179.653226)"><g/></g></g><g fill="#ffffff" fill-opacity="1"><g transform="translate(247.871374, 179.653226)"><g><path d="M 0.78125 -15.59375 C 0.78125 -4.835938 6.425781 0.46875 13.410156 0.46875 C 20.054688 0.46875 23.796875 -5.519531 23.796875 -9.761719 C 23.796875 -11.195312 23.390625 -11.445312 23.015625 -11.445312 C 21.488281 -11.445312 21.332031 -6.828125 15.875 -6.828125 C 11.539062 -6.828125 7.265625 -10.851562 5.394531 -16.589844 C 5.207031 -17.214844 5.050781 -18.339844 6.050781 -18.339844 C 8.640625 -18.339844 10.757812 -12.691406 15.375 -12.691406 C 19.210938 -12.691406 20.707031 -15.84375 20.707031 -17.933594 C 20.707031 -18.929688 20.425781 -19.710938 19.929688 -19.710938 C 19.398438 -19.710938 19.085938 -18.492188 17.652344 -18.492188 C 15.21875 -18.492188 12.476562 -21.050781 9.386719 -21.050781 C 6.613281 -21.050781 5.894531 -19.429688 4.957031 -19.429688 C 4.117188 -19.429688 4.367188 -22.390625 4.367188 -22.984375 C 4.367188 -24.140625 4.835938 -26.757812 6.921875 -26.757812 C 10.976562 -26.757812 13.003906 -23.015625 18.554688 -23.015625 C 20.800781 -23.015625 22.300781 -25.667969 22.921875 -27.132812 C 23.796875 -29.160156 24.234375 -31.65625 23.015625 -31.65625 C 22.050781 -31.65625 21.425781 -30.40625 19.273438 -30.40625 C 16.4375 -30.40625 14.535156 -31.65625 12.101562 -31.65625 C 4.429688 -31.65625 0.78125 -23.328125 0.78125 -15.59375 Z M 0.78125 -15.59375 "/></g></g></g><g fill="#ffffff" fill-opacity="1"><g transform="translate(99.807669, 222.786086)"><g><path d="M 7.671875 0 C 10.199219 0 10.914062 -1.527344 10.914062 -2.777344 C 10.914062 -8.792969 2.960938 -13.160156 2.960938 -16.40625 C 2.960938 -16.777344 3.148438 -16.933594 3.429688 -16.933594 C 4.492188 -16.933594 5.394531 -14.378906 12.132812 -14.378906 C 18.898438 -14.378906 20.179688 -16.933594 21.238281 -16.933594 C 21.519531 -16.933594 21.707031 -16.777344 21.707031 -16.40625 C 21.707031 -13.160156 13.753906 -8.792969 13.753906 -2.777344 C 13.753906 -1.527344 14.472656 0 16.996094 0 L 24.355469 0 C 23.515625 -0.84375 23.265625 -1.902344 23.265625 -3.679688 L 23.265625 -27.507812 C 23.265625 -29.285156 23.515625 -30.34375 24.355469 -31.1875 L 16.09375 -31.1875 C 15.3125 -31.1875 14.441406 -30.003906 14.441406 -28.910156 C 14.441406 -23.234375 21.707031 -24.140625 21.707031 -21.019531 C 21.707031 -20.707031 21.457031 -20.394531 21.113281 -20.394531 C 19.835938 -20.394531 18.246094 -22.546875 12.257812 -22.546875 C 6.238281 -22.546875 4.835938 -20.394531 3.554688 -20.394531 C 3.210938 -20.394531 2.960938 -20.707031 2.960938 -21.019531 C 2.960938 -24.140625 10.230469 -23.234375 10.230469 -28.910156 C 10.230469 -30.003906 9.355469 -31.1875 8.578125 -31.1875 L 0.3125 -31.1875 C 1.152344 -30.34375 1.402344 -29.285156 1.402344 -27.507812 L 1.402344 -3.679688 C 1.402344 -1.902344 1.152344 -0.84375 0.3125 0 Z M 7.671875 0 "/></g></g></g><g fill="#ffffff" fill-opacity="1"><g transform="translate(124.474579, 222.786086)"><g><path d="M 0.3125 0 L 10.757812 0 C 9.917969 -0.84375 9.667969 -1.902344 9.667969 -3.679688 L 9.667969 -27.507812 C 9.667969 -29.285156 9.917969 -30.34375 10.757812 -31.1875 L 0.3125 -31.1875 C 1.152344 -30.34375 1.402344 -29.285156 1.402344 -27.507812 L 1.402344 -3.679688 C 1.402344 -1.902344 1.152344 -0.84375 0.3125 0 Z M 0.3125 0 "/></g></g></g><g fill="#ffffff" fill-opacity="1"><g transform="translate(135.545062, 222.786086)"><g><path d="M 9.949219 0.46875 C 18.648438 0.46875 22.300781 -5.832031 22.300781 -11.382812 C 22.300781 -16.1875 18.742188 -19.648438 13.503906 -20.148438 C 8.792969 -20.582031 2.902344 -21.207031 2.902344 -24.574219 C 2.902344 -25.761719 3.835938 -26.757812 4.988281 -26.757812 C 9.167969 -26.757812 12.039062 -23.015625 16.621094 -23.015625 C 20.425781 -23.015625 23.265625 -31.65625 21.082031 -31.65625 C 20.117188 -31.65625 19.492188 -30.40625 17.339844 -30.40625 C 14.503906 -30.40625 12.601562 -31.65625 10.167969 -31.65625 C 4.925781 -31.65625 0.53125 -27.414062 0.53125 -22.175781 C 0.53125 -15.59375 5.832031 -13.722656 12.007812 -11.820312 C 15.09375 -10.851562 17.871094 -9.355469 17.871094 -6.175781 C 17.871094 -3.773438 15.71875 -1.964844 13.316406 -1.964844 C 8.453125 -1.964844 9.011719 -6.488281 9.449219 -9.761719 C 9.605469 -10.945312 8.792969 -11.570312 7.859375 -11.601562 C 6.238281 -11.664062 0.3125 -8.578125 0.3125 -6.707031 C 0.3125 -2.960938 4.742188 0.46875 9.949219 0.46875 Z M 9.949219 0.46875 "/></g></g></g><g fill="#ffffff" fill-opacity="1"><g transform="translate(158.621567, 222.786086)"><g><path d="M 1.308594 -19.054688 C 2.871094 -19.054688 5.644531 -29.628906 7.640625 -29.628906 C 8.546875 -29.628906 8.609375 -28.597656 8.609375 -27.632812 L 8.609375 -3.679688 C 8.609375 -1.902344 8.359375 -0.84375 7.515625 0 L 17.964844 0 C 17.121094 -0.84375 16.871094 -1.902344 16.871094 -3.679688 L 16.871094 -27.632812 C 16.871094 -28.597656 16.933594 -29.628906 17.839844 -29.628906 C 19.835938 -29.628906 22.609375 -19.054688 24.171875 -19.054688 C 24.605469 -19.054688 24.855469 -19.398438 24.855469 -19.804688 L 24.855469 -31.1875 L 0.625 -31.1875 L 0.625 -19.804688 C 0.625 -19.398438 0.875 -19.054688 1.308594 -19.054688 Z M 1.308594 -19.054688 "/></g></g></g><g fill="#ffffff" fill-opacity="1"><g transform="translate(184.099268, 222.786086)"><g><path d="M 0.78125 -15.59375 C 0.78125 -5.957031 5.675781 0.46875 13.066406 0.46875 C 20.394531 0.46875 25.324219 -5.957031 25.324219 -15.59375 C 25.324219 -25.230469 20.394531 -31.65625 13.066406 -31.65625 C 5.675781 -31.65625 0.78125 -25.230469 0.78125 -15.59375 Z M 10.542969 -29.535156 C 17.121094 -29.535156 21.925781 -1.652344 14.96875 -1.652344 C 9.417969 -1.652344 4.710938 -29.535156 10.542969 -29.535156 Z M 10.542969 -29.535156 "/></g></g></g><g fill="#ffffff" fill-opacity="1"><g transform="translate(210.200666, 222.786086)"><g><path d="M 0.3125 -31.1875 C 1.152344 -30.34375 1.402344 -29.285156 1.402344 -27.507812 L 1.402344 -15.59375 L 1.433594 -9.011719 L 1.433594 -3.679688 C 1.433594 -1.902344 1.183594 -0.84375 0.34375 0 L 9.230469 0 C 10.757812 0 11.445312 -1.902344 11.445312 -3.148438 C 11.445312 -9.167969 3.023438 -10.042969 3.023438 -13.128906 C 3.023438 -13.285156 3.148438 -13.753906 3.585938 -13.753906 C 5.113281 -13.753906 13.878906 -8.015625 13.878906 -3.867188 C 13.878906 -2.308594 13.347656 -1.839844 13.347656 -0.71875 C 13.347656 -0.1875 13.847656 0 14.253906 0 L 20.988281 0 C 22.515625 0 23.046875 -0.84375 23.046875 -2.839844 C 23.046875 -7.765625 16.4375 -10.042969 11.851562 -11.757812 C 8.234375 -13.128906 4.304688 -14.75 4.304688 -16.4375 C 4.304688 -16.933594 4.523438 -17.433594 5.363281 -17.433594 C 7.140625 -17.433594 8.703125 -12.289062 14.625 -12.289062 C 20.863281 -12.289062 23.359375 -17.339844 23.359375 -22.175781 C 23.359375 -27.226562 20.457031 -31.1875 12.878906 -31.1875 Z M 11.070312 -24.667969 C 15.375 -24.667969 21.738281 -24.386719 21.738281 -21.582031 C 21.738281 -18.773438 16.652344 -18.492188 12.351562 -18.492188 C 8.046875 -18.492188 2.992188 -18.773438 2.992188 -21.582031 C 2.992188 -24.386719 7.890625 -24.667969 11.070312 -24.667969 Z M 11.070312 -24.667969 "/></g></g></g><g fill="#ffffff" fill-opacity="1"><g transform="translate(234.337437, 222.786086)"><g><path d="M 0.3125 0 L 10.757812 0 C 9.917969 -0.84375 9.667969 -1.902344 9.667969 -3.679688 L 9.667969 -27.507812 C 9.667969 -29.285156 9.917969 -30.34375 10.757812 -31.1875 L 0.3125 -31.1875 C 1.152344 -30.34375 1.402344 -29.285156 1.402344 -27.507812 L 1.402344 -3.679688 C 1.402344 -1.902344 1.152344 -0.84375 0.3125 0 Z M 0.3125 0 "/></g></g></g><g fill="#ffffff" fill-opacity="1"><g transform="translate(245.40792, 222.786086)"><g><path d="M 0 0 L 10.542969 0 C 12.382812 0 12.816406 -1.839844 12.816406 -3.304688 C 12.816406 -5.894531 11.757812 -8.453125 10.667969 -11.070312 L 15.25 -11.070312 C 15.875 -7.515625 16.28125 -4.429688 16.28125 -3.398438 C 16.28125 -2.121094 15.875 -0.8125 15.15625 0 L 28.039062 0 C 26.757812 -1.058594 26.074219 -3.460938 25.292969 -6.050781 C 22.765625 -14.503906 21.800781 -19.367188 20.242188 -28.039062 C 20.023438 -29.253906 20.242188 -30.53125 20.925781 -31.1875 L 7.109375 -31.1875 C 7.796875 -30.53125 8.015625 -29.253906 7.796875 -28.039062 C 6.238281 -19.367188 5.269531 -14.503906 2.746094 -6.050781 C 1.964844 -3.460938 1.277344 -1.058594 0 0 Z M 10.074219 -12.476562 C 9.074219 -14.9375 8.171875 -17.496094 8.171875 -20.242188 C 8.171875 -22.734375 8.703125 -25.074219 10.324219 -25.074219 C 12.070312 -25.074219 13.816406 -18.460938 14.96875 -12.476562 Z M 10.074219 -12.476562 "/></g></g></g></svg>