<svg xmlns="http://www.w3.org/2000/svg" xmlns:xlink="http://www.w3.org/1999/xlink" width="500" zoomAndPan="magnify" viewBox="0 0 375 374.999991" height="500" preserveAspectRatio="xMidYMid meet" version="1.0"><defs><g/><clipPath id="f2a034f877"><path d="M 154.414062 109.800781 L 315.664062 109.800781 L 315.664062 240 L 154.414062 240 Z M 154.414062 109.800781 " clip-rule="nonzero"/></clipPath><clipPath id="f491107674"><path d="M 59.335938 135 L 220.550781 135 L 220.550781 265.195312 L 59.335938 265.195312 Z M 59.335938 135 " clip-rule="nonzero"/></clipPath><clipPath id="1a47e93fd5"><path d="M 197.605469 109.800781 L 220.855469 109.800781 L 220.855469 133.050781 L 197.605469 133.050781 Z M 197.605469 109.800781 " clip-rule="nonzero"/></clipPath></defs><g clip-path="url(#f2a034f877)"><path fill="#000000" d="M 207.484375 239.820312 C 188.402344 239.820312 170.488281 237.570312 154.917969 233.613281 C 165.632812 235.242188 177.089844 236.117188 189 236.117188 C 248.703125 236.117188 297.097656 214.082031 297.097656 186.890625 C 297.097656 168.398438 274.695312 152.289062 241.566406 143.867188 C 284.566406 150.371094 315.582031 168.828125 315.582031 190.601562 C 315.582031 217.78125 267.183594 239.820312 207.484375 239.820312 Z M 209.488281 135.699219 L 209.488281 135.300781 C 233.320312 135.300781 235.050781 131.433594 235.050781 109.730469 L 235.449219 109.730469 C 235.449219 131.433594 237.1875 135.300781 261.023438 135.300781 L 261.023438 135.699219 C 237.1875 135.699219 235.449219 139.554688 235.449219 161.261719 L 235.050781 161.261719 C 235.050781 139.554688 233.320312 135.699219 209.488281 135.699219 " fill-opacity="1" fill-rule="evenodd"/></g><g clip-path="url(#f491107674)"><path fill="#000000" d="M 167.515625 135.175781 C 186.597656 135.175781 204.511719 137.421875 220.082031 141.378906 C 209.367188 139.75 197.910156 138.875 185.996094 138.875 C 126.296875 138.875 77.902344 160.914062 77.902344 188.105469 C 77.902344 206.597656 100.304688 222.707031 133.433594 231.128906 C 90.433594 224.625 59.417969 206.164062 59.417969 184.390625 C 59.417969 157.210938 107.816406 135.175781 167.515625 135.175781 Z M 165.511719 239.292969 L 165.511719 239.691406 C 141.675781 239.691406 139.949219 243.558594 139.949219 265.265625 L 139.550781 265.265625 C 139.550781 243.558594 137.8125 239.691406 113.976562 239.691406 L 113.976562 239.292969 C 137.8125 239.292969 139.550781 235.4375 139.550781 213.730469 L 139.949219 213.730469 C 139.949219 235.4375 141.675781 239.292969 165.511719 239.292969 " fill-opacity="1" fill-rule="evenodd"/></g><g clip-path="url(#1a47e93fd5)"><path fill="#000000" d="M 220.855469 121.421875 C 212.136719 123.027344 210.835938 124.328125 209.230469 133.046875 C 207.625 124.328125 206.324219 123.027344 197.605469 121.421875 C 206.324219 119.820312 207.625 118.519531 209.230469 109.800781 C 210.835938 118.519531 212.136719 119.820312 220.855469 121.421875 Z M 220.855469 121.421875 " fill-opacity="1" fill-rule="nonzero"/></g><path stroke-linecap="butt" transform="matrix(0.731065, 0, 0, 0.731065, 73.959945, 171.12015)" fill="none" stroke-linejoin="miter" d="M 3.816423 43.99744 L 18.109561 43.99744 C 16.960766 42.843302 16.6188 41.395287 16.6188 38.969461 L 16.6188 6.370421 C 16.6188 3.944595 16.960766 2.49658 18.109561 1.342442 L 3.816423 1.342442 C 4.975904 2.49658 5.307184 3.944595 5.307184 6.370421 L 5.307184 38.969461 C 5.307184 41.395287 4.975904 42.843302 3.816423 43.99744 Z M 18.959134 43.99744 L 27.876983 43.99744 C 30.393644 43.99744 32.616428 42.843302 32.616428 40.251836 C 32.616428 34.107123 22.929153 27.796769 22.929153 14.139476 C 22.929153 12.173167 23.094793 9.485523 24.500063 9.485523 C 26.044256 9.485523 27.572419 14.566934 29.159358 19.252946 C 30.094424 22.074171 32.739322 29.490573 33.84537 32.867494 C 35.726187 38.627495 37.382588 43.99744 42.341105 43.99744 L 53.51914 43.99744 C 52.359659 42.843302 52.017693 41.395287 52.017693 38.969461 L 52.017693 6.370421 C 52.017693 3.944595 52.359659 2.49658 53.51914 1.342442 L 44.601291 1.342442 C 42.08463 1.342442 39.861846 2.49658 39.861846 5.088046 C 39.861846 11.232759 49.549121 17.548456 49.549121 31.200406 C 49.549121 33.166715 49.372794 35.854359 47.967525 35.854359 C 46.434018 35.854359 44.895168 30.772948 43.318916 26.086936 L 39.311494 14.139476 C 35.469712 2.704965 34.657541 1.342442 31.676019 1.342442 L 18.959134 1.342442 C 20.118615 2.49658 20.449895 3.944595 20.449895 6.370421 L 20.449895 38.969461 C 20.449895 41.395287 20.118615 42.843302 18.959134 43.99744 Z M 54.36337 1.342442 C 55.811385 2.49658 56.158695 3.944595 56.158695 6.370421 L 56.158695 38.969461 C 56.158695 41.395287 55.811385 42.843302 54.667934 43.99744 L 66.82378 43.99744 C 68.912983 43.99744 69.853391 41.395287 69.853391 39.690797 C 69.853391 31.462224 58.499029 31.376733 58.499029 19.984968 C 58.499029 19.172798 59.060068 18.921666 59.439438 18.921666 C 62.976655 18.921666 65.883372 26.637289 72.193726 26.637289 C 77.44612 26.637289 79.487233 22.325303 79.487233 19.472018 C 79.487233 18.109495 79.113207 17.035506 78.423931 17.035506 C 77.697252 17.035506 77.28048 18.702593 75.308828 18.702593 C 71.98534 18.702593 68.22905 15.202778 64.007899 15.202778 C 60.978288 15.202778 60.080625 16.784374 59.060068 16.784374 C 58.584521 16.784374 58.499029 16.399662 58.499029 16.100441 L 58.499029 13.450199 C 58.499029 11.836544 59.65851 9.955727 61.699624 9.955727 L 76.468309 9.955727 C 81.453542 9.955727 81.838254 13.241813 83.206121 13.241813 C 84.018292 13.241813 84.183932 12.600626 84.183932 11.537323 L 84.183932 1.342442 Z M 108.196403 43.99744 C 111.61607 43.99744 115.874623 44.387496 115.874623 40.502968 C 115.874623 34.021631 106.240781 34.107123 106.240781 30.302744 C 106.240781 25.744969 115.580746 27.577697 115.580746 22.672613 C 115.580746 20.150608 108.581116 17.970571 105.856069 17.970571 C 102.612729 17.970571 100.010576 20.962779 100.010576 24.15803 C 100.010576 31.499627 107.218592 32.178217 107.218592 37.852726 C 107.218592 40.540371 104.311876 41.865491 101.624231 41.865491 C 94.336067 41.865491 90.627866 32.91024 90.627866 28.26163 C 90.627866 18.360627 102.992098 11.409086 102.992098 5.141478 C 102.992098 3.431645 102.008944 1.342442 98.551875 1.342442 L 85.460963 1.342442 C 86.615101 2.49658 86.951724 3.944595 86.951724 6.370421 L 86.951724 38.969461 C 86.951724 41.395287 86.615101 42.843302 85.460963 43.99744 Z M 118.519522 6.370421 L 118.519522 28.26163 C 118.519522 41.395287 127.603011 44.633284 133.827873 44.633284 C 140.058078 44.633284 149.275148 41.395287 149.275148 28.26163 L 149.275148 6.370421 C 149.275148 3.944595 149.617115 2.49658 151.06513 1.342442 L 136.392623 1.342442 C 137.840638 2.49658 138.182605 3.944595 138.182605 6.370421 L 138.182605 27.315879 C 138.182605 32.520184 134.68279 35.29332 130.466982 35.29332 C 126.11225 35.29332 120.614068 33.294952 120.614068 27.876918 C 120.614068 19.514764 132.171472 14.524188 132.171472 5.0453 C 132.171472 3.431645 131.193661 1.342442 129.446425 1.342442 L 116.72954 1.342442 C 118.177555 2.49658 118.519522 3.944595 118.519522 6.370421 Z M 152.555891 22.672613 C 152.555891 37.387865 160.2822 44.633284 169.835894 44.633284 C 178.924727 44.633284 184.038197 36.447457 184.038197 30.650054 C 184.038197 28.689089 183.487844 28.347122 182.974894 28.347122 C 180.885692 28.347122 180.677306 34.657475 173.207472 34.657475 C 167.281831 34.657475 161.430995 29.159293 158.876931 21.304746 C 158.615113 20.449829 158.406727 18.921666 159.774594 18.921666 C 163.311811 18.921666 166.207841 26.637289 172.518195 26.637289 C 177.770589 26.637289 179.822389 22.325303 179.822389 19.472018 C 179.822389 18.109495 179.437677 17.035506 178.7484 17.035506 C 178.032407 17.035506 177.604949 18.702593 175.633298 18.702593 C 172.315152 18.702593 168.553519 15.202778 164.332368 15.202778 C 160.533332 15.202778 159.555521 17.420218 158.273146 17.420218 C 157.129695 17.420218 157.460975 13.370051 157.460975 12.55788 C 157.460975 10.986971 158.107506 7.401664 160.96079 7.401664 C 166.512406 7.401664 169.280198 12.515134 176.872927 12.515134 C 179.945283 12.515134 181.997083 8.892425 182.852 6.883371 C 184.038197 4.110235 184.641982 0.706598 182.974894 0.706598 C 181.655117 0.706598 180.8002 2.400401 177.850738 2.400401 C 173.976897 2.400401 171.374744 0.706598 168.040569 0.706598 C 157.55181 0.706598 152.555891 12.087676 152.555891 22.672613 Z M 185.320572 43.99744 L 194.233078 43.99744 C 196.755082 43.99744 198.972522 42.843302 198.972522 40.251836 C 198.972522 34.107123 189.285248 27.796769 189.285248 14.139476 C 189.285248 12.173167 189.456231 9.485523 190.8615 9.485523 C 192.40035 9.485523 193.933857 14.566934 195.515453 19.252946 C 196.455861 22.074171 199.10076 29.490573 200.201465 32.867494 C 202.087625 38.627495 203.744026 43.99744 208.702542 43.99744 L 219.875234 43.99744 C 218.721097 42.843302 218.37913 41.395287 218.37913 38.969461 L 218.37913 6.370421 C 218.37913 3.944595 218.721097 2.49658 219.875234 1.342442 L 210.962728 1.342442 C 208.440724 1.342442 206.223284 2.49658 206.223284 5.088046 C 206.223284 11.232759 215.910558 17.548456 215.910558 31.200406 C 215.910558 33.166715 215.734232 35.854359 214.323619 35.854359 C 212.795456 35.854359 211.251263 30.772948 209.680353 26.086936 L 205.672932 14.139476 C 201.825807 2.704965 201.013636 1.342442 198.037457 1.342442 L 185.320572 1.342442 C 186.474709 2.49658 186.811333 3.944595 186.811333 6.370421 L 186.811333 38.969461 C 186.811333 41.395287 186.474709 42.843302 185.320572 43.99744 Z M 238.640655 44.633284 C 247.729488 44.633284 252.842958 36.148236 252.842958 30.650054 C 252.842958 28.689089 252.292605 28.347122 251.779655 28.347122 C 249.690453 28.347122 249.482067 34.657475 242.012233 34.657475 C 231.817351 34.657475 226.265736 21.347492 226.265736 12.55788 C 226.265736 10.986971 226.912267 7.401664 229.765552 7.401664 C 234.670636 7.401664 237.401026 11.409086 243.251862 12.349494 C 244.0106 12.472388 244.438059 12.776952 244.438059 13.370051 C 244.438059 15.117287 235.605701 16.869866 235.605701 23.265711 C 235.605701 26.680034 238.512418 29.410424 241.969487 29.410424 C 245.554793 29.410424 248.750044 26.471648 248.750044 23.265711 C 248.750044 22.410794 248.488226 20.920033 247.814979 20.920033 C 247.344775 20.920033 247.430267 21.347492 246.532604 21.347492 C 245.041844 21.347492 244.053346 20.107863 244.053346 18.702593 C 244.0106 15.587491 247.937874 12.515134 249.770601 10.132054 C 250.625518 9.015319 251.272049 7.786376 251.656761 6.883371 C 252.842958 4.110235 253.446743 0.706598 251.779655 0.706598 C 250.459878 0.706598 249.604961 2.400401 246.655499 2.400401 C 242.781658 2.400401 240.179505 0.706598 236.84533 0.706598 C 226.356571 0.706598 221.360652 12.087676 221.360652 22.672613 C 221.360652 37.387865 229.086961 44.633284 238.640655 44.633284 Z M 254.125333 43.99744 L 268.413128 43.99744 C 267.269677 42.843302 266.922367 41.395287 266.922367 38.969461 L 266.922367 6.370421 C 266.922367 3.944595 267.269677 2.49658 268.413128 1.342442 L 254.125333 1.342442 C 255.27947 2.49658 255.616094 3.944595 255.616094 6.370421 L 255.616094 38.969461 C 255.616094 41.395287 255.27947 42.843302 254.125333 43.99744 Z M 268.840586 43.99744 L 283.256618 43.99744 C 285.773279 43.99744 286.366377 41.480779 286.366377 39.482411 C 286.366377 35.93985 284.918362 32.440035 283.432945 28.854729 L 289.700552 28.854729 C 290.555469 33.72241 291.105822 37.938218 291.105822 39.354174 C 291.105822 41.096066 290.555469 42.896735 289.577658 43.99744 L 307.188941 43.99744 C 305.436362 42.554768 304.501297 39.263339 303.437994 35.720778 C 299.980925 24.15803 298.655804 17.50571 296.523856 5.654428 C 296.229978 3.98734 296.523856 2.234761 297.458921 1.342442 L 278.565263 1.342442 C 279.505671 2.234761 279.804892 3.98734 279.505671 5.654428 C 277.36838 17.50571 276.048602 24.15803 272.591533 35.720778 C 271.52823 39.263339 270.587822 42.554768 268.840586 43.99744 Z M 282.620774 26.941853 C 281.252907 23.564932 280.013278 20.065117 280.013278 16.31417 C 280.013278 12.899847 280.7453 9.704596 282.96274 9.704596 C 285.345821 9.704596 287.74493 18.745339 289.31584 26.941853 Z M 282.620774 26.941853 " stroke="#000000" stroke-width="10.080008" stroke-opacity="1" stroke-miterlimit="4"/><g fill="#ffffff" fill-opacity="1"><g transform="translate(76.438714, 203.287028)"><g><path d="M 0.3125 0 L 10.757812 0 C 9.917969 -0.84375 9.667969 -1.902344 9.667969 -3.679688 L 9.667969 -27.507812 C 9.667969 -29.285156 9.917969 -30.34375 10.757812 -31.1875 L 0.3125 -31.1875 C 1.152344 -30.34375 1.402344 -29.285156 1.402344 -27.507812 L 1.402344 -3.679688 C 1.402344 -1.902344 1.152344 -0.84375 0.3125 0 Z M 0.3125 0 "/></g></g></g><g fill="#ffffff" fill-opacity="1"><g transform="translate(87.509197, 203.287028)"><g><path d="M 0.3125 0 L 6.828125 0 C 8.671875 0 10.292969 -0.84375 10.292969 -2.746094 C 10.292969 -7.234375 3.210938 -11.851562 3.210938 -21.832031 C 3.210938 -23.265625 3.335938 -25.230469 4.367188 -25.230469 C 5.488281 -25.230469 6.613281 -21.519531 7.765625 -18.089844 C 8.453125 -16.03125 10.386719 -10.605469 11.195312 -8.140625 C 12.570312 -3.929688 13.785156 0 17.402344 0 L 25.574219 0 C 24.730469 -0.84375 24.480469 -1.902344 24.480469 -3.679688 L 24.480469 -27.507812 C 24.480469 -29.285156 24.730469 -30.34375 25.574219 -31.1875 L 19.054688 -31.1875 C 17.214844 -31.1875 15.59375 -30.34375 15.59375 -28.441406 C 15.59375 -23.953125 22.671875 -19.335938 22.671875 -9.355469 C 22.671875 -7.921875 22.546875 -5.957031 21.519531 -5.957031 C 20.394531 -5.957031 19.273438 -9.667969 18.121094 -13.097656 L 15.1875 -21.832031 C 12.382812 -30.1875 11.789062 -31.1875 9.605469 -31.1875 L 0.3125 -31.1875 C 1.152344 -30.34375 1.402344 -29.285156 1.402344 -27.507812 L 1.402344 -3.679688 C 1.402344 -1.902344 1.152344 -0.84375 0.3125 0 Z M 0.3125 0 "/></g></g></g><g fill="#ffffff" fill-opacity="1"><g transform="translate(113.3923, 203.287028)"><g><path d="M 0.3125 -31.1875 C 1.371094 -30.34375 1.621094 -29.285156 1.621094 -27.507812 L 1.621094 -3.679688 C 1.621094 -1.902344 1.371094 -0.84375 0.53125 0 L 9.417969 0 C 10.945312 0 11.632812 -1.902344 11.632812 -3.148438 C 11.632812 -9.167969 3.335938 -9.230469 3.335938 -17.558594 C 3.335938 -18.152344 3.742188 -18.339844 4.023438 -18.339844 C 6.613281 -18.339844 8.734375 -12.691406 13.347656 -12.691406 C 17.183594 -12.691406 18.679688 -15.84375 18.679688 -17.933594 C 18.679688 -18.929688 18.402344 -19.710938 17.902344 -19.710938 C 17.371094 -19.710938 17.058594 -18.492188 15.625 -18.492188 C 13.191406 -18.492188 10.449219 -21.050781 7.359375 -21.050781 C 5.144531 -21.050781 4.492188 -19.898438 3.742188 -19.898438 C 3.398438 -19.898438 3.335938 -20.179688 3.335938 -20.394531 L 3.335938 -22.328125 C 3.335938 -23.515625 4.179688 -24.886719 5.675781 -24.886719 L 16.46875 -24.886719 C 20.117188 -24.886719 20.394531 -22.484375 21.394531 -22.484375 C 21.988281 -22.484375 22.113281 -22.953125 22.113281 -23.734375 L 22.113281 -31.1875 Z M 0.3125 -31.1875 "/></g></g></g><g fill="#ffffff" fill-opacity="1"><g transform="translate(136.125772, 203.287028)"><g><path d="M 16.933594 0 C 19.429688 0 22.546875 0.28125 22.546875 -2.558594 C 22.546875 -7.296875 15.5 -7.234375 15.5 -10.011719 C 15.5 -13.347656 22.328125 -12.007812 22.328125 -15.59375 C 22.328125 -17.433594 17.214844 -19.023438 15.21875 -19.023438 C 12.847656 -19.023438 10.945312 -16.839844 10.945312 -14.503906 C 10.945312 -9.136719 16.21875 -8.640625 16.21875 -4.492188 C 16.21875 -2.527344 14.097656 -1.558594 12.132812 -1.558594 C 6.796875 -1.558594 4.085938 -8.109375 4.085938 -11.507812 C 4.085938 -18.742188 13.128906 -23.828125 13.128906 -28.410156 C 13.128906 -29.660156 12.414062 -31.1875 9.886719 -31.1875 L 0.3125 -31.1875 C 1.152344 -30.34375 1.402344 -29.285156 1.402344 -27.507812 L 1.402344 -3.679688 C 1.402344 -1.902344 1.152344 -0.84375 0.3125 0 Z M 16.933594 0 "/></g></g></g><g fill="#ffffff" fill-opacity="1"><g transform="translate(158.983982, 203.287028)"><g><path d="M 1.621094 -27.507812 L 1.621094 -11.507812 C 1.621094 -1.902344 8.265625 0.46875 12.816406 0.46875 C 17.371094 0.46875 24.109375 -1.902344 24.109375 -11.507812 L 24.109375 -27.507812 C 24.109375 -29.285156 24.355469 -30.34375 25.417969 -31.1875 L 14.6875 -31.1875 C 15.75 -30.34375 16 -29.285156 16 -27.507812 L 16 -12.195312 C 16 -8.390625 13.441406 -6.363281 10.355469 -6.363281 C 7.171875 -6.363281 3.148438 -7.828125 3.148438 -11.789062 C 3.148438 -17.902344 11.601562 -21.550781 11.601562 -28.472656 C 11.601562 -29.660156 10.882812 -31.1875 9.605469 -31.1875 L 0.3125 -31.1875 C 1.371094 -30.34375 1.621094 -29.285156 1.621094 -27.507812 Z M 1.621094 -27.507812 "/></g></g></g><g fill="#ffffff" fill-opacity="1"><g transform="translate(184.711157, 203.287028)"><g><path d="M 0.78125 -15.59375 C 0.78125 -4.835938 6.425781 0.46875 13.410156 0.46875 C 20.054688 0.46875 23.796875 -5.519531 23.796875 -9.761719 C 23.796875 -11.195312 23.390625 -11.445312 23.015625 -11.445312 C 21.488281 -11.445312 21.332031 -6.828125 15.875 -6.828125 C 11.539062 -6.828125 7.265625 -10.851562 5.394531 -16.589844 C 5.207031 -17.214844 5.050781 -18.339844 6.050781 -18.339844 C 8.640625 -18.339844 10.757812 -12.691406 15.375 -12.691406 C 19.210938 -12.691406 20.707031 -15.84375 20.707031 -17.933594 C 20.707031 -18.929688 20.425781 -19.710938 19.929688 -19.710938 C 19.398438 -19.710938 19.085938 -18.492188 17.652344 -18.492188 C 15.21875 -18.492188 12.476562 -21.050781 9.386719 -21.050781 C 6.613281 -21.050781 5.894531 -19.429688 4.957031 -19.429688 C 4.117188 -19.429688 4.367188 -22.390625 4.367188 -22.984375 C 4.367188 -24.140625 4.835938 -26.757812 6.921875 -26.757812 C 10.976562 -26.757812 13.003906 -23.015625 18.554688 -23.015625 C 20.800781 -23.015625 22.300781 -25.667969 22.921875 -27.132812 C 23.796875 -29.160156 24.234375 -31.65625 23.015625 -31.65625 C 22.050781 -31.65625 21.425781 -30.40625 19.273438 -30.40625 C 16.4375 -30.40625 14.535156 -31.65625 12.101562 -31.65625 C 4.429688 -31.65625 0.78125 -23.328125 0.78125 -15.59375 Z M 0.78125 -15.59375 "/></g></g></g><g fill="#ffffff" fill-opacity="1"><g transform="translate(209.128593, 203.287028)"><g><path d="M 0.3125 0 L 6.828125 0 C 8.671875 0 10.292969 -0.84375 10.292969 -2.746094 C 10.292969 -7.234375 3.210938 -11.851562 3.210938 -21.832031 C 3.210938 -23.265625 3.335938 -25.230469 4.367188 -25.230469 C 5.488281 -25.230469 6.613281 -21.519531 7.765625 -18.089844 C 8.453125 -16.03125 10.386719 -10.605469 11.195312 -8.140625 C 12.570312 -3.929688 13.785156 0 17.402344 0 L 25.574219 0 C 24.730469 -0.84375 24.480469 -1.902344 24.480469 -3.679688 L 24.480469 -27.507812 C 24.480469 -29.285156 24.730469 -30.34375 25.574219 -31.1875 L 19.054688 -31.1875 C 17.214844 -31.1875 15.59375 -30.34375 15.59375 -28.441406 C 15.59375 -23.953125 22.671875 -19.335938 22.671875 -9.355469 C 22.671875 -7.921875 22.546875 -5.957031 21.519531 -5.957031 C 20.394531 -5.957031 19.273438 -9.667969 18.121094 -13.097656 L 15.1875 -21.832031 C 12.382812 -30.1875 11.789062 -31.1875 9.605469 -31.1875 L 0.3125 -31.1875 C 1.152344 -30.34375 1.402344 -29.285156 1.402344 -27.507812 L 1.402344 -3.679688 C 1.402344 -1.902344 1.152344 -0.84375 0.3125 0 Z M 0.3125 0 "/></g></g></g><g fill="#ffffff" fill-opacity="1"><g transform="translate(235.011696, 203.287028)"><g><path d="M 13.410156 0.46875 C 20.054688 0.46875 23.796875 -5.738281 23.796875 -9.761719 C 23.796875 -11.195312 23.390625 -11.445312 23.015625 -11.445312 C 21.488281 -11.445312 21.332031 -6.828125 15.875 -6.828125 C 8.421875 -6.828125 4.367188 -16.558594 4.367188 -22.984375 C 4.367188 -24.140625 4.835938 -26.757812 6.921875 -26.757812 C 10.511719 -26.757812 12.507812 -23.828125 16.777344 -23.140625 C 17.339844 -23.046875 17.652344 -22.828125 17.652344 -22.390625 C 17.652344 -21.113281 11.195312 -19.835938 11.195312 -15.15625 C 11.195312 -12.660156 13.316406 -10.667969 15.84375 -10.667969 C 18.460938 -10.667969 20.800781 -12.816406 20.800781 -15.15625 C 20.800781 -15.78125 20.613281 -16.871094 20.117188 -16.871094 C 19.773438 -16.871094 19.835938 -16.558594 19.179688 -16.558594 C 18.089844 -16.558594 17.371094 -17.464844 17.371094 -18.492188 C 17.339844 -20.769531 20.210938 -23.015625 21.550781 -24.761719 C 22.175781 -25.574219 22.640625 -26.476562 22.921875 -27.132812 C 23.796875 -29.160156 24.234375 -31.65625 23.015625 -31.65625 C 22.050781 -31.65625 21.425781 -30.40625 19.273438 -30.40625 C 16.4375 -30.40625 14.535156 -31.65625 12.101562 -31.65625 C 4.429688 -31.65625 0.78125 -23.328125 0.78125 -15.59375 C 0.78125 -4.835938 6.425781 0.46875 13.410156 0.46875 Z M 13.410156 0.46875 "/></g></g></g><g fill="#ffffff" fill-opacity="1"><g transform="translate(259.429132, 203.287028)"><g><path d="M 0.3125 0 L 10.757812 0 C 9.917969 -0.84375 9.667969 -1.902344 9.667969 -3.679688 L 9.667969 -27.507812 C 9.667969 -29.285156 9.917969 -30.34375 10.757812 -31.1875 L 0.3125 -31.1875 C 1.152344 -30.34375 1.402344 -29.285156 1.402344 -27.507812 L 1.402344 -3.679688 C 1.402344 -1.902344 1.152344 -0.84375 0.3125 0 Z M 0.3125 0 "/></g></g></g><g fill="#ffffff" fill-opacity="1"><g transform="translate(270.499615, 203.287028)"><g><path d="M 0 0 L 10.542969 0 C 12.382812 0 12.816406 -1.839844 12.816406 -3.304688 C 12.816406 -5.894531 11.757812 -8.453125 10.667969 -11.070312 L 15.25 -11.070312 C 15.875 -7.515625 16.28125 -4.429688 16.28125 -3.398438 C 16.28125 -2.121094 15.875 -0.8125 15.15625 0 L 28.039062 0 C 26.757812 -1.058594 26.074219 -3.460938 25.292969 -6.050781 C 22.765625 -14.503906 21.800781 -19.367188 20.242188 -28.039062 C 20.023438 -29.253906 20.242188 -30.53125 20.925781 -31.1875 L 7.109375 -31.1875 C 7.796875 -30.53125 8.015625 -29.253906 7.796875 -28.039062 C 6.238281 -19.367188 5.269531 -14.503906 2.746094 -6.050781 C 1.964844 -3.460938 1.277344 -1.058594 0 0 Z M 10.074219 -12.476562 C 9.074219 -14.9375 8.171875 -17.496094 8.171875 -20.242188 C 8.171875 -22.734375 8.703125 -25.074219 10.324219 -25.074219 C 12.070312 -25.074219 13.816406 -18.460938 14.96875 -12.476562 Z M 10.074219 -12.476562 "/></g></g></g><g fill="#000000" fill-opacity="1"><g transform="translate(155.846501, 222.047435)"><g><path d="M 0.117188 0 L 4.078125 0 C 3.757812 -0.320312 3.664062 -0.722656 3.664062 -1.394531 L 3.664062 -10.425781 C 3.664062 -11.101562 3.757812 -11.503906 4.078125 -11.820312 L 0.117188 -11.820312 C 0.4375 -11.503906 0.53125 -11.101562 0.53125 -10.425781 L 0.53125 -1.394531 C 0.53125 -0.722656 0.4375 -0.320312 0.117188 0 Z M 0.117188 0 "/></g></g></g><g fill="#000000" fill-opacity="1"><g transform="translate(160.04233, 222.047435)"><g><path d="M 0.117188 0 L 2.589844 0 C 3.285156 0 3.902344 -0.320312 3.902344 -1.039062 C 3.902344 -2.742188 1.21875 -4.492188 1.21875 -8.277344 C 1.21875 -8.820312 1.265625 -9.5625 1.65625 -9.5625 C 2.082031 -9.5625 2.507812 -8.15625 2.945312 -6.855469 C 3.203125 -6.078125 3.9375 -4.019531 4.246094 -3.085938 C 4.765625 -1.488281 5.226562 0 6.597656 0 L 9.695312 0 C 9.375 -0.320312 9.28125 -0.722656 9.28125 -1.394531 L 9.28125 -10.425781 C 9.28125 -11.101562 9.375 -11.503906 9.695312 -11.820312 L 7.222656 -11.820312 C 6.527344 -11.820312 5.910156 -11.503906 5.910156 -10.78125 C 5.910156 -9.078125 8.59375 -7.328125 8.59375 -3.546875 C 8.59375 -3.003906 8.546875 -2.257812 8.15625 -2.257812 C 7.730469 -2.257812 7.304688 -3.664062 6.867188 -4.964844 L 5.757812 -8.277344 C 4.695312 -11.445312 4.46875 -11.820312 3.640625 -11.820312 L 0.117188 -11.820312 C 0.4375 -11.503906 0.53125 -11.101562 0.53125 -10.425781 L 0.53125 -1.394531 C 0.53125 -0.722656 0.4375 -0.320312 0.117188 0 Z M 0.117188 0 "/></g></g></g><g fill="#000000" fill-opacity="1"><g transform="translate(169.852299, 222.047435)"><g><path d="M 0.117188 -11.820312 C 0.519531 -11.503906 0.613281 -11.101562 0.613281 -10.425781 L 0.613281 -1.394531 C 0.613281 -0.722656 0.519531 -0.320312 0.199219 0 L 3.570312 0 C 4.148438 0 4.410156 -0.722656 4.410156 -1.195312 C 4.410156 -3.476562 1.265625 -3.5 1.265625 -6.65625 C 1.265625 -6.878906 1.417969 -6.953125 1.523438 -6.953125 C 2.507812 -6.953125 3.308594 -4.8125 5.058594 -4.8125 C 6.515625 -4.8125 7.082031 -6.003906 7.082031 -6.796875 C 7.082031 -7.175781 6.976562 -7.472656 6.785156 -7.472656 C 6.585938 -7.472656 6.464844 -7.011719 5.921875 -7.011719 C 5 -7.011719 3.960938 -7.980469 2.789062 -7.980469 C 1.949219 -7.980469 1.703125 -7.542969 1.417969 -7.542969 C 1.289062 -7.542969 1.265625 -7.648438 1.265625 -7.730469 L 1.265625 -8.464844 C 1.265625 -8.914062 1.585938 -9.433594 2.152344 -9.433594 L 6.242188 -9.433594 C 7.625 -9.433594 7.730469 -8.523438 8.109375 -8.523438 C 8.335938 -8.523438 8.382812 -8.699219 8.382812 -8.996094 L 8.382812 -11.820312 Z M 0.117188 -11.820312 "/></g></g></g><g fill="#000000" fill-opacity="1"><g transform="translate(178.468526, 222.047435)"><g><path d="M 6.417969 0 C 7.367188 0 8.546875 0.105469 8.546875 -0.96875 C 8.546875 -2.765625 5.875 -2.742188 5.875 -3.796875 C 5.875 -5.058594 8.464844 -4.550781 8.464844 -5.910156 C 8.464844 -6.609375 6.527344 -7.210938 5.769531 -7.210938 C 4.871094 -7.210938 4.148438 -6.382812 4.148438 -5.496094 C 4.148438 -3.464844 6.148438 -3.273438 6.148438 -1.703125 C 6.148438 -0.957031 5.34375 -0.589844 4.597656 -0.589844 C 2.578125 -0.589844 1.546875 -3.074219 1.546875 -4.363281 C 1.546875 -7.105469 4.976562 -9.03125 4.976562 -10.769531 C 4.976562 -11.242188 4.707031 -11.820312 3.746094 -11.820312 L 0.117188 -11.820312 C 0.4375 -11.503906 0.53125 -11.101562 0.53125 -10.425781 L 0.53125 -1.394531 C 0.53125 -0.722656 0.4375 -0.320312 0.117188 0 Z M 6.417969 0 "/></g></g></g><g fill="#000000" fill-opacity="1"><g transform="translate(187.132029, 222.047435)"><g><path d="M 0.613281 -10.425781 L 0.613281 -4.363281 C 0.613281 -0.722656 3.132812 0.175781 4.859375 0.175781 C 6.585938 0.175781 9.136719 -0.722656 9.136719 -4.363281 L 9.136719 -10.425781 C 9.136719 -11.101562 9.234375 -11.503906 9.636719 -11.820312 L 5.566406 -11.820312 C 5.96875 -11.503906 6.066406 -11.101562 6.066406 -10.425781 L 6.066406 -4.621094 C 6.066406 -3.179688 5.09375 -2.410156 3.925781 -2.410156 C 2.71875 -2.410156 1.195312 -2.96875 1.195312 -4.46875 C 1.195312 -6.785156 4.398438 -8.167969 4.398438 -10.792969 C 4.398438 -11.242188 4.125 -11.820312 3.640625 -11.820312 L 0.117188 -11.820312 C 0.519531 -11.503906 0.613281 -11.101562 0.613281 -10.425781 Z M 0.613281 -10.425781 "/></g></g></g><g fill="#000000" fill-opacity="1"><g transform="translate(196.882896, 222.047435)"><g><path d="M 0.296875 -5.910156 C 0.296875 -1.832031 2.433594 0.175781 5.082031 0.175781 C 7.601562 0.175781 9.019531 -2.09375 9.019531 -3.699219 C 9.019531 -4.246094 8.867188 -4.339844 8.726562 -4.339844 C 8.144531 -4.339844 8.085938 -2.589844 6.015625 -2.589844 C 4.375 -2.589844 2.753906 -4.113281 2.046875 -6.289062 C 1.972656 -6.527344 1.914062 -6.953125 2.292969 -6.953125 C 3.273438 -6.953125 4.078125 -4.8125 5.828125 -4.8125 C 7.28125 -4.8125 7.851562 -6.003906 7.851562 -6.796875 C 7.851562 -7.175781 7.742188 -7.472656 7.554688 -7.472656 C 7.351562 -7.472656 7.234375 -7.011719 6.691406 -7.011719 C 5.769531 -7.011719 4.730469 -7.980469 3.558594 -7.980469 C 2.507812 -7.980469 2.234375 -7.367188 1.878906 -7.367188 C 1.558594 -7.367188 1.65625 -8.488281 1.65625 -8.714844 C 1.65625 -9.152344 1.832031 -10.144531 2.625 -10.144531 C 4.160156 -10.144531 4.929688 -8.726562 7.035156 -8.726562 C 7.886719 -8.726562 8.453125 -9.730469 8.6875 -10.285156 C 9.019531 -11.054688 9.1875 -12 8.726562 -12 C 8.359375 -12 8.121094 -11.527344 7.304688 -11.527344 C 6.230469 -11.527344 5.507812 -12 4.585938 -12 C 1.679688 -12 0.296875 -8.84375 0.296875 -5.910156 Z M 0.296875 -5.910156 "/></g></g></g><g fill="#000000" fill-opacity="1"><g transform="translate(206.137364, 222.047435)"><g><path d="M 0.117188 0 L 2.589844 0 C 3.285156 0 3.902344 -0.320312 3.902344 -1.039062 C 3.902344 -2.742188 1.21875 -4.492188 1.21875 -8.277344 C 1.21875 -8.820312 1.265625 -9.5625 1.65625 -9.5625 C 2.082031 -9.5625 2.507812 -8.15625 2.945312 -6.855469 C 3.203125 -6.078125 3.9375 -4.019531 4.246094 -3.085938 C 4.765625 -1.488281 5.226562 0 6.597656 0 L 9.695312 0 C 9.375 -0.320312 9.28125 -0.722656 9.28125 -1.394531 L 9.28125 -10.425781 C 9.28125 -11.101562 9.375 -11.503906 9.695312 -11.820312 L 7.222656 -11.820312 C 6.527344 -11.820312 5.910156 -11.503906 5.910156 -10.78125 C 5.910156 -9.078125 8.59375 -7.328125 8.59375 -3.546875 C 8.59375 -3.003906 8.546875 -2.257812 8.15625 -2.257812 C 7.730469 -2.257812 7.304688 -3.664062 6.867188 -4.964844 L 5.757812 -8.277344 C 4.695312 -11.445312 4.46875 -11.820312 3.640625 -11.820312 L 0.117188 -11.820312 C 0.4375 -11.503906 0.53125 -11.101562 0.53125 -10.425781 L 0.53125 -1.394531 C 0.53125 -0.722656 0.4375 -0.320312 0.117188 0 Z M 0.117188 0 "/></g></g></g><g fill="#000000" fill-opacity="1"><g transform="translate(215.947333, 222.047435)"><g><path d="M 5.082031 0.175781 C 7.601562 0.175781 9.019531 -2.175781 9.019531 -3.699219 C 9.019531 -4.246094 8.867188 -4.339844 8.726562 -4.339844 C 8.144531 -4.339844 8.085938 -2.589844 6.015625 -2.589844 C 3.191406 -2.589844 1.65625 -6.277344 1.65625 -8.714844 C 1.65625 -9.152344 1.832031 -10.144531 2.625 -10.144531 C 3.984375 -10.144531 4.742188 -9.03125 6.359375 -8.773438 C 6.574219 -8.738281 6.691406 -8.652344 6.691406 -8.488281 C 6.691406 -8.003906 4.246094 -7.519531 4.246094 -5.746094 C 4.246094 -4.800781 5.046875 -4.042969 6.003906 -4.042969 C 7 -4.042969 7.886719 -4.859375 7.886719 -5.746094 C 7.886719 -5.980469 7.816406 -6.394531 7.625 -6.394531 C 7.496094 -6.394531 7.519531 -6.277344 7.269531 -6.277344 C 6.855469 -6.277344 6.585938 -6.621094 6.585938 -7.011719 C 6.574219 -7.875 7.660156 -8.726562 8.167969 -9.386719 C 8.40625 -9.695312 8.582031 -10.035156 8.6875 -10.285156 C 9.019531 -11.054688 9.1875 -12 8.726562 -12 C 8.359375 -12 8.121094 -11.527344 7.304688 -11.527344 C 6.230469 -11.527344 5.507812 -12 4.585938 -12 C 1.679688 -12 0.296875 -8.84375 0.296875 -5.910156 C 0.296875 -1.832031 2.433594 0.175781 5.082031 0.175781 Z M 5.082031 0.175781 "/></g></g></g><g fill="#000000" fill-opacity="1"><g transform="translate(225.2018, 222.047435)"><g><path d="M 0.296875 -5.910156 C 0.296875 -1.832031 2.433594 0.175781 5.082031 0.175781 C 7.601562 0.175781 9.019531 -2.09375 9.019531 -3.699219 C 9.019531 -4.246094 8.867188 -4.339844 8.726562 -4.339844 C 8.144531 -4.339844 8.085938 -2.589844 6.015625 -2.589844 C 4.375 -2.589844 2.753906 -4.113281 2.046875 -6.289062 C 1.972656 -6.527344 1.914062 -6.953125 2.292969 -6.953125 C 3.273438 -6.953125 4.078125 -4.8125 5.828125 -4.8125 C 7.28125 -4.8125 7.851562 -6.003906 7.851562 -6.796875 C 7.851562 -7.175781 7.742188 -7.472656 7.554688 -7.472656 C 7.351562 -7.472656 7.234375 -7.011719 6.691406 -7.011719 C 5.769531 -7.011719 4.730469 -7.980469 3.558594 -7.980469 C 2.507812 -7.980469 2.234375 -7.367188 1.878906 -7.367188 C 1.558594 -7.367188 1.65625 -8.488281 1.65625 -8.714844 C 1.65625 -9.152344 1.832031 -10.144531 2.625 -10.144531 C 4.160156 -10.144531 4.929688 -8.726562 7.035156 -8.726562 C 7.886719 -8.726562 8.453125 -9.730469 8.6875 -10.285156 C 9.019531 -11.054688 9.1875 -12 8.726562 -12 C 8.359375 -12 8.121094 -11.527344 7.304688 -11.527344 C 6.230469 -11.527344 5.507812 -12 4.585938 -12 C 1.679688 -12 0.296875 -8.84375 0.296875 -5.910156 Z M 0.296875 -5.910156 "/></g></g></g><g fill="#000000" fill-opacity="1"><g transform="translate(234.456268, 222.047435)"><g><path d="M 0.117188 -11.820312 C 0.4375 -11.503906 0.53125 -11.101562 0.53125 -10.425781 L 0.53125 -5.910156 L 0.542969 -3.417969 L 0.542969 -1.394531 C 0.542969 -0.722656 0.449219 -0.320312 0.128906 0 L 3.5 0 C 4.078125 0 4.339844 -0.722656 4.339844 -1.195312 C 4.339844 -3.476562 1.148438 -3.808594 1.148438 -4.976562 C 1.148438 -5.035156 1.195312 -5.214844 1.359375 -5.214844 C 1.9375 -5.214844 5.261719 -3.039062 5.261719 -1.464844 C 5.261719 -0.875 5.058594 -0.699219 5.058594 -0.273438 C 5.058594 -0.0703125 5.25 0 5.402344 0 L 7.957031 0 C 8.535156 0 8.738281 -0.320312 8.738281 -1.074219 C 8.738281 -2.945312 6.230469 -3.808594 4.492188 -4.457031 C 3.121094 -4.976562 1.632812 -5.59375 1.632812 -6.230469 C 1.632812 -6.417969 1.714844 -6.609375 2.035156 -6.609375 C 2.707031 -6.609375 3.296875 -4.65625 5.542969 -4.65625 C 7.910156 -4.65625 8.855469 -6.574219 8.855469 -8.40625 C 8.855469 -10.320312 7.753906 -11.820312 4.882812 -11.820312 Z M 4.195312 -9.351562 C 5.828125 -9.351562 8.238281 -9.246094 8.238281 -8.179688 C 8.238281 -7.117188 6.3125 -7.011719 4.679688 -7.011719 C 3.050781 -7.011719 1.136719 -7.117188 1.136719 -8.179688 C 1.136719 -9.246094 2.992188 -9.351562 4.195312 -9.351562 Z M 4.195312 -9.351562 "/></g></g></g><g fill="#000000" fill-opacity="1"><g transform="translate(243.604358, 222.047435)"><g><path d="M 3.769531 0.175781 C 7.070312 0.175781 8.453125 -2.210938 8.453125 -4.316406 C 8.453125 -6.136719 7.105469 -7.449219 5.117188 -7.636719 C 3.332031 -7.800781 1.097656 -8.039062 1.097656 -9.316406 C 1.097656 -9.765625 1.453125 -10.144531 1.890625 -10.144531 C 3.476562 -10.144531 4.5625 -8.726562 6.300781 -8.726562 C 7.742188 -8.726562 8.820312 -12 7.992188 -12 C 7.625 -12 7.390625 -11.527344 6.574219 -11.527344 C 5.496094 -11.527344 4.777344 -12 3.855469 -12 C 1.867188 -12 0.199219 -10.390625 0.199219 -8.40625 C 0.199219 -5.910156 2.210938 -5.203125 4.550781 -4.480469 C 5.722656 -4.113281 6.773438 -3.546875 6.773438 -2.339844 C 6.773438 -1.429688 5.957031 -0.746094 5.046875 -0.746094 C 3.203125 -0.746094 3.417969 -2.460938 3.582031 -3.699219 C 3.640625 -4.148438 3.332031 -4.386719 2.980469 -4.398438 C 2.363281 -4.421875 0.117188 -3.25 0.117188 -2.542969 C 0.117188 -1.125 1.796875 0.175781 3.769531 0.175781 Z M 3.769531 0.175781 "/></g></g></g></svg>