<svg xmlns="http://www.w3.org/2000/svg" xmlns:xlink="http://www.w3.org/1999/xlink" width="500" zoomAndPan="magnify" viewBox="0 0 375 374.999991" height="500" preserveAspectRatio="xMidYMid meet" version="1.0"><defs><g/><linearGradient x1="0" gradientTransform="matrix(0.75, 0, 0, 0.75, 0.0000045, 0)" y1="0" x2="0" gradientUnits="userSpaceOnUse" y2="499.999979" id="3cb1343694"><stop stop-opacity="1" stop-color="rgb(34.498596%, 93.699646%, 74.899292%)" offset="0"/><stop stop-opacity="1" stop-color="rgb(34.529114%, 93.562317%, 75.061035%)" offset="0.015625"/><stop stop-opacity="1" stop-color="rgb(34.590149%, 93.286133%, 75.386047%)" offset="0.03125"/><stop stop-opacity="1" stop-color="rgb(34.651184%, 93.011475%, 75.71106%)" offset="0.046875"/><stop stop-opacity="1" stop-color="rgb(34.712219%, 92.736816%, 76.036072%)" offset="0.0625"/><stop stop-opacity="1" stop-color="rgb(34.773254%, 92.462158%, 76.361084%)" offset="0.078125"/><stop stop-opacity="1" stop-color="rgb(34.83429%, 92.185974%, 76.686096%)" offset="0.09375"/><stop stop-opacity="1" stop-color="rgb(34.895325%, 91.911316%, 77.011108%)" offset="0.109375"/><stop stop-opacity="1" stop-color="rgb(34.95636%, 91.636658%, 77.336121%)" offset="0.125"/><stop stop-opacity="1" stop-color="rgb(35.017395%, 91.362%, 77.661133%)" offset="0.140625"/><stop stop-opacity="1" stop-color="rgb(35.07843%, 91.085815%, 77.986145%)" offset="0.15625"/><stop stop-opacity="1" stop-color="rgb(35.139465%, 90.811157%, 78.311157%)" offset="0.171875"/><stop stop-opacity="1" stop-color="rgb(35.2005%, 90.536499%, 78.636169%)" offset="0.1875"/><stop stop-opacity="1" stop-color="rgb(35.261536%, 90.261841%, 78.961182%)" offset="0.203125"/><stop stop-opacity="1" stop-color="rgb(35.322571%, 89.987183%, 79.286194%)" offset="0.21875"/><stop stop-opacity="1" stop-color="rgb(35.38208%, 89.710999%, 79.611206%)" offset="0.234375"/><stop stop-opacity="1" stop-color="rgb(35.443115%, 89.43634%, 79.936218%)" offset="0.25"/><stop stop-opacity="1" stop-color="rgb(35.50415%, 89.161682%, 80.26123%)" offset="0.265625"/><stop stop-opacity="1" stop-color="rgb(35.565186%, 88.887024%, 80.586243%)" offset="0.28125"/><stop stop-opacity="1" stop-color="rgb(35.626221%, 88.61084%, 80.911255%)" offset="0.296875"/><stop stop-opacity="1" stop-color="rgb(35.687256%, 88.336182%, 81.236267%)" offset="0.3125"/><stop stop-opacity="1" stop-color="rgb(35.748291%, 88.061523%, 81.561279%)" offset="0.328125"/><stop stop-opacity="1" stop-color="rgb(35.809326%, 87.786865%, 81.886292%)" offset="0.34375"/><stop stop-opacity="1" stop-color="rgb(35.870361%, 87.512207%, 82.211304%)" offset="0.359375"/><stop stop-opacity="1" stop-color="rgb(35.931396%, 87.236023%, 82.536316%)" offset="0.375"/><stop stop-opacity="1" stop-color="rgb(35.992432%, 86.961365%, 82.861328%)" offset="0.390625"/><stop stop-opacity="1" stop-color="rgb(36.053467%, 86.686707%, 83.18634%)" offset="0.40625"/><stop stop-opacity="1" stop-color="rgb(36.114502%, 86.412048%, 83.511353%)" offset="0.421875"/><stop stop-opacity="1" stop-color="rgb(36.175537%, 86.135864%, 83.836365%)" offset="0.4375"/><stop stop-opacity="1" stop-color="rgb(36.236572%, 85.861206%, 84.161377%)" offset="0.453125"/><stop stop-opacity="1" stop-color="rgb(36.296082%, 85.586548%, 84.486389%)" offset="0.46875"/><stop stop-opacity="1" stop-color="rgb(36.357117%, 85.31189%, 84.811401%)" offset="0.484375"/><stop stop-opacity="1" stop-color="rgb(36.418152%, 85.037231%, 85.136414%)" offset="0.5"/><stop stop-opacity="1" stop-color="rgb(36.479187%, 84.761047%, 85.461426%)" offset="0.515625"/><stop stop-opacity="1" stop-color="rgb(36.540222%, 84.486389%, 85.786438%)" offset="0.53125"/><stop stop-opacity="1" stop-color="rgb(36.601257%, 84.211731%, 86.11145%)" offset="0.546875"/><stop stop-opacity="1" stop-color="rgb(36.662292%, 83.937073%, 86.436462%)" offset="0.5625"/><stop stop-opacity="1" stop-color="rgb(36.723328%, 83.660889%, 86.761475%)" offset="0.578125"/><stop stop-opacity="1" stop-color="rgb(36.784363%, 83.38623%, 87.086487%)" offset="0.59375"/><stop stop-opacity="1" stop-color="rgb(36.845398%, 83.111572%, 87.411499%)" offset="0.609375"/><stop stop-opacity="1" stop-color="rgb(36.906433%, 82.836914%, 87.736511%)" offset="0.625"/><stop stop-opacity="1" stop-color="rgb(36.967468%, 82.562256%, 88.061523%)" offset="0.640625"/><stop stop-opacity="1" stop-color="rgb(37.028503%, 82.286072%, 88.386536%)" offset="0.65625"/><stop stop-opacity="1" stop-color="rgb(37.089539%, 82.011414%, 88.711548%)" offset="0.671875"/><stop stop-opacity="1" stop-color="rgb(37.150574%, 81.736755%, 89.03656%)" offset="0.6875"/><stop stop-opacity="1" stop-color="rgb(37.211609%, 81.462097%, 89.361572%)" offset="0.703125"/><stop stop-opacity="1" stop-color="rgb(37.271118%, 81.185913%, 89.686584%)" offset="0.71875"/><stop stop-opacity="1" stop-color="rgb(37.332153%, 80.911255%, 90.011597%)" offset="0.734375"/><stop stop-opacity="1" stop-color="rgb(37.393188%, 80.636597%, 90.336609%)" offset="0.75"/><stop stop-opacity="1" stop-color="rgb(37.454224%, 80.361938%, 90.661621%)" offset="0.765625"/><stop stop-opacity="1" stop-color="rgb(37.515259%, 80.08728%, 90.986633%)" offset="0.78125"/><stop stop-opacity="1" stop-color="rgb(37.576294%, 79.811096%, 91.311646%)" offset="0.796875"/><stop stop-opacity="1" stop-color="rgb(37.637329%, 79.536438%, 91.636658%)" offset="0.8125"/><stop stop-opacity="1" stop-color="rgb(37.698364%, 79.26178%, 91.96167%)" offset="0.828125"/><stop stop-opacity="1" stop-color="rgb(37.759399%, 78.987122%, 92.286682%)" offset="0.84375"/><stop stop-opacity="1" stop-color="rgb(37.820435%, 78.710938%, 92.611694%)" offset="0.859375"/><stop stop-opacity="1" stop-color="rgb(37.88147%, 78.436279%, 92.936707%)" offset="0.875"/><stop stop-opacity="1" stop-color="rgb(37.942505%, 78.161621%, 93.261719%)" offset="0.890625"/><stop stop-opacity="1" stop-color="rgb(38.00354%, 77.886963%, 93.586731%)" offset="0.90625"/><stop stop-opacity="1" stop-color="rgb(38.064575%, 77.612305%, 93.910217%)" offset="0.921875"/><stop stop-opacity="1" stop-color="rgb(38.12561%, 77.336121%, 94.235229%)" offset="0.9375"/><stop stop-opacity="1" stop-color="rgb(38.186646%, 77.061462%, 94.560242%)" offset="0.953125"/><stop stop-opacity="1" stop-color="rgb(38.246155%, 76.786804%, 94.885254%)" offset="0.96875"/><stop stop-opacity="1" stop-color="rgb(38.30719%, 76.512146%, 95.210266%)" offset="0.984375"/><stop stop-opacity="1" stop-color="rgb(38.368225%, 76.235962%, 95.535278%)" offset="1"/></linearGradient><clipPath id="3e8498e240"><path d="M 154.414062 109.800781 L 315.664062 109.800781 L 315.664062 240 L 154.414062 240 Z M 154.414062 109.800781 " clip-rule="nonzero"/></clipPath><clipPath id="985a2e01d3"><path d="M 59.335938 135 L 220.550781 135 L 220.550781 265.195312 L 59.335938 265.195312 Z M 59.335938 135 " clip-rule="nonzero"/></clipPath><clipPath id="0d44c63e7b"><path d="M 197.605469 109.800781 L 220.855469 109.800781 L 220.855469 133.050781 L 197.605469 133.050781 Z M 197.605469 109.800781 " clip-rule="nonzero"/></clipPath></defs><rect x="-37.5" width="450" fill="#ffffff" y="-37.499999" height="449.999989" fill-opacity="1"/><rect x="-37.5" fill="url(#3cb1343694)" width="450" y="-37.499999" height="449.999989"/><g clip-path="url(#3e8498e240)"><path fill="#000000" d="M 207.484375 239.820312 C 188.402344 239.820312 170.488281 237.570312 154.917969 233.613281 C 165.632812 235.242188 177.089844 236.117188 189 236.117188 C 248.703125 236.117188 297.097656 214.082031 297.097656 186.890625 C 297.097656 168.398438 274.695312 152.289062 241.566406 143.867188 C 284.566406 150.371094 315.582031 168.828125 315.582031 190.601562 C 315.582031 217.78125 267.183594 239.820312 207.484375 239.820312 Z M 209.488281 135.699219 L 209.488281 135.300781 C 233.320312 135.300781 235.050781 131.433594 235.050781 109.730469 L 235.449219 109.730469 C 235.449219 131.433594 237.1875 135.300781 261.023438 135.300781 L 261.023438 135.699219 C 237.1875 135.699219 235.449219 139.554688 235.449219 161.261719 L 235.050781 161.261719 C 235.050781 139.554688 233.320312 135.699219 209.488281 135.699219 " fill-opacity="1" fill-rule="evenodd"/></g><g clip-path="url(#985a2e01d3)"><path fill="#000000" d="M 167.515625 135.175781 C 186.597656 135.175781 204.511719 137.421875 220.082031 141.378906 C 209.367188 139.75 197.910156 138.875 185.996094 138.875 C 126.296875 138.875 77.902344 160.914062 77.902344 188.105469 C 77.902344 206.597656 100.304688 222.707031 133.433594 231.128906 C 90.433594 224.625 59.417969 206.164062 59.417969 184.390625 C 59.417969 157.210938 107.816406 135.175781 167.515625 135.175781 Z M 165.511719 239.292969 L 165.511719 239.691406 C 141.675781 239.691406 139.949219 243.558594 139.949219 265.265625 L 139.550781 265.265625 C 139.550781 243.558594 137.8125 239.691406 113.976562 239.691406 L 113.976562 239.292969 C 137.8125 239.292969 139.550781 235.4375 139.550781 213.730469 L 139.949219 213.730469 C 139.949219 235.4375 141.675781 239.292969 165.511719 239.292969 " fill-opacity="1" fill-rule="evenodd"/></g><g clip-path="url(#0d44c63e7b)"><path fill="#000000" d="M 220.855469 121.421875 C 212.136719 123.027344 210.835938 124.328125 209.230469 133.046875 C 207.625 124.328125 206.324219 123.027344 197.605469 121.421875 C 206.324219 119.820312 207.625 118.519531 209.230469 109.800781 C 210.835938 118.519531 212.136719 119.820312 220.855469 121.421875 Z M 220.855469 121.421875 " fill-opacity="1" fill-rule="nonzero"/></g><path fill="#fcfcfd" d="M 11.394531 168.820312 L 12.347656 175.40625 C 12.394531 175.707031 12.53125 175.984375 12.75 176.203125 C 12.96875 176.417969 13.246094 176.566406 13.546875 176.605469 L 20.121094 177.558594 L 13.542969 178.511719 C 13.242188 178.558594 12.964844 178.695312 12.746094 178.914062 C 12.53125 179.128906 12.386719 179.414062 12.347656 179.714844 L 11.394531 186.292969 L 10.441406 179.710938 C 10.394531 179.40625 10.257812 179.132812 10.039062 178.910156 C 9.820312 178.695312 9.542969 178.550781 9.242188 178.511719 L 2.664062 177.558594 L 9.242188 176.601562 C 9.546875 176.554688 9.820312 176.421875 10.039062 176.199219 C 10.253906 175.984375 10.402344 175.703125 10.441406 175.402344 Z M 11.394531 168.820312 " fill-opacity="1" fill-rule="nonzero"/><path fill="#fcfcfd" d="M 283.589844 309.214844 L 285.789062 324.375 C 285.890625 325.074219 286.207031 325.710938 286.710938 326.214844 C 287.21875 326.710938 287.855469 327.042969 288.546875 327.140625 L 303.683594 329.332031 L 288.539062 331.53125 C 287.84375 331.636719 287.207031 331.953125 286.703125 332.457031 C 286.207031 332.953125 285.875 333.597656 285.777344 334.296875 L 283.589844 349.445312 L 281.390625 334.285156 C 281.285156 333.589844 280.972656 332.949219 280.464844 332.445312 C 279.960938 331.953125 279.324219 331.617188 278.628906 331.523438 L 263.496094 329.332031 L 278.640625 327.128906 C 279.335938 327.027344 279.972656 326.710938 280.476562 326.207031 C 280.972656 325.710938 281.304688 325.0625 281.402344 324.367188 Z M 283.589844 309.214844 " fill-opacity="1" fill-rule="nonzero"/><path fill="#fcfcfd" d="M 104.828125 23.144531 C 104.828125 23.464844 104.796875 23.78125 104.734375 24.09375 C 104.671875 24.410156 104.578125 24.714844 104.457031 25.007812 C 104.332031 25.304688 104.183594 25.585938 104.003906 25.851562 C 103.828125 26.117188 103.625 26.363281 103.398438 26.589844 C 103.171875 26.816406 102.925781 27.019531 102.660156 27.199219 C 102.394531 27.375 102.113281 27.527344 101.820312 27.648438 C 101.523438 27.769531 101.21875 27.863281 100.90625 27.925781 C 100.59375 27.988281 100.273438 28.019531 99.957031 28.019531 C 99.636719 28.019531 99.320312 27.988281 99.003906 27.925781 C 98.691406 27.863281 98.386719 27.769531 98.089844 27.648438 C 97.796875 27.527344 97.515625 27.375 97.25 27.199219 C 96.984375 27.019531 96.738281 26.816406 96.511719 26.589844 C 96.285156 26.363281 96.082031 26.117188 95.90625 25.851562 C 95.726562 25.585938 95.578125 25.304688 95.453125 25.007812 C 95.332031 24.714844 95.238281 24.410156 95.175781 24.09375 C 95.113281 23.78125 95.082031 23.464844 95.082031 23.144531 C 95.082031 22.824219 95.113281 22.503906 95.175781 22.191406 C 95.238281 21.878906 95.332031 21.574219 95.453125 21.277344 C 95.578125 20.980469 95.726562 20.699219 95.90625 20.433594 C 96.082031 20.167969 96.285156 19.921875 96.511719 19.695312 C 96.738281 19.46875 96.984375 19.265625 97.25 19.089844 C 97.515625 18.910156 97.796875 18.761719 98.089844 18.636719 C 98.386719 18.515625 98.691406 18.421875 99.003906 18.359375 C 99.320312 18.296875 99.636719 18.265625 99.957031 18.265625 C 100.273438 18.265625 100.59375 18.296875 100.90625 18.359375 C 101.21875 18.421875 101.523438 18.515625 101.820312 18.636719 C 102.113281 18.761719 102.394531 18.910156 102.660156 19.089844 C 102.925781 19.265625 103.171875 19.46875 103.398438 19.695312 C 103.625 19.921875 103.828125 20.167969 104.003906 20.433594 C 104.183594 20.699219 104.332031 20.980469 104.457031 21.277344 C 104.578125 21.574219 104.671875 21.878906 104.734375 22.191406 C 104.796875 22.503906 104.828125 22.824219 104.828125 23.144531 Z M 104.828125 23.144531 " fill-opacity="1" fill-rule="nonzero"/><path fill="#fcfcfd" d="M 199.007812 171.054688 C 199.007812 171.488281 198.925781 171.902344 198.761719 172.300781 C 198.597656 172.699219 198.363281 173.050781 198.058594 173.355469 C 197.753906 173.660156 197.402344 173.894531 197.003906 174.058594 C 196.605469 174.222656 196.191406 174.308594 195.761719 174.308594 C 195.332031 174.308594 194.917969 174.222656 194.519531 174.058594 C 194.121094 173.894531 193.769531 173.660156 193.464844 173.355469 C 193.160156 173.050781 192.925781 172.699219 192.761719 172.300781 C 192.597656 171.902344 192.511719 171.488281 192.511719 171.054688 C 192.511719 170.625 192.597656 170.210938 192.761719 169.8125 C 192.925781 169.414062 193.160156 169.0625 193.464844 168.757812 C 193.769531 168.453125 194.121094 168.21875 194.519531 168.054688 C 194.917969 167.886719 195.332031 167.804688 195.761719 167.804688 C 196.191406 167.804688 196.605469 167.886719 197.003906 168.054688 C 197.402344 168.21875 197.753906 168.453125 198.058594 168.757812 C 198.363281 169.0625 198.597656 169.414062 198.761719 169.8125 C 198.925781 170.210938 199.007812 170.625 199.007812 171.054688 Z M 199.007812 171.054688 " fill-opacity="1" fill-rule="nonzero"/><path fill="#fcfcfd" d="M 338.660156 127.167969 C 338.660156 127.601562 338.574219 128.015625 338.410156 128.414062 C 338.246094 128.8125 338.011719 129.164062 337.707031 129.46875 C 337.402344 129.773438 337.050781 130.007812 336.652344 130.171875 C 336.253906 130.339844 335.839844 130.421875 335.410156 130.421875 C 334.980469 130.421875 334.566406 130.339844 334.167969 130.171875 C 333.769531 130.007812 333.417969 129.773438 333.113281 129.46875 C 332.808594 129.164062 332.574219 128.8125 332.410156 128.414062 C 332.246094 128.015625 332.164062 127.601562 332.164062 127.167969 C 332.164062 126.738281 332.246094 126.324219 332.410156 125.925781 C 332.574219 125.527344 332.808594 125.175781 333.113281 124.871094 C 333.417969 124.566406 333.769531 124.332031 334.167969 124.167969 C 334.566406 124 334.980469 123.917969 335.410156 123.917969 C 335.839844 123.917969 336.253906 124 336.652344 124.167969 C 337.050781 124.332031 337.402344 124.566406 337.707031 124.871094 C 338.011719 125.175781 338.246094 125.527344 338.410156 125.925781 C 338.574219 126.324219 338.660156 126.738281 338.660156 127.167969 Z M 338.660156 127.167969 " fill-opacity="1" fill-rule="nonzero"/><path fill="#fcfcfd" d="M 247.722656 91.410156 C 247.722656 91.839844 247.640625 92.257812 247.476562 92.65625 C 247.3125 93.054688 247.078125 93.40625 246.773438 93.710938 C 246.46875 94.015625 246.117188 94.25 245.71875 94.414062 C 245.320312 94.578125 244.90625 94.660156 244.476562 94.660156 C 244.046875 94.660156 243.632812 94.578125 243.234375 94.414062 C 242.835938 94.25 242.484375 94.015625 242.179688 93.710938 C 241.875 93.40625 241.640625 93.054688 241.476562 92.65625 C 241.3125 92.257812 241.226562 91.839844 241.230469 91.410156 C 241.226562 90.980469 241.3125 90.566406 241.476562 90.167969 C 241.640625 89.769531 241.875 89.417969 242.179688 89.113281 C 242.484375 88.808594 242.835938 88.570312 243.234375 88.40625 C 243.632812 88.242188 244.046875 88.160156 244.476562 88.160156 C 244.90625 88.160156 245.320312 88.242188 245.71875 88.40625 C 246.117188 88.570312 246.46875 88.808594 246.773438 89.113281 C 247.078125 89.417969 247.3125 89.769531 247.476562 90.167969 C 247.640625 90.566406 247.722656 90.980469 247.722656 91.410156 Z M 247.722656 91.410156 " fill-opacity="1" fill-rule="nonzero"/><path fill="#fcfcfd" d="M 247.722656 75.15625 C 247.722656 75.585938 247.640625 76.003906 247.476562 76.402344 C 247.3125 76.796875 247.078125 77.148438 246.773438 77.457031 C 246.46875 77.761719 246.117188 77.996094 245.71875 78.160156 C 245.320312 78.324219 244.90625 78.40625 244.476562 78.40625 C 244.046875 78.40625 243.632812 78.324219 243.234375 78.160156 C 242.835938 77.996094 242.484375 77.761719 242.179688 77.457031 C 241.875 77.148438 241.640625 76.796875 241.476562 76.402344 C 241.3125 76.003906 241.226562 75.585938 241.230469 75.15625 C 241.226562 74.726562 241.3125 74.3125 241.476562 73.914062 C 241.640625 73.515625 241.875 73.164062 242.179688 72.859375 C 242.484375 72.554688 242.835938 72.316406 243.234375 72.152344 C 243.632812 71.988281 244.046875 71.90625 244.476562 71.90625 C 244.90625 71.90625 245.320312 71.988281 245.71875 72.152344 C 246.117188 72.316406 246.46875 72.554688 246.773438 72.859375 C 247.078125 73.164062 247.3125 73.515625 247.476562 73.914062 C 247.640625 74.3125 247.722656 74.726562 247.722656 75.15625 Z M 247.722656 75.15625 " fill-opacity="1" fill-rule="nonzero"/><path fill="#fcfcfd" d="M 184.394531 65.402344 C 184.394531 65.835938 184.3125 66.25 184.148438 66.648438 C 183.980469 67.046875 183.746094 67.398438 183.441406 67.703125 C 183.140625 68.007812 182.789062 68.242188 182.390625 68.40625 C 181.992188 68.574219 181.578125 68.65625 181.148438 68.65625 C 180.714844 68.65625 180.300781 68.574219 179.902344 68.40625 C 179.507812 68.242188 179.15625 68.007812 178.851562 67.703125 C 178.546875 67.398438 178.3125 67.046875 178.144531 66.648438 C 177.980469 66.25 177.898438 65.835938 177.898438 65.402344 C 177.898438 64.972656 177.980469 64.558594 178.144531 64.160156 C 178.3125 63.761719 178.546875 63.410156 178.851562 63.105469 C 179.15625 62.800781 179.507812 62.566406 179.902344 62.402344 C 180.300781 62.234375 180.714844 62.152344 181.148438 62.152344 C 181.578125 62.152344 181.992188 62.234375 182.390625 62.402344 C 182.789062 62.566406 183.140625 62.800781 183.441406 63.105469 C 183.746094 63.410156 183.980469 63.761719 184.148438 64.160156 C 184.3125 64.558594 184.394531 64.972656 184.394531 65.402344 Z M 184.394531 65.402344 " fill-opacity="1" fill-rule="nonzero"/><path fill="#fcfcfd" d="M 350.023438 242.574219 C 350.023438 243.003906 349.941406 243.421875 349.777344 243.820312 C 349.613281 244.21875 349.378906 244.570312 349.074219 244.875 C 348.769531 245.179688 348.417969 245.414062 348.019531 245.578125 C 347.621094 245.742188 347.207031 245.824219 346.777344 245.824219 C 346.347656 245.824219 345.933594 245.742188 345.535156 245.578125 C 345.136719 245.414062 344.785156 245.179688 344.480469 244.875 C 344.175781 244.570312 343.941406 244.21875 343.777344 243.820312 C 343.613281 243.421875 343.53125 243.003906 343.53125 242.574219 C 343.53125 242.144531 343.613281 241.730469 343.777344 241.332031 C 343.941406 240.933594 344.175781 240.582031 344.480469 240.277344 C 344.785156 239.972656 345.136719 239.734375 345.535156 239.570312 C 345.933594 239.40625 346.347656 239.324219 346.777344 239.324219 C 347.207031 239.324219 347.621094 239.40625 348.019531 239.570312 C 348.417969 239.734375 348.769531 239.972656 349.074219 240.277344 C 349.378906 240.582031 349.613281 240.933594 349.777344 241.332031 C 349.941406 241.730469 350.023438 242.144531 350.023438 242.574219 Z M 350.023438 242.574219 " fill-opacity="1" fill-rule="nonzero"/><path fill="#fcfcfd" d="M 56.648438 363.976562 C 56.648438 364.40625 56.609375 364.832031 56.523438 365.253906 C 56.441406 365.671875 56.316406 366.082031 56.152344 366.476562 C 55.988281 366.875 55.785156 367.25 55.550781 367.609375 C 55.3125 367.964844 55.039062 368.296875 54.738281 368.597656 C 54.433594 368.902344 54.105469 369.171875 53.746094 369.410156 C 53.390625 369.648438 53.015625 369.851562 52.617188 370.015625 C 52.222656 370.179688 51.8125 370.304688 51.394531 370.386719 C 50.972656 370.472656 50.546875 370.511719 50.121094 370.511719 C 49.691406 370.511719 49.265625 370.472656 48.847656 370.386719 C 48.425781 370.304688 48.015625 370.179688 47.621094 370.015625 C 47.226562 369.851562 46.847656 369.648438 46.492188 369.410156 C 46.136719 369.171875 45.804688 368.902344 45.503906 368.597656 C 45.199219 368.296875 44.929688 367.964844 44.691406 367.609375 C 44.453125 367.25 44.25 366.875 44.085938 366.476562 C 43.921875 366.082031 43.800781 365.671875 43.714844 365.253906 C 43.632812 364.832031 43.589844 364.40625 43.589844 363.976562 C 43.589844 363.546875 43.632812 363.121094 43.714844 362.703125 C 43.800781 362.28125 43.921875 361.871094 44.085938 361.476562 C 44.25 361.078125 44.453125 360.703125 44.691406 360.347656 C 44.929688 359.988281 45.199219 359.660156 45.503906 359.355469 C 45.804688 359.050781 46.136719 358.78125 46.492188 358.542969 C 46.847656 358.304688 47.226562 358.101562 47.621094 357.9375 C 48.015625 357.773438 48.425781 357.652344 48.847656 357.566406 C 49.265625 357.484375 49.691406 357.441406 50.121094 357.441406 C 50.546875 357.441406 50.972656 357.484375 51.394531 357.566406 C 51.8125 357.652344 52.222656 357.773438 52.617188 357.9375 C 53.015625 358.101562 53.390625 358.304688 53.746094 358.542969 C 54.105469 358.78125 54.433594 359.050781 54.738281 359.355469 C 55.039062 359.660156 55.3125 359.988281 55.550781 360.347656 C 55.785156 360.703125 55.988281 361.078125 56.152344 361.476562 C 56.316406 361.871094 56.441406 362.28125 56.523438 362.703125 C 56.609375 363.121094 56.648438 363.546875 56.648438 363.976562 Z M 56.648438 363.976562 " fill-opacity="1" fill-rule="nonzero"/><path fill="#fcfcfd" d="M 164.910156 171.054688 C 164.910156 171.375 164.878906 171.695312 164.816406 172.007812 C 164.753906 172.320312 164.660156 172.625 164.539062 172.921875 C 164.414062 173.21875 164.265625 173.5 164.085938 173.765625 C 163.910156 174.03125 163.707031 174.277344 163.480469 174.503906 C 163.253906 174.730469 163.007812 174.933594 162.742188 175.109375 C 162.476562 175.289062 162.195312 175.4375 161.902344 175.5625 C 161.605469 175.683594 161.300781 175.777344 160.988281 175.839844 C 160.671875 175.902344 160.355469 175.933594 160.035156 175.933594 C 159.71875 175.933594 159.398438 175.902344 159.085938 175.839844 C 158.773438 175.777344 158.46875 175.683594 158.171875 175.5625 C 157.878906 175.4375 157.597656 175.289062 157.332031 175.109375 C 157.066406 174.933594 156.820312 174.730469 156.59375 174.503906 C 156.367188 174.277344 156.164062 174.03125 155.988281 173.765625 C 155.808594 173.5 155.660156 173.21875 155.535156 172.921875 C 155.414062 172.625 155.320312 172.320312 155.257812 172.007812 C 155.195312 171.695312 155.164062 171.375 155.164062 171.054688 C 155.164062 170.734375 155.195312 170.417969 155.257812 170.105469 C 155.320312 169.789062 155.414062 169.484375 155.535156 169.191406 C 155.660156 168.894531 155.808594 168.613281 155.988281 168.347656 C 156.164062 168.082031 156.367188 167.835938 156.59375 167.609375 C 156.820312 167.382812 157.066406 167.179688 157.332031 167 C 157.597656 166.824219 157.878906 166.671875 158.171875 166.550781 C 158.46875 166.429688 158.773438 166.335938 159.085938 166.273438 C 159.398438 166.210938 159.71875 166.179688 160.035156 166.179688 C 160.355469 166.179688 160.671875 166.210938 160.988281 166.273438 C 161.300781 166.335938 161.605469 166.429688 161.902344 166.550781 C 162.195312 166.671875 162.476562 166.824219 162.742188 167 C 163.007812 167.179688 163.253906 167.382812 163.480469 167.609375 C 163.707031 167.835938 163.910156 168.082031 164.085938 168.347656 C 164.265625 168.613281 164.414062 168.894531 164.539062 169.191406 C 164.660156 169.484375 164.753906 169.789062 164.816406 170.105469 C 164.878906 170.417969 164.910156 170.734375 164.910156 171.054688 Z M 164.910156 171.054688 " fill-opacity="1" fill-rule="nonzero"/><path fill="#fcfcfd" d="M 106.449219 123.917969 C 106.449219 124.238281 106.417969 124.554688 106.355469 124.871094 C 106.292969 125.183594 106.203125 125.488281 106.078125 125.785156 C 105.957031 126.082031 105.808594 126.363281 105.628906 126.628906 C 105.453125 126.894531 105.25 127.140625 105.023438 127.367188 C 104.796875 127.59375 104.550781 127.796875 104.285156 127.972656 C 104.019531 128.152344 103.738281 128.300781 103.441406 128.425781 C 103.148438 128.546875 102.84375 128.640625 102.53125 128.703125 C 102.214844 128.765625 101.898438 128.796875 101.578125 128.796875 C 101.257812 128.796875 100.941406 128.765625 100.628906 128.703125 C 100.316406 128.640625 100.011719 128.546875 99.714844 128.425781 C 99.417969 128.300781 99.136719 128.152344 98.871094 127.972656 C 98.605469 127.796875 98.359375 127.59375 98.132812 127.367188 C 97.910156 127.140625 97.707031 126.894531 97.527344 126.628906 C 97.351562 126.363281 97.199219 126.082031 97.078125 125.785156 C 96.957031 125.488281 96.863281 125.183594 96.800781 124.871094 C 96.738281 124.554688 96.707031 124.238281 96.707031 123.917969 C 96.707031 123.597656 96.738281 123.28125 96.800781 122.96875 C 96.863281 122.652344 96.957031 122.347656 97.078125 122.054688 C 97.199219 121.757812 97.351562 121.476562 97.527344 121.210938 C 97.707031 120.945312 97.910156 120.699219 98.132812 120.472656 C 98.359375 120.246094 98.605469 120.042969 98.871094 119.863281 C 99.136719 119.6875 99.417969 119.535156 99.714844 119.414062 C 100.011719 119.292969 100.316406 119.199219 100.628906 119.136719 C 100.941406 119.074219 101.257812 119.042969 101.578125 119.042969 C 101.898438 119.042969 102.214844 119.074219 102.53125 119.136719 C 102.84375 119.199219 103.148438 119.292969 103.441406 119.414062 C 103.738281 119.535156 104.019531 119.6875 104.285156 119.863281 C 104.550781 120.042969 104.796875 120.246094 105.023438 120.472656 C 105.25 120.699219 105.453125 120.945312 105.628906 121.210938 C 105.808594 121.476562 105.957031 121.757812 106.078125 122.054688 C 106.203125 122.347656 106.292969 122.652344 106.355469 122.96875 C 106.417969 123.28125 106.449219 123.597656 106.449219 123.917969 Z M 106.449219 123.917969 " fill-opacity="1" fill-rule="nonzero"/><path fill="#fcfcfd" d="M 312.296875 248.839844 C 312.296875 249.1875 312.230469 249.523438 312.09375 249.847656 C 311.960938 250.167969 311.773438 250.453125 311.527344 250.699219 C 311.277344 250.945312 310.996094 251.136719 310.671875 251.269531 C 310.351562 251.402344 310.015625 251.46875 309.667969 251.46875 C 309.316406 251.46875 308.984375 251.402344 308.660156 251.269531 C 308.339844 251.136719 308.054688 250.945312 307.808594 250.699219 C 307.5625 250.453125 307.371094 250.167969 307.238281 249.847656 C 307.105469 249.523438 307.039062 249.1875 307.039062 248.839844 C 307.039062 248.488281 307.105469 248.152344 307.238281 247.832031 C 307.371094 247.507812 307.5625 247.226562 307.808594 246.976562 C 308.054688 246.730469 308.339844 246.542969 308.660156 246.40625 C 308.984375 246.273438 309.316406 246.207031 309.667969 246.207031 C 310.015625 246.207031 310.351562 246.273438 310.671875 246.40625 C 310.996094 246.542969 311.277344 246.730469 311.527344 246.976562 C 311.773438 247.226562 311.960938 247.507812 312.09375 247.832031 C 312.230469 248.152344 312.296875 248.488281 312.296875 248.839844 Z M 312.296875 248.839844 " fill-opacity="1" fill-rule="nonzero"/><path fill="#fcfcfd" d="M 355.035156 177.558594 L 355.992188 184.140625 C 356.035156 184.445312 356.171875 184.722656 356.390625 184.941406 C 356.613281 185.15625 356.890625 185.300781 357.191406 185.34375 L 363.765625 186.292969 L 357.1875 187.25 C 356.882812 187.296875 356.605469 187.433594 356.390625 187.652344 C 356.175781 187.867188 356.027344 188.148438 355.988281 188.449219 L 355.035156 195.03125 L 354.082031 188.445312 C 354.035156 188.144531 353.898438 187.867188 353.679688 187.648438 C 353.460938 187.433594 353.183594 187.289062 352.882812 187.246094 L 346.308594 186.292969 L 352.886719 185.339844 C 353.1875 185.292969 353.464844 185.15625 353.683594 184.9375 C 353.898438 184.722656 354.042969 184.441406 354.085938 184.140625 Z M 355.035156 177.558594 " fill-opacity="1" fill-rule="nonzero"/><path stroke-linecap="butt" transform="matrix(0.731065, 0, 0, 0.731065, 73.959945, 171.12015)" fill="none" stroke-linejoin="miter" d="M 3.816423 43.99744 L 18.109561 43.99744 C 16.960766 42.843302 16.6188 41.395287 16.6188 38.969461 L 16.6188 6.370421 C 16.6188 3.944595 16.960766 2.49658 18.109561 1.342442 L 3.816423 1.342442 C 4.975904 2.49658 5.307184 3.944595 5.307184 6.370421 L 5.307184 38.969461 C 5.307184 41.395287 4.975904 42.843302 3.816423 43.99744 Z M 18.959134 43.99744 L 27.876983 43.99744 C 30.393644 43.99744 32.616428 42.843302 32.616428 40.251836 C 32.616428 34.107123 22.929153 27.796769 22.929153 14.139476 C 22.929153 12.173167 23.094793 9.485523 24.500063 9.485523 C 26.044256 9.485523 27.572419 14.566934 29.159358 19.252946 C 30.094424 22.074171 32.739322 29.490573 33.84537 32.867494 C 35.726187 38.627495 37.382588 43.99744 42.341105 43.99744 L 53.51914 43.99744 C 52.359659 42.843302 52.017693 41.395287 52.017693 38.969461 L 52.017693 6.370421 C 52.017693 3.944595 52.359659 2.49658 53.51914 1.342442 L 44.601291 1.342442 C 42.08463 1.342442 39.861846 2.49658 39.861846 5.088046 C 39.861846 11.232759 49.549121 17.548456 49.549121 31.200406 C 49.549121 33.166715 49.372794 35.854359 47.967525 35.854359 C 46.434018 35.854359 44.895168 30.772948 43.318916 26.086936 L 39.311494 14.139476 C 35.469712 2.704965 34.657541 1.342442 31.676019 1.342442 L 18.959134 1.342442 C 20.118615 2.49658 20.449895 3.944595 20.449895 6.370421 L 20.449895 38.969461 C 20.449895 41.395287 20.118615 42.843302 18.959134 43.99744 Z M 54.36337 1.342442 C 55.811385 2.49658 56.158695 3.944595 56.158695 6.370421 L 56.158695 38.969461 C 56.158695 41.395287 55.811385 42.843302 54.667934 43.99744 L 66.82378 43.99744 C 68.912983 43.99744 69.853391 41.395287 69.853391 39.690797 C 69.853391 31.462224 58.499029 31.376733 58.499029 19.984968 C 58.499029 19.172798 59.060068 18.921666 59.439438 18.921666 C 62.976655 18.921666 65.883372 26.637289 72.193726 26.637289 C 77.44612 26.637289 79.487233 22.325303 79.487233 19.472018 C 79.487233 18.109495 79.113207 17.035506 78.423931 17.035506 C 77.697252 17.035506 77.28048 18.702593 75.308828 18.702593 C 71.98534 18.702593 68.22905 15.202778 64.007899 15.202778 C 60.978288 15.202778 60.080625 16.784374 59.060068 16.784374 C 58.584521 16.784374 58.499029 16.399662 58.499029 16.100441 L 58.499029 13.450199 C 58.499029 11.836544 59.65851 9.955727 61.699624 9.955727 L 76.468309 9.955727 C 81.453542 9.955727 81.838254 13.241813 83.206121 13.241813 C 84.018292 13.241813 84.183932 12.600626 84.183932 11.537323 L 84.183932 1.342442 Z M 108.196403 43.99744 C 111.61607 43.99744 115.874623 44.387496 115.874623 40.502968 C 115.874623 34.021631 106.240781 34.107123 106.240781 30.302744 C 106.240781 25.744969 115.580746 27.577697 115.580746 22.672613 C 115.580746 20.150608 108.581116 17.970571 105.856069 17.970571 C 102.612729 17.970571 100.010576 20.962779 100.010576 24.15803 C 100.010576 31.499627 107.218592 32.178217 107.218592 37.852726 C 107.218592 40.540371 104.311876 41.865491 101.624231 41.865491 C 94.336067 41.865491 90.627866 32.91024 90.627866 28.26163 C 90.627866 18.360627 102.992098 11.409086 102.992098 5.141478 C 102.992098 3.431645 102.008944 1.342442 98.551875 1.342442 L 85.460963 1.342442 C 86.615101 2.49658 86.951724 3.944595 86.951724 6.370421 L 86.951724 38.969461 C 86.951724 41.395287 86.615101 42.843302 85.460963 43.99744 Z M 118.519522 6.370421 L 118.519522 28.26163 C 118.519522 41.395287 127.603011 44.633284 133.827873 44.633284 C 140.058078 44.633284 149.275148 41.395287 149.275148 28.26163 L 149.275148 6.370421 C 149.275148 3.944595 149.617115 2.49658 151.06513 1.342442 L 136.392623 1.342442 C 137.840638 2.49658 138.182605 3.944595 138.182605 6.370421 L 138.182605 27.315879 C 138.182605 32.520184 134.68279 35.29332 130.466982 35.29332 C 126.11225 35.29332 120.614068 33.294952 120.614068 27.876918 C 120.614068 19.514764 132.171472 14.524188 132.171472 5.0453 C 132.171472 3.431645 131.193661 1.342442 129.446425 1.342442 L 116.72954 1.342442 C 118.177555 2.49658 118.519522 3.944595 118.519522 6.370421 Z M 152.555891 22.672613 C 152.555891 37.387865 160.2822 44.633284 169.835894 44.633284 C 178.924727 44.633284 184.038197 36.447457 184.038197 30.650054 C 184.038197 28.689089 183.487844 28.347122 182.974894 28.347122 C 180.885692 28.347122 180.677306 34.657475 173.207472 34.657475 C 167.281831 34.657475 161.430995 29.159293 158.876931 21.304746 C 158.615113 20.449829 158.406727 18.921666 159.774594 18.921666 C 163.311811 18.921666 166.207841 26.637289 172.518195 26.637289 C 177.770589 26.637289 179.822389 22.325303 179.822389 19.472018 C 179.822389 18.109495 179.437677 17.035506 178.7484 17.035506 C 178.032407 17.035506 177.604949 18.702593 175.633298 18.702593 C 172.315152 18.702593 168.553519 15.202778 164.332368 15.202778 C 160.533332 15.202778 159.555521 17.420218 158.273146 17.420218 C 157.129695 17.420218 157.460975 13.370051 157.460975 12.55788 C 157.460975 10.986971 158.107506 7.401664 160.96079 7.401664 C 166.512406 7.401664 169.280198 12.515134 176.872927 12.515134 C 179.945283 12.515134 181.997083 8.892425 182.852 6.883371 C 184.038197 4.110235 184.641982 0.706598 182.974894 0.706598 C 181.655117 0.706598 180.8002 2.400401 177.850738 2.400401 C 173.976897 2.400401 171.374744 0.706598 168.040569 0.706598 C 157.55181 0.706598 152.555891 12.087676 152.555891 22.672613 Z M 185.320572 43.99744 L 194.233078 43.99744 C 196.755082 43.99744 198.972522 42.843302 198.972522 40.251836 C 198.972522 34.107123 189.285248 27.796769 189.285248 14.139476 C 189.285248 12.173167 189.456231 9.485523 190.8615 9.485523 C 192.40035 9.485523 193.933857 14.566934 195.515453 19.252946 C 196.455861 22.074171 199.10076 29.490573 200.201465 32.867494 C 202.087625 38.627495 203.744026 43.99744 208.702542 43.99744 L 219.875234 43.99744 C 218.721097 42.843302 218.37913 41.395287 218.37913 38.969461 L 218.37913 6.370421 C 218.37913 3.944595 218.721097 2.49658 219.875234 1.342442 L 210.962728 1.342442 C 208.440724 1.342442 206.223284 2.49658 206.223284 5.088046 C 206.223284 11.232759 215.910558 17.548456 215.910558 31.200406 C 215.910558 33.166715 215.734232 35.854359 214.323619 35.854359 C 212.795456 35.854359 211.251263 30.772948 209.680353 26.086936 L 205.672932 14.139476 C 201.825807 2.704965 201.013636 1.342442 198.037457 1.342442 L 185.320572 1.342442 C 186.474709 2.49658 186.811333 3.944595 186.811333 6.370421 L 186.811333 38.969461 C 186.811333 41.395287 186.474709 42.843302 185.320572 43.99744 Z M 238.640655 44.633284 C 247.729488 44.633284 252.842958 36.148236 252.842958 30.650054 C 252.842958 28.689089 252.292605 28.347122 251.779655 28.347122 C 249.690453 28.347122 249.482067 34.657475 242.012233 34.657475 C 231.817351 34.657475 226.265736 21.347492 226.265736 12.55788 C 226.265736 10.986971 226.912267 7.401664 229.765552 7.401664 C 234.670636 7.401664 237.401026 11.409086 243.251862 12.349494 C 244.0106 12.472388 244.438059 12.776952 244.438059 13.370051 C 244.438059 15.117287 235.605701 16.869866 235.605701 23.265711 C 235.605701 26.680034 238.512418 29.410424 241.969487 29.410424 C 245.554793 29.410424 248.750044 26.471648 248.750044 23.265711 C 248.750044 22.410794 248.488226 20.920033 247.814979 20.920033 C 247.344775 20.920033 247.430267 21.347492 246.532604 21.347492 C 245.041844 21.347492 244.053346 20.107863 244.053346 18.702593 C 244.0106 15.587491 247.937874 12.515134 249.770601 10.132054 C 250.625518 9.015319 251.272049 7.786376 251.656761 6.883371 C 252.842958 4.110235 253.446743 0.706598 251.779655 0.706598 C 250.459878 0.706598 249.604961 2.400401 246.655499 2.400401 C 242.781658 2.400401 240.179505 0.706598 236.84533 0.706598 C 226.356571 0.706598 221.360652 12.087676 221.360652 22.672613 C 221.360652 37.387865 229.086961 44.633284 238.640655 44.633284 Z M 254.125333 43.99744 L 268.413128 43.99744 C 267.269677 42.843302 266.922367 41.395287 266.922367 38.969461 L 266.922367 6.370421 C 266.922367 3.944595 267.269677 2.49658 268.413128 1.342442 L 254.125333 1.342442 C 255.27947 2.49658 255.616094 3.944595 255.616094 6.370421 L 255.616094 38.969461 C 255.616094 41.395287 255.27947 42.843302 254.125333 43.99744 Z M 268.840586 43.99744 L 283.256618 43.99744 C 285.773279 43.99744 286.366377 41.480779 286.366377 39.482411 C 286.366377 35.93985 284.918362 32.440035 283.432945 28.854729 L 289.700552 28.854729 C 290.555469 33.72241 291.105822 37.938218 291.105822 39.354174 C 291.105822 41.096066 290.555469 42.896735 289.577658 43.99744 L 307.188941 43.99744 C 305.436362 42.554768 304.501297 39.263339 303.437994 35.720778 C 299.980925 24.15803 298.655804 17.50571 296.523856 5.654428 C 296.229978 3.98734 296.523856 2.234761 297.458921 1.342442 L 278.565263 1.342442 C 279.505671 2.234761 279.804892 3.98734 279.505671 5.654428 C 277.36838 17.50571 276.048602 24.15803 272.591533 35.720778 C 271.52823 39.263339 270.587822 42.554768 268.840586 43.99744 Z M 282.620774 26.941853 C 281.252907 23.564932 280.013278 20.065117 280.013278 16.31417 C 280.013278 12.899847 280.7453 9.704596 282.96274 9.704596 C 285.345821 9.704596 287.74493 18.745339 289.31584 26.941853 Z M 282.620774 26.941853 " stroke="#000000" stroke-width="10.080008" stroke-opacity="1" stroke-miterlimit="4"/><g fill="#ffffff" fill-opacity="1"><g transform="translate(76.438714, 203.287028)"><g><path d="M 0.3125 0 L 10.757812 0 C 9.917969 -0.84375 9.667969 -1.902344 9.667969 -3.679688 L 9.667969 -27.507812 C 9.667969 -29.285156 9.917969 -30.34375 10.757812 -31.1875 L 0.3125 -31.1875 C 1.152344 -30.34375 1.402344 -29.285156 1.402344 -27.507812 L 1.402344 -3.679688 C 1.402344 -1.902344 1.152344 -0.84375 0.3125 0 Z M 0.3125 0 "/></g></g></g><g fill="#ffffff" fill-opacity="1"><g transform="translate(87.509197, 203.287028)"><g><path d="M 0.3125 0 L 6.828125 0 C 8.671875 0 10.292969 -0.84375 10.292969 -2.746094 C 10.292969 -7.234375 3.210938 -11.851562 3.210938 -21.832031 C 3.210938 -23.265625 3.335938 -25.230469 4.367188 -25.230469 C 5.488281 -25.230469 6.613281 -21.519531 7.765625 -18.089844 C 8.453125 -16.03125 10.386719 -10.605469 11.195312 -8.140625 C 12.570312 -3.929688 13.785156 0 17.402344 0 L 25.574219 0 C 24.730469 -0.84375 24.480469 -1.902344 24.480469 -3.679688 L 24.480469 -27.507812 C 24.480469 -29.285156 24.730469 -30.34375 25.574219 -31.1875 L 19.054688 -31.1875 C 17.214844 -31.1875 15.59375 -30.34375 15.59375 -28.441406 C 15.59375 -23.953125 22.671875 -19.335938 22.671875 -9.355469 C 22.671875 -7.921875 22.546875 -5.957031 21.519531 -5.957031 C 20.394531 -5.957031 19.273438 -9.667969 18.121094 -13.097656 L 15.1875 -21.832031 C 12.382812 -30.1875 11.789062 -31.1875 9.605469 -31.1875 L 0.3125 -31.1875 C 1.152344 -30.34375 1.402344 -29.285156 1.402344 -27.507812 L 1.402344 -3.679688 C 1.402344 -1.902344 1.152344 -0.84375 0.3125 0 Z M 0.3125 0 "/></g></g></g><g fill="#ffffff" fill-opacity="1"><g transform="translate(113.3923, 203.287028)"><g><path d="M 0.3125 -31.1875 C 1.371094 -30.34375 1.621094 -29.285156 1.621094 -27.507812 L 1.621094 -3.679688 C 1.621094 -1.902344 1.371094 -0.84375 0.53125 0 L 9.417969 0 C 10.945312 0 11.632812 -1.902344 11.632812 -3.148438 C 11.632812 -9.167969 3.335938 -9.230469 3.335938 -17.558594 C 3.335938 -18.152344 3.742188 -18.339844 4.023438 -18.339844 C 6.613281 -18.339844 8.734375 -12.691406 13.347656 -12.691406 C 17.183594 -12.691406 18.679688 -15.84375 18.679688 -17.933594 C 18.679688 -18.929688 18.402344 -19.710938 17.902344 -19.710938 C 17.371094 -19.710938 17.058594 -18.492188 15.625 -18.492188 C 13.191406 -18.492188 10.449219 -21.050781 7.359375 -21.050781 C 5.144531 -21.050781 4.492188 -19.898438 3.742188 -19.898438 C 3.398438 -19.898438 3.335938 -20.179688 3.335938 -20.394531 L 3.335938 -22.328125 C 3.335938 -23.515625 4.179688 -24.886719 5.675781 -24.886719 L 16.46875 -24.886719 C 20.117188 -24.886719 20.394531 -22.484375 21.394531 -22.484375 C 21.988281 -22.484375 22.113281 -22.953125 22.113281 -23.734375 L 22.113281 -31.1875 Z M 0.3125 -31.1875 "/></g></g></g><g fill="#ffffff" fill-opacity="1"><g transform="translate(136.125772, 203.287028)"><g><path d="M 16.933594 0 C 19.429688 0 22.546875 0.28125 22.546875 -2.558594 C 22.546875 -7.296875 15.5 -7.234375 15.5 -10.011719 C 15.5 -13.347656 22.328125 -12.007812 22.328125 -15.59375 C 22.328125 -17.433594 17.214844 -19.023438 15.21875 -19.023438 C 12.847656 -19.023438 10.945312 -16.839844 10.945312 -14.503906 C 10.945312 -9.136719 16.21875 -8.640625 16.21875 -4.492188 C 16.21875 -2.527344 14.097656 -1.558594 12.132812 -1.558594 C 6.796875 -1.558594 4.085938 -8.109375 4.085938 -11.507812 C 4.085938 -18.742188 13.128906 -23.828125 13.128906 -28.410156 C 13.128906 -29.660156 12.414062 -31.1875 9.886719 -31.1875 L 0.3125 -31.1875 C 1.152344 -30.34375 1.402344 -29.285156 1.402344 -27.507812 L 1.402344 -3.679688 C 1.402344 -1.902344 1.152344 -0.84375 0.3125 0 Z M 16.933594 0 "/></g></g></g><g fill="#ffffff" fill-opacity="1"><g transform="translate(158.983982, 203.287028)"><g><path d="M 1.621094 -27.507812 L 1.621094 -11.507812 C 1.621094 -1.902344 8.265625 0.46875 12.816406 0.46875 C 17.371094 0.46875 24.109375 -1.902344 24.109375 -11.507812 L 24.109375 -27.507812 C 24.109375 -29.285156 24.355469 -30.34375 25.417969 -31.1875 L 14.6875 -31.1875 C 15.75 -30.34375 16 -29.285156 16 -27.507812 L 16 -12.195312 C 16 -8.390625 13.441406 -6.363281 10.355469 -6.363281 C 7.171875 -6.363281 3.148438 -7.828125 3.148438 -11.789062 C 3.148438 -17.902344 11.601562 -21.550781 11.601562 -28.472656 C 11.601562 -29.660156 10.882812 -31.1875 9.605469 -31.1875 L 0.3125 -31.1875 C 1.371094 -30.34375 1.621094 -29.285156 1.621094 -27.507812 Z M 1.621094 -27.507812 "/></g></g></g><g fill="#ffffff" fill-opacity="1"><g transform="translate(184.711157, 203.287028)"><g><path d="M 0.78125 -15.59375 C 0.78125 -4.835938 6.425781 0.46875 13.410156 0.46875 C 20.054688 0.46875 23.796875 -5.519531 23.796875 -9.761719 C 23.796875 -11.195312 23.390625 -11.445312 23.015625 -11.445312 C 21.488281 -11.445312 21.332031 -6.828125 15.875 -6.828125 C 11.539062 -6.828125 7.265625 -10.851562 5.394531 -16.589844 C 5.207031 -17.214844 5.050781 -18.339844 6.050781 -18.339844 C 8.640625 -18.339844 10.757812 -12.691406 15.375 -12.691406 C 19.210938 -12.691406 20.707031 -15.84375 20.707031 -17.933594 C 20.707031 -18.929688 20.425781 -19.710938 19.929688 -19.710938 C 19.398438 -19.710938 19.085938 -18.492188 17.652344 -18.492188 C 15.21875 -18.492188 12.476562 -21.050781 9.386719 -21.050781 C 6.613281 -21.050781 5.894531 -19.429688 4.957031 -19.429688 C 4.117188 -19.429688 4.367188 -22.390625 4.367188 -22.984375 C 4.367188 -24.140625 4.835938 -26.757812 6.921875 -26.757812 C 10.976562 -26.757812 13.003906 -23.015625 18.554688 -23.015625 C 20.800781 -23.015625 22.300781 -25.667969 22.921875 -27.132812 C 23.796875 -29.160156 24.234375 -31.65625 23.015625 -31.65625 C 22.050781 -31.65625 21.425781 -30.40625 19.273438 -30.40625 C 16.4375 -30.40625 14.535156 -31.65625 12.101562 -31.65625 C 4.429688 -31.65625 0.78125 -23.328125 0.78125 -15.59375 Z M 0.78125 -15.59375 "/></g></g></g><g fill="#ffffff" fill-opacity="1"><g transform="translate(209.128593, 203.287028)"><g><path d="M 0.3125 0 L 6.828125 0 C 8.671875 0 10.292969 -0.84375 10.292969 -2.746094 C 10.292969 -7.234375 3.210938 -11.851562 3.210938 -21.832031 C 3.210938 -23.265625 3.335938 -25.230469 4.367188 -25.230469 C 5.488281 -25.230469 6.613281 -21.519531 7.765625 -18.089844 C 8.453125 -16.03125 10.386719 -10.605469 11.195312 -8.140625 C 12.570312 -3.929688 13.785156 0 17.402344 0 L 25.574219 0 C 24.730469 -0.84375 24.480469 -1.902344 24.480469 -3.679688 L 24.480469 -27.507812 C 24.480469 -29.285156 24.730469 -30.34375 25.574219 -31.1875 L 19.054688 -31.1875 C 17.214844 -31.1875 15.59375 -30.34375 15.59375 -28.441406 C 15.59375 -23.953125 22.671875 -19.335938 22.671875 -9.355469 C 22.671875 -7.921875 22.546875 -5.957031 21.519531 -5.957031 C 20.394531 -5.957031 19.273438 -9.667969 18.121094 -13.097656 L 15.1875 -21.832031 C 12.382812 -30.1875 11.789062 -31.1875 9.605469 -31.1875 L 0.3125 -31.1875 C 1.152344 -30.34375 1.402344 -29.285156 1.402344 -27.507812 L 1.402344 -3.679688 C 1.402344 -1.902344 1.152344 -0.84375 0.3125 0 Z M 0.3125 0 "/></g></g></g><g fill="#ffffff" fill-opacity="1"><g transform="translate(235.011696, 203.287028)"><g><path d="M 13.410156 0.46875 C 20.054688 0.46875 23.796875 -5.738281 23.796875 -9.761719 C 23.796875 -11.195312 23.390625 -11.445312 23.015625 -11.445312 C 21.488281 -11.445312 21.332031 -6.828125 15.875 -6.828125 C 8.421875 -6.828125 4.367188 -16.558594 4.367188 -22.984375 C 4.367188 -24.140625 4.835938 -26.757812 6.921875 -26.757812 C 10.511719 -26.757812 12.507812 -23.828125 16.777344 -23.140625 C 17.339844 -23.046875 17.652344 -22.828125 17.652344 -22.390625 C 17.652344 -21.113281 11.195312 -19.835938 11.195312 -15.15625 C 11.195312 -12.660156 13.316406 -10.667969 15.84375 -10.667969 C 18.460938 -10.667969 20.800781 -12.816406 20.800781 -15.15625 C 20.800781 -15.78125 20.613281 -16.871094 20.117188 -16.871094 C 19.773438 -16.871094 19.835938 -16.558594 19.179688 -16.558594 C 18.089844 -16.558594 17.371094 -17.464844 17.371094 -18.492188 C 17.339844 -20.769531 20.210938 -23.015625 21.550781 -24.761719 C 22.175781 -25.574219 22.640625 -26.476562 22.921875 -27.132812 C 23.796875 -29.160156 24.234375 -31.65625 23.015625 -31.65625 C 22.050781 -31.65625 21.425781 -30.40625 19.273438 -30.40625 C 16.4375 -30.40625 14.535156 -31.65625 12.101562 -31.65625 C 4.429688 -31.65625 0.78125 -23.328125 0.78125 -15.59375 C 0.78125 -4.835938 6.425781 0.46875 13.410156 0.46875 Z M 13.410156 0.46875 "/></g></g></g><g fill="#ffffff" fill-opacity="1"><g transform="translate(259.429132, 203.287028)"><g><path d="M 0.3125 0 L 10.757812 0 C 9.917969 -0.84375 9.667969 -1.902344 9.667969 -3.679688 L 9.667969 -27.507812 C 9.667969 -29.285156 9.917969 -30.34375 10.757812 -31.1875 L 0.3125 -31.1875 C 1.152344 -30.34375 1.402344 -29.285156 1.402344 -27.507812 L 1.402344 -3.679688 C 1.402344 -1.902344 1.152344 -0.84375 0.3125 0 Z M 0.3125 0 "/></g></g></g><g fill="#ffffff" fill-opacity="1"><g transform="translate(270.499615, 203.287028)"><g><path d="M 0 0 L 10.542969 0 C 12.382812 0 12.816406 -1.839844 12.816406 -3.304688 C 12.816406 -5.894531 11.757812 -8.453125 10.667969 -11.070312 L 15.25 -11.070312 C 15.875 -7.515625 16.28125 -4.429688 16.28125 -3.398438 C 16.28125 -2.121094 15.875 -0.8125 15.15625 0 L 28.039062 0 C 26.757812 -1.058594 26.074219 -3.460938 25.292969 -6.050781 C 22.765625 -14.503906 21.800781 -19.367188 20.242188 -28.039062 C 20.023438 -29.253906 20.242188 -30.53125 20.925781 -31.1875 L 7.109375 -31.1875 C 7.796875 -30.53125 8.015625 -29.253906 7.796875 -28.039062 C 6.238281 -19.367188 5.269531 -14.503906 2.746094 -6.050781 C 1.964844 -3.460938 1.277344 -1.058594 0 0 Z M 10.074219 -12.476562 C 9.074219 -14.9375 8.171875 -17.496094 8.171875 -20.242188 C 8.171875 -22.734375 8.703125 -25.074219 10.324219 -25.074219 C 12.070312 -25.074219 13.816406 -18.460938 14.96875 -12.476562 Z M 10.074219 -12.476562 "/></g></g></g><g fill="#000000" fill-opacity="1"><g transform="translate(155.846501, 222.047435)"><g><path d="M 0.117188 0 L 4.078125 0 C 3.757812 -0.320312 3.664062 -0.722656 3.664062 -1.394531 L 3.664062 -10.425781 C 3.664062 -11.101562 3.757812 -11.503906 4.078125 -11.820312 L 0.117188 -11.820312 C 0.4375 -11.503906 0.53125 -11.101562 0.53125 -10.425781 L 0.53125 -1.394531 C 0.53125 -0.722656 0.4375 -0.320312 0.117188 0 Z M 0.117188 0 "/></g></g></g><g fill="#000000" fill-opacity="1"><g transform="translate(160.04233, 222.047435)"><g><path d="M 0.117188 0 L 2.589844 0 C 3.285156 0 3.902344 -0.320312 3.902344 -1.039062 C 3.902344 -2.742188 1.21875 -4.492188 1.21875 -8.277344 C 1.21875 -8.820312 1.265625 -9.5625 1.65625 -9.5625 C 2.082031 -9.5625 2.507812 -8.15625 2.945312 -6.855469 C 3.203125 -6.078125 3.9375 -4.019531 4.246094 -3.085938 C 4.765625 -1.488281 5.226562 0 6.597656 0 L 9.695312 0 C 9.375 -0.320312 9.28125 -0.722656 9.28125 -1.394531 L 9.28125 -10.425781 C 9.28125 -11.101562 9.375 -11.503906 9.695312 -11.820312 L 7.222656 -11.820312 C 6.527344 -11.820312 5.910156 -11.503906 5.910156 -10.78125 C 5.910156 -9.078125 8.59375 -7.328125 8.59375 -3.546875 C 8.59375 -3.003906 8.546875 -2.257812 8.15625 -2.257812 C 7.730469 -2.257812 7.304688 -3.664062 6.867188 -4.964844 L 5.757812 -8.277344 C 4.695312 -11.445312 4.46875 -11.820312 3.640625 -11.820312 L 0.117188 -11.820312 C 0.4375 -11.503906 0.53125 -11.101562 0.53125 -10.425781 L 0.53125 -1.394531 C 0.53125 -0.722656 0.4375 -0.320312 0.117188 0 Z M 0.117188 0 "/></g></g></g><g fill="#000000" fill-opacity="1"><g transform="translate(169.852299, 222.047435)"><g><path d="M 0.117188 -11.820312 C 0.519531 -11.503906 0.613281 -11.101562 0.613281 -10.425781 L 0.613281 -1.394531 C 0.613281 -0.722656 0.519531 -0.320312 0.199219 0 L 3.570312 0 C 4.148438 0 4.410156 -0.722656 4.410156 -1.195312 C 4.410156 -3.476562 1.265625 -3.5 1.265625 -6.65625 C 1.265625 -6.878906 1.417969 -6.953125 1.523438 -6.953125 C 2.507812 -6.953125 3.308594 -4.8125 5.058594 -4.8125 C 6.515625 -4.8125 7.082031 -6.003906 7.082031 -6.796875 C 7.082031 -7.175781 6.976562 -7.472656 6.785156 -7.472656 C 6.585938 -7.472656 6.464844 -7.011719 5.921875 -7.011719 C 5 -7.011719 3.960938 -7.980469 2.789062 -7.980469 C 1.949219 -7.980469 1.703125 -7.542969 1.417969 -7.542969 C 1.289062 -7.542969 1.265625 -7.648438 1.265625 -7.730469 L 1.265625 -8.464844 C 1.265625 -8.914062 1.585938 -9.433594 2.152344 -9.433594 L 6.242188 -9.433594 C 7.625 -9.433594 7.730469 -8.523438 8.109375 -8.523438 C 8.335938 -8.523438 8.382812 -8.699219 8.382812 -8.996094 L 8.382812 -11.820312 Z M 0.117188 -11.820312 "/></g></g></g><g fill="#000000" fill-opacity="1"><g transform="translate(178.468526, 222.047435)"><g><path d="M 6.417969 0 C 7.367188 0 8.546875 0.105469 8.546875 -0.96875 C 8.546875 -2.765625 5.875 -2.742188 5.875 -3.796875 C 5.875 -5.058594 8.464844 -4.550781 8.464844 -5.910156 C 8.464844 -6.609375 6.527344 -7.210938 5.769531 -7.210938 C 4.871094 -7.210938 4.148438 -6.382812 4.148438 -5.496094 C 4.148438 -3.464844 6.148438 -3.273438 6.148438 -1.703125 C 6.148438 -0.957031 5.34375 -0.589844 4.597656 -0.589844 C 2.578125 -0.589844 1.546875 -3.074219 1.546875 -4.363281 C 1.546875 -7.105469 4.976562 -9.03125 4.976562 -10.769531 C 4.976562 -11.242188 4.707031 -11.820312 3.746094 -11.820312 L 0.117188 -11.820312 C 0.4375 -11.503906 0.53125 -11.101562 0.53125 -10.425781 L 0.53125 -1.394531 C 0.53125 -0.722656 0.4375 -0.320312 0.117188 0 Z M 6.417969 0 "/></g></g></g><g fill="#000000" fill-opacity="1"><g transform="translate(187.132029, 222.047435)"><g><path d="M 0.613281 -10.425781 L 0.613281 -4.363281 C 0.613281 -0.722656 3.132812 0.175781 4.859375 0.175781 C 6.585938 0.175781 9.136719 -0.722656 9.136719 -4.363281 L 9.136719 -10.425781 C 9.136719 -11.101562 9.234375 -11.503906 9.636719 -11.820312 L 5.566406 -11.820312 C 5.96875 -11.503906 6.066406 -11.101562 6.066406 -10.425781 L 6.066406 -4.621094 C 6.066406 -3.179688 5.09375 -2.410156 3.925781 -2.410156 C 2.71875 -2.410156 1.195312 -2.96875 1.195312 -4.46875 C 1.195312 -6.785156 4.398438 -8.167969 4.398438 -10.792969 C 4.398438 -11.242188 4.125 -11.820312 3.640625 -11.820312 L 0.117188 -11.820312 C 0.519531 -11.503906 0.613281 -11.101562 0.613281 -10.425781 Z M 0.613281 -10.425781 "/></g></g></g><g fill="#000000" fill-opacity="1"><g transform="translate(196.882896, 222.047435)"><g><path d="M 0.296875 -5.910156 C 0.296875 -1.832031 2.433594 0.175781 5.082031 0.175781 C 7.601562 0.175781 9.019531 -2.09375 9.019531 -3.699219 C 9.019531 -4.246094 8.867188 -4.339844 8.726562 -4.339844 C 8.144531 -4.339844 8.085938 -2.589844 6.015625 -2.589844 C 4.375 -2.589844 2.753906 -4.113281 2.046875 -6.289062 C 1.972656 -6.527344 1.914062 -6.953125 2.292969 -6.953125 C 3.273438 -6.953125 4.078125 -4.8125 5.828125 -4.8125 C 7.28125 -4.8125 7.851562 -6.003906 7.851562 -6.796875 C 7.851562 -7.175781 7.742188 -7.472656 7.554688 -7.472656 C 7.351562 -7.472656 7.234375 -7.011719 6.691406 -7.011719 C 5.769531 -7.011719 4.730469 -7.980469 3.558594 -7.980469 C 2.507812 -7.980469 2.234375 -7.367188 1.878906 -7.367188 C 1.558594 -7.367188 1.65625 -8.488281 1.65625 -8.714844 C 1.65625 -9.152344 1.832031 -10.144531 2.625 -10.144531 C 4.160156 -10.144531 4.929688 -8.726562 7.035156 -8.726562 C 7.886719 -8.726562 8.453125 -9.730469 8.6875 -10.285156 C 9.019531 -11.054688 9.1875 -12 8.726562 -12 C 8.359375 -12 8.121094 -11.527344 7.304688 -11.527344 C 6.230469 -11.527344 5.507812 -12 4.585938 -12 C 1.679688 -12 0.296875 -8.84375 0.296875 -5.910156 Z M 0.296875 -5.910156 "/></g></g></g><g fill="#000000" fill-opacity="1"><g transform="translate(206.137364, 222.047435)"><g><path d="M 0.117188 0 L 2.589844 0 C 3.285156 0 3.902344 -0.320312 3.902344 -1.039062 C 3.902344 -2.742188 1.21875 -4.492188 1.21875 -8.277344 C 1.21875 -8.820312 1.265625 -9.5625 1.65625 -9.5625 C 2.082031 -9.5625 2.507812 -8.15625 2.945312 -6.855469 C 3.203125 -6.078125 3.9375 -4.019531 4.246094 -3.085938 C 4.765625 -1.488281 5.226562 0 6.597656 0 L 9.695312 0 C 9.375 -0.320312 9.28125 -0.722656 9.28125 -1.394531 L 9.28125 -10.425781 C 9.28125 -11.101562 9.375 -11.503906 9.695312 -11.820312 L 7.222656 -11.820312 C 6.527344 -11.820312 5.910156 -11.503906 5.910156 -10.78125 C 5.910156 -9.078125 8.59375 -7.328125 8.59375 -3.546875 C 8.59375 -3.003906 8.546875 -2.257812 8.15625 -2.257812 C 7.730469 -2.257812 7.304688 -3.664062 6.867188 -4.964844 L 5.757812 -8.277344 C 4.695312 -11.445312 4.46875 -11.820312 3.640625 -11.820312 L 0.117188 -11.820312 C 0.4375 -11.503906 0.53125 -11.101562 0.53125 -10.425781 L 0.53125 -1.394531 C 0.53125 -0.722656 0.4375 -0.320312 0.117188 0 Z M 0.117188 0 "/></g></g></g><g fill="#000000" fill-opacity="1"><g transform="translate(215.947333, 222.047435)"><g><path d="M 5.082031 0.175781 C 7.601562 0.175781 9.019531 -2.175781 9.019531 -3.699219 C 9.019531 -4.246094 8.867188 -4.339844 8.726562 -4.339844 C 8.144531 -4.339844 8.085938 -2.589844 6.015625 -2.589844 C 3.191406 -2.589844 1.65625 -6.277344 1.65625 -8.714844 C 1.65625 -9.152344 1.832031 -10.144531 2.625 -10.144531 C 3.984375 -10.144531 4.742188 -9.03125 6.359375 -8.773438 C 6.574219 -8.738281 6.691406 -8.652344 6.691406 -8.488281 C 6.691406 -8.003906 4.246094 -7.519531 4.246094 -5.746094 C 4.246094 -4.800781 5.046875 -4.042969 6.003906 -4.042969 C 7 -4.042969 7.886719 -4.859375 7.886719 -5.746094 C 7.886719 -5.980469 7.816406 -6.394531 7.625 -6.394531 C 7.496094 -6.394531 7.519531 -6.277344 7.269531 -6.277344 C 6.855469 -6.277344 6.585938 -6.621094 6.585938 -7.011719 C 6.574219 -7.875 7.660156 -8.726562 8.167969 -9.386719 C 8.40625 -9.695312 8.582031 -10.035156 8.6875 -10.285156 C 9.019531 -11.054688 9.1875 -12 8.726562 -12 C 8.359375 -12 8.121094 -11.527344 7.304688 -11.527344 C 6.230469 -11.527344 5.507812 -12 4.585938 -12 C 1.679688 -12 0.296875 -8.84375 0.296875 -5.910156 C 0.296875 -1.832031 2.433594 0.175781 5.082031 0.175781 Z M 5.082031 0.175781 "/></g></g></g><g fill="#000000" fill-opacity="1"><g transform="translate(225.2018, 222.047435)"><g><path d="M 0.296875 -5.910156 C 0.296875 -1.832031 2.433594 0.175781 5.082031 0.175781 C 7.601562 0.175781 9.019531 -2.09375 9.019531 -3.699219 C 9.019531 -4.246094 8.867188 -4.339844 8.726562 -4.339844 C 8.144531 -4.339844 8.085938 -2.589844 6.015625 -2.589844 C 4.375 -2.589844 2.753906 -4.113281 2.046875 -6.289062 C 1.972656 -6.527344 1.914062 -6.953125 2.292969 -6.953125 C 3.273438 -6.953125 4.078125 -4.8125 5.828125 -4.8125 C 7.28125 -4.8125 7.851562 -6.003906 7.851562 -6.796875 C 7.851562 -7.175781 7.742188 -7.472656 7.554688 -7.472656 C 7.351562 -7.472656 7.234375 -7.011719 6.691406 -7.011719 C 5.769531 -7.011719 4.730469 -7.980469 3.558594 -7.980469 C 2.507812 -7.980469 2.234375 -7.367188 1.878906 -7.367188 C 1.558594 -7.367188 1.65625 -8.488281 1.65625 -8.714844 C 1.65625 -9.152344 1.832031 -10.144531 2.625 -10.144531 C 4.160156 -10.144531 4.929688 -8.726562 7.035156 -8.726562 C 7.886719 -8.726562 8.453125 -9.730469 8.6875 -10.285156 C 9.019531 -11.054688 9.1875 -12 8.726562 -12 C 8.359375 -12 8.121094 -11.527344 7.304688 -11.527344 C 6.230469 -11.527344 5.507812 -12 4.585938 -12 C 1.679688 -12 0.296875 -8.84375 0.296875 -5.910156 Z M 0.296875 -5.910156 "/></g></g></g><g fill="#000000" fill-opacity="1"><g transform="translate(234.456268, 222.047435)"><g><path d="M 0.117188 -11.820312 C 0.4375 -11.503906 0.53125 -11.101562 0.53125 -10.425781 L 0.53125 -5.910156 L 0.542969 -3.417969 L 0.542969 -1.394531 C 0.542969 -0.722656 0.449219 -0.320312 0.128906 0 L 3.5 0 C 4.078125 0 4.339844 -0.722656 4.339844 -1.195312 C 4.339844 -3.476562 1.148438 -3.808594 1.148438 -4.976562 C 1.148438 -5.035156 1.195312 -5.214844 1.359375 -5.214844 C 1.9375 -5.214844 5.261719 -3.039062 5.261719 -1.464844 C 5.261719 -0.875 5.058594 -0.699219 5.058594 -0.273438 C 5.058594 -0.0703125 5.25 0 5.402344 0 L 7.957031 0 C 8.535156 0 8.738281 -0.320312 8.738281 -1.074219 C 8.738281 -2.945312 6.230469 -3.808594 4.492188 -4.457031 C 3.121094 -4.976562 1.632812 -5.59375 1.632812 -6.230469 C 1.632812 -6.417969 1.714844 -6.609375 2.035156 -6.609375 C 2.707031 -6.609375 3.296875 -4.65625 5.542969 -4.65625 C 7.910156 -4.65625 8.855469 -6.574219 8.855469 -8.40625 C 8.855469 -10.320312 7.753906 -11.820312 4.882812 -11.820312 Z M 4.195312 -9.351562 C 5.828125 -9.351562 8.238281 -9.246094 8.238281 -8.179688 C 8.238281 -7.117188 6.3125 -7.011719 4.679688 -7.011719 C 3.050781 -7.011719 1.136719 -7.117188 1.136719 -8.179688 C 1.136719 -9.246094 2.992188 -9.351562 4.195312 -9.351562 Z M 4.195312 -9.351562 "/></g></g></g><g fill="#000000" fill-opacity="1"><g transform="translate(243.604358, 222.047435)"><g><path d="M 3.769531 0.175781 C 7.070312 0.175781 8.453125 -2.210938 8.453125 -4.316406 C 8.453125 -6.136719 7.105469 -7.449219 5.117188 -7.636719 C 3.332031 -7.800781 1.097656 -8.039062 1.097656 -9.316406 C 1.097656 -9.765625 1.453125 -10.144531 1.890625 -10.144531 C 3.476562 -10.144531 4.5625 -8.726562 6.300781 -8.726562 C 7.742188 -8.726562 8.820312 -12 7.992188 -12 C 7.625 -12 7.390625 -11.527344 6.574219 -11.527344 C 5.496094 -11.527344 4.777344 -12 3.855469 -12 C 1.867188 -12 0.199219 -10.390625 0.199219 -8.40625 C 0.199219 -5.910156 2.210938 -5.203125 4.550781 -4.480469 C 5.722656 -4.113281 6.773438 -3.546875 6.773438 -2.339844 C 6.773438 -1.429688 5.957031 -0.746094 5.046875 -0.746094 C 3.203125 -0.746094 3.417969 -2.460938 3.582031 -3.699219 C 3.640625 -4.148438 3.332031 -4.386719 2.980469 -4.398438 C 2.363281 -4.421875 0.117188 -3.25 0.117188 -2.542969 C 0.117188 -1.125 1.796875 0.175781 3.769531 0.175781 Z M 3.769531 0.175781 "/></g></g></g></svg>